<?xml version="1.0" encoding="utf-8"?>
<!-- Generator: Adobe Illustrator 21.1.0, SVG Export Plug-In . SVG Version: 6.00 Build 0)  -->
<svg version="1.1" id="Layer_1" xmlns="http://www.w3.org/2000/svg" xmlns:xlink="http://www.w3.org/1999/xlink" x="0px" y="0px"
	 viewBox="0 0 16 16" style="enable-background:new 0 0 16 16;" xml:space="preserve">
<style type="text/css">
	.st0{fill:#F4AF3D;}
	.st1{fill:#231F20;}
	.st2{fill:#6C707E;}
</style>
<rect x="3.1" y="3.1" transform="matrix(0.7071 -0.7071 0.7071 0.7071 -3.3636 8.0207)" class="st0" width="9.9" height="9.9"/>
<g>
	<path class="st2" d="M8,14.6L1.4,8L8,1.4L14.6,8L8,14.6z M2.1,8L8,13.9L13.9,8L8,2.1L2.1,8z"/>
</g>
<g>
	<path class="st1" d="M6.5,8.2h-2v0.3h2v0.3H4.1V7.2h2.4v0.3h-2v0.3h2V8.2z"/>
	<path class="st1" d="M6.8,7.2h0.3l1.7,1.3V7.2h0.3v1.7H8.8L7.2,7.6v1.3H6.8V7.2z"/>
	<path class="st1" d="M9.5,8.8V7.2h2l0.3,0.3v1l-0.3,0.3H9.5z M11.5,8.5v-1H9.9v1H11.5z"/>
</g>
</svg>
