<?xml version="1.0" encoding="utf-8"?>
<!-- Generator: Adobe Illustrator 21.1.0, SVG Export Plug-In . SVG Version: 6.00 Build 0)  -->
<svg version="1.1" id="Layer_1" xmlns="http://www.w3.org/2000/svg" xmlns:xlink="http://www.w3.org/1999/xlink" x="0px" y="0px"
	 viewBox="0 0 16 16" style="enable-background:new 0 0 16 16;" xml:space="preserve">
<style type="text/css">
	.st0{fill:#389FD6;}
	.st1{fill:#AFB1B3;}
</style>
<path class="st1" d="M1.4,2.5v11h13.3v-11H1.4z M5.9,3.5c0.3,0,0.5,0.2,0.5,0.5S6.2,4.5,5.9,4.5C5.7,4.5,5.4,4.3,5.4,4
	S5.7,3.5,5.9,3.5z M4.5,3.5C4.7,3.5,5,3.7,5,4S4.7,4.5,4.5,4.5C4.2,4.5,4,4.3,4,4S4.2,3.5,4.5,3.5z M3,3.5c0.3,0,0.5,0.2,0.5,0.5
	S3.2,4.5,3,4.5C2.7,4.5,2.5,4.3,2.5,4S2.7,3.5,3,3.5z M13.6,12.5H2.4v-7h11.3V12.5z"/>
<g>
	<path class="st0" d="M5.2,7.3l0.6,0.6L4.5,9.1l1.2,1.2l-0.6,0.6L3.4,9.1L5.2,7.3z"/>
	<path class="st0" d="M7,11.3H6L9,6.6h1L7,11.3z"/>
	<path class="st0" d="M12.6,9.1l-1.8,1.8l-0.6-0.6l1.2-1.2l-1.2-1.2l0.6-0.6L12.6,9.1z"/>
</g>
</svg>
