<?xml version="1.0" encoding="utf-8"?>
<!-- Generator: Adobe Illustrator 21.1.0, SVG Export Plug-In . SVG Version: 6.00 Build 0)  -->
<svg version="1.1" id="Layer_1" xmlns="http://www.w3.org/2000/svg" x="0px" y="0px"
     viewBox="0 0 16 16" style="enable-background:new 0 0 16 16;" xml:space="preserve">
<style type="text/css">
	.st0{fill:#6C707E;}
	.st1{fill:#389FD6;}
	.st2{fill:white;}
</style>
    <path class="st0" d="M12.5,2H13V1H3v1h0.5v2.2L7.3,8l-3.8,3.8V14H3v1h10v-1h-0.5v-2.2L8.7,8l3.8-3.8V2z"></path>
    <path class="st1" d="M 10.1 7.659 L 5.9 7.659 L 8 5.55" style="" transform="matrix(-1, 0, 0, -1, 16, 13.209001)"></path>
    <path class="st2" d="M 10.098 5.556 L 5.911 5.556 L 4.149 3.874 L 4.149 1.98 L 11.86 1.98 L 11.86 3.874 L 10.098 5.556 Z" style=""></path>
    <path class="st2" d="M 10.113 8.316 L 5.913 8.316 L 8.013 10.425" style="" transform="matrix(-1, 0, 0, -1, 16.025999, 18.740999)"></path>
    <path class="st1" d="M 10.11 10.419 L 5.923 10.419 L 4.161 12.101 L 4.161 13.995 L 11.872 13.995 L 11.872 12.101 L 10.11 10.419 Z" style=""></path>
</svg>
