<?xml version="1.0" encoding="utf-8"?>
<svg width="16" height="16" viewBox="0 0 16 16" xmlns="http://www.w3.org/2000/svg">
  <title>Access Control Lists</title>
  <g>
    <rect x="1" y="9" width="15" height="7" style="fill: rgb(255, 252, 183);"/>
    <g>
      <polygon points="7 1 3 5 7 5 7 1" fill="#6C707E" opacity="0.8" style="isolation: isolate"/>
      <polygon points="8 1 8 5 8 6 7 6 3 6 3 8 13 8 13 1 8 1" fill="#6C707E" opacity="0.8" style="isolation: isolate"/>
    </g>
  </g>
  <path d="M 2.428 14.958 L 3.684 9.97 L 4.785 9.97 L 6.049 14.958 L 5.174 14.958 L 4.9 13.748 L 3.575 13.748 L 3.302 14.958 L 2.428 14.958 Z M 3.732 13.051 L 4.744 13.051 L 4.443 11.712 C 4.392 11.489 4.348 11.288 4.314 11.108 C 4.278 10.928 4.252 10.797 4.238 10.714 C 4.224 10.797 4.199 10.928 4.162 11.108 C 4.127 11.288 4.083 11.486 4.033 11.706 L 3.732 13.051 Z M 8.39 15.025 C 8.067 15.025 7.788 14.966 7.55 14.844 C 7.315 14.724 7.13 14.553 7.001 14.332 C 6.872 14.112 6.806 13.851 6.806 13.549 L 6.806 11.378 C 6.806 11.076 6.872 10.817 7.001 10.596 C 7.13 10.374 7.315 10.203 7.55 10.083 C 7.788 9.961 8.067 9.902 8.39 9.902 C 8.71 9.902 8.987 9.961 9.225 10.083 C 9.461 10.203 9.646 10.374 9.778 10.596 C 9.91 10.817 9.976 11.076 9.976 11.378 L 9.116 11.378 C 9.116 11.145 9.054 10.966 8.928 10.841 C 8.803 10.715 8.623 10.654 8.39 10.654 C 8.159 10.654 7.979 10.715 7.851 10.841 C 7.724 10.966 7.661 11.145 7.661 11.378 L 7.661 13.549 C 7.661 13.781 7.724 13.96 7.851 14.086 C 7.979 14.212 8.159 14.274 8.39 14.274 C 8.623 14.274 8.803 14.212 8.928 14.086 C 9.054 13.96 9.116 13.781 9.116 13.549 L 9.976 13.549 C 9.976 13.851 9.91 14.112 9.778 14.332 C 9.646 14.553 9.461 14.724 9.225 14.844 C 8.987 14.966 8.71 15.025 8.39 15.025 Z M 11.212 14.958 L 11.212 9.97 L 12.066 9.97 L 12.066 14.185 L 14.184 14.185 L 14.184 14.958 L 11.212 14.958 Z" style="fill-opacity: 1; white-space: pre;"/>
</svg>