<?xml version="1.0" encoding="utf-8"?>
<svg id="Layer_1" data-name="Layer 1" width="32px" height="32px" viewBox="0 0 32 32" xmlns="http://www.w3.org/2000/svg">
    <title>xml</title>
    <g>
        <rect x="1" y="17" width="30" height="14" opacity="0.7" style="fill: rgb(126, 210, 255);"/>
        <g transform="matrix(2, 0, 0, 2, -1, -1)">
            <polygon points="7 1 3 5 7 5 7 1" fill="#AFB1B3" opacity="0.8" style="isolation: isolate"/>
            <polygon points="8 1 8 5 8 6 7 6 3 6 3 8 13 8 13 1 8 1" fill="#AFB1B3" opacity="0.8" style="isolation: isolate"/>
        </g>
        <g>
            <path d="M 4.58 28.678 C 4.394 28.678 4.26 28.638 4.18 28.558 C 4.1 28.464 4.06 28.338 4.06 28.178 L 4.06 19.678 C 4.06 19.504 4.1 19.372 4.18 19.278 C 4.26 19.198 4.394 19.158 4.58 19.158 L 10.4 19.158 C 10.586 19.158 10.72 19.198 10.8 19.278 C 10.866 19.344 10.9 19.472 10.9 19.658 L 10.9 20.018 C 10.9 20.204 10.866 20.338 10.8 20.418 C 10.72 20.498 10.586 20.538 10.4 20.538 L 5.86 20.538 L 5.86 23.238 L 9.16 23.238 C 9.346 23.238 9.48 23.272 9.56 23.338 C 9.626 23.418 9.66 23.544 9.66 23.718 L 9.66 24.098 C 9.66 24.272 9.626 24.398 9.56 24.478 C 9.48 24.558 9.346 24.598 9.16 24.598 L 5.86 24.598 L 5.86 28.178 C 5.86 28.338 5.82 28.464 5.74 28.558 C 5.66 28.638 5.52 28.678 5.32 28.678 L 4.58 28.678 Z" style="fill: rgb(35, 31, 32); fill-opacity: 0.8; white-space: pre;"></path>
            <path d="M 11.428 28.678 C 11.362 28.678 11.302 28.658 11.248 28.618 C 11.208 28.578 11.188 28.532 11.188 28.478 C 11.188 28.424 11.214 28.358 11.268 28.278 L 14.648 23.798 L 11.448 19.558 C 11.394 19.478 11.368 19.404 11.368 19.338 C 11.368 19.284 11.388 19.238 11.428 19.198 C 11.454 19.172 11.508 19.158 11.588 19.158 L 12.888 19.158 C 12.994 19.158 13.068 19.172 13.108 19.198 C 13.162 19.212 13.208 19.252 13.248 19.318 L 15.628 22.478 L 18.008 19.318 C 18.062 19.252 18.108 19.212 18.148 19.198 C 18.202 19.172 18.274 19.158 18.368 19.158 L 19.688 19.158 C 19.754 19.158 19.808 19.172 19.848 19.198 C 19.888 19.238 19.908 19.284 19.908 19.338 C 19.908 19.404 19.874 19.478 19.808 19.558 L 16.628 23.798 L 20.008 28.278 C 20.048 28.358 20.068 28.424 20.068 28.478 C 20.068 28.532 20.048 28.578 20.008 28.618 C 19.968 28.658 19.914 28.678 19.848 28.678 L 18.548 28.678 C 18.454 28.678 18.382 28.672 18.328 28.658 C 18.288 28.632 18.242 28.584 18.188 28.518 L 15.628 25.138 L 13.088 28.518 C 13.034 28.584 12.988 28.632 12.948 28.658 C 12.894 28.672 12.822 28.678 12.728 28.678 L 11.428 28.678 Z" style="fill: rgb(35, 31, 32); fill-opacity: 0.8; white-space: pre;"></path>
            <path d="M 24.005 28.878 C 23.351 28.878 22.705 28.812 22.065 28.678 C 21.425 28.532 20.911 28.324 20.525 28.058 C 20.405 27.978 20.345 27.904 20.345 27.838 C 20.345 27.772 20.365 27.718 20.405 27.678 L 20.865 26.938 C 20.919 26.858 20.971 26.818 21.025 26.818 C 21.065 26.818 21.125 26.838 21.205 26.878 C 21.551 27.092 21.951 27.258 22.405 27.378 C 22.859 27.512 23.319 27.578 23.785 27.578 C 24.425 27.578 24.905 27.472 25.225 27.258 C 25.545 27.044 25.705 26.704 25.705 26.238 C 25.705 25.958 25.645 25.738 25.525 25.578 C 25.405 25.404 25.225 25.258 24.985 25.138 C 24.759 25.018 24.385 24.852 23.865 24.638 L 23.545 24.518 C 22.931 24.278 22.425 24.044 22.025 23.818 C 21.639 23.592 21.311 23.298 21.045 22.938 C 20.779 22.578 20.645 22.132 20.645 21.598 C 20.645 20.758 20.971 20.104 21.625 19.638 C 22.279 19.172 23.131 18.938 24.185 18.938 C 24.825 18.938 25.379 19.004 25.845 19.138 C 26.325 19.258 26.739 19.444 27.085 19.698 C 27.191 19.778 27.245 19.852 27.245 19.918 C 27.245 19.984 27.225 20.038 27.185 20.078 L 26.745 20.818 C 26.691 20.898 26.645 20.938 26.605 20.938 C 26.565 20.938 26.505 20.912 26.425 20.858 C 25.825 20.472 25.085 20.278 24.205 20.278 C 23.605 20.278 23.159 20.384 22.865 20.598 C 22.571 20.812 22.425 21.152 22.425 21.618 C 22.425 21.912 22.485 22.144 22.605 22.318 C 22.739 22.492 22.925 22.638 23.165 22.758 C 23.405 22.878 23.791 23.038 24.325 23.238 L 24.685 23.378 C 25.365 23.658 25.899 23.912 26.285 24.138 C 26.671 24.364 26.965 24.652 27.165 24.998 C 27.379 25.332 27.485 25.764 27.485 26.298 C 27.485 27.098 27.185 27.732 26.585 28.198 C 25.985 28.652 25.125 28.878 24.005 28.878 Z" style="fill: rgb(35, 31, 32); fill-opacity: 0.8; white-space: pre;"></path>
        </g>
    </g>
</svg>