<?xml version="1.0" encoding="utf-8"?>
<svg id="Layer_1" data-name="Layer 1" width="16" height="16" viewBox="0 0 16 16" xmlns="http://www.w3.org/2000/svg">
  <title>xml</title>
  <g>
    <rect x="1" y="9" width="15" height="7" opacity="0.7" style="fill: rgb(126, 210, 255);"/>
    <g>
      <polygon points="7 1 3 5 7 5 7 1" fill="#9aa7b0" opacity="0.8" style="isolation: isolate"/>
      <polygon points="8 1 8 5 8 6 7 6 3 6 3 8 13 8 13 1 8 1" fill="#9aa7b0" opacity="0.8" style="isolation: isolate"/>
    </g>
    <path d="M 2.79 14.839 C 2.697 14.839 2.63 14.819 2.59 14.779 C 2.55 14.732 2.53 14.669 2.53 14.589 L 2.53 10.339 C 2.53 10.252 2.55 10.186 2.59 10.139 C 2.63 10.099 2.697 10.079 2.79 10.079 L 5.7 10.079 C 5.793 10.079 5.86 10.099 5.9 10.139 C 5.933 10.172 5.95 10.236 5.95 10.329 L 5.95 10.509 C 5.95 10.602 5.933 10.669 5.9 10.709 C 5.86 10.749 5.793 10.769 5.7 10.769 L 3.43 10.769 L 3.43 12.119 L 5.08 12.119 C 5.173 12.119 5.24 12.136 5.28 12.169 C 5.313 12.209 5.33 12.272 5.33 12.359 L 5.33 12.549 C 5.33 12.636 5.313 12.699 5.28 12.739 C 5.24 12.779 5.173 12.799 5.08 12.799 L 3.43 12.799 L 3.43 14.589 C 3.43 14.669 3.41 14.732 3.37 14.779 C 3.33 14.819 3.26 14.839 3.16 14.839 L 2.79 14.839 ZM 7.877 14.939 C 7.55 14.939 7.227 14.906 6.907 14.839 C 6.587 14.766 6.33 14.662 6.137 14.529 C 6.077 14.489 6.047 14.452 6.047 14.419 C 6.047 14.386 6.057 14.359 6.077 14.339 L 6.307 13.969 C 6.334 13.929 6.36 13.909 6.387 13.909 C 6.407 13.909 6.437 13.919 6.477 13.939 C 6.65 14.046 6.85 14.129 7.077 14.189 C 7.304 14.256 7.534 14.289 7.767 14.289 C 8.087 14.289 8.327 14.236 8.487 14.129 C 8.647 14.022 8.727 13.852 8.727 13.619 C 8.727 13.479 8.697 13.369 8.637 13.289 C 8.577 13.202 8.487 13.129 8.367 13.069 C 8.254 13.009 8.067 12.926 7.807 12.819 L 7.647 12.759 C 7.34 12.639 7.087 12.522 6.887 12.409 C 6.694 12.296 6.53 12.149 6.397 11.969 C 6.264 11.789 6.197 11.566 6.197 11.299 C 6.197 10.879 6.36 10.552 6.687 10.319 C 7.014 10.086 7.44 9.969 7.967 9.969 C 8.287 9.969 8.564 10.002 8.797 10.069 C 9.037 10.129 9.244 10.222 9.417 10.349 C 9.47 10.389 9.497 10.426 9.497 10.459 C 9.497 10.492 9.487 10.519 9.467 10.539 L 9.247 10.909 C 9.22 10.949 9.197 10.969 9.177 10.969 C 9.157 10.969 9.127 10.956 9.087 10.929 C 8.787 10.736 8.417 10.639 7.977 10.639 C 7.677 10.639 7.454 10.692 7.307 10.799 C 7.16 10.906 7.087 11.076 7.087 11.309 C 7.087 11.456 7.117 11.572 7.177 11.659 C 7.244 11.746 7.337 11.819 7.457 11.879 C 7.577 11.939 7.77 12.019 8.037 12.119 L 8.217 12.189 C 8.557 12.329 8.824 12.456 9.017 12.569 C 9.21 12.682 9.357 12.826 9.457 12.999 C 9.564 13.166 9.617 13.382 9.617 13.649 C 9.617 14.049 9.467 14.366 9.167 14.599 C 8.867 14.826 8.437 14.939 7.877 14.939 ZM 10.105 14.839 C 10.072 14.839 10.042 14.829 10.015 14.809 C 9.995 14.789 9.985 14.766 9.985 14.739 C 9.985 14.712 9.998 14.679 10.025 14.639 L 11.715 12.399 L 10.115 10.279 C 10.088 10.239 10.075 10.202 10.075 10.169 C 10.075 10.142 10.085 10.119 10.105 10.099 C 10.118 10.086 10.145 10.079 10.185 10.079 L 10.835 10.079 C 10.888 10.079 10.925 10.086 10.945 10.099 C 10.972 10.106 10.995 10.126 11.015 10.159 L 12.205 11.739 L 13.395 10.159 C 13.422 10.126 13.445 10.106 13.465 10.099 C 13.492 10.086 13.528 10.079 13.575 10.079 L 14.235 10.079 C 14.268 10.079 14.295 10.086 14.315 10.099 C 14.335 10.119 14.345 10.142 14.345 10.169 C 14.345 10.202 14.328 10.239 14.295 10.279 L 12.705 12.399 L 14.395 14.639 C 14.415 14.679 14.425 14.712 14.425 14.739 C 14.425 14.766 14.415 14.789 14.395 14.809 C 14.375 14.829 14.348 14.839 14.315 14.839 L 13.665 14.839 C 13.618 14.839 13.582 14.836 13.555 14.829 C 13.535 14.816 13.512 14.792 13.485 14.759 L 12.205 13.069 L 10.935 14.759 C 10.908 14.792 10.885 14.816 10.865 14.829 C 10.838 14.836 10.802 14.839 10.755 14.839 L 10.105 14.839 Z" transform="matrix(1, 0, 0, 1, 0, 0)" style="fill: rgb(35, 31, 32); fill-opacity: 0.8; white-space: pre;"/>
  </g>
</svg>