<?xml version="1.0" encoding="utf-8"?>
<svg id="Layer_1" data-name="Layer 1" width="16" height="16" viewBox="0 0 16 16" xmlns="http://www.w3.org/2000/svg">
  <title>xml</title>
  <g>
    <rect x="1" y="9" width="15" height="7" opacity="0.7" style="fill: rgb(126, 210, 255);"/>
    <g>
      <polygon points="7 1 3 5 7 5 7 1" fill="#6C707E" opacity="0.8" style="isolation: isolate"/>
      <polygon points="8 1 8 5 8 6 7 6 3 6 3 8 13 8 13 1 8 1" fill="#6C707E" opacity="0.8" style="isolation: isolate"/>
    </g>
    <g>
      <path d="M 12.364 14.938 C 12.037 14.938 11.714 14.905 11.394 14.838 C 11.074 14.765 10.817 14.661 10.624 14.528 C 10.564 14.488 10.534 14.451 10.534 14.418 C 10.534 14.385 10.544 14.358 10.564 14.338 L 10.794 13.968 C 10.821 13.928 10.847 13.908 10.874 13.908 C 10.894 13.908 10.924 13.918 10.964 13.938 C 11.137 14.045 11.337 14.128 11.564 14.188 C 11.791 14.255 12.021 14.288 12.254 14.288 C 12.574 14.288 12.814 14.235 12.974 14.128 C 13.134 14.021 13.214 13.851 13.214 13.618 C 13.214 13.478 13.184 13.368 13.124 13.288 C 13.064 13.201 12.974 13.128 12.854 13.068 C 12.741 13.008 12.554 12.925 12.294 12.818 L 12.134 12.758 C 11.827 12.638 11.574 12.521 11.374 12.408 C 11.181 12.295 11.017 12.148 10.884 11.968 C 10.751 11.788 10.684 11.565 10.684 11.298 C 10.684 10.878 10.847 10.551 11.174 10.318 C 11.501 10.085 11.927 9.968 12.454 9.968 C 12.774 9.968 13.051 10.001 13.284 10.068 C 13.524 10.128 13.731 10.221 13.904 10.348 C 13.957 10.388 13.984 10.425 13.984 10.458 C 13.984 10.491 13.974 10.518 13.954 10.538 L 13.734 10.908 C 13.707 10.948 13.684 10.968 13.664 10.968 C 13.644 10.968 13.614 10.955 13.574 10.928 C 13.274 10.735 12.904 10.638 12.464 10.638 C 12.164 10.638 11.941 10.691 11.794 10.798 C 11.647 10.905 11.574 11.075 11.574 11.308 C 11.574 11.455 11.604 11.571 11.664 11.658 C 11.731 11.745 11.824 11.818 11.944 11.878 C 12.064 11.938 12.257 12.018 12.524 12.118 L 12.704 12.188 C 13.044 12.328 13.311 12.455 13.504 12.568 C 13.697 12.681 13.844 12.825 13.944 12.998 C 14.051 13.165 14.104 13.381 14.104 13.648 C 14.104 14.048 13.954 14.365 13.654 14.598 C 13.354 14.825 12.924 14.938 12.364 14.938 Z" style="fill: rgb(35, 31, 32); fill-opacity: 0.8; white-space: pre;"></path>
      <path d="M 6.137 14.851 C 6.104 14.851 6.074 14.841 6.047 14.821 C 6.027 14.801 6.017 14.778 6.017 14.751 C 6.017 14.724 6.03 14.691 6.057 14.651 L 7.747 12.411 L 6.147 10.291 C 6.12 10.251 6.107 10.214 6.107 10.181 C 6.107 10.154 6.117 10.131 6.137 10.111 C 6.15 10.098 6.177 10.091 6.217 10.091 L 6.867 10.091 C 6.92 10.091 6.957 10.098 6.977 10.111 C 7.004 10.118 7.027 10.138 7.047 10.171 L 8.237 11.751 L 9.427 10.171 C 9.454 10.138 9.477 10.118 9.497 10.111 C 9.524 10.098 9.56 10.091 9.607 10.091 L 10.267 10.091 C 10.3 10.091 10.327 10.098 10.347 10.111 C 10.367 10.131 10.377 10.154 10.377 10.181 C 10.377 10.214 10.36 10.251 10.327 10.291 L 8.737 12.411 L 10.427 14.651 C 10.447 14.691 10.457 14.724 10.457 14.751 C 10.457 14.778 10.447 14.801 10.427 14.821 C 10.407 14.841 10.38 14.851 10.347 14.851 L 9.697 14.851 C 9.65 14.851 9.614 14.848 9.587 14.841 C 9.567 14.828 9.544 14.804 9.517 14.771 L 8.237 13.081 L 6.967 14.771 C 6.94 14.804 6.917 14.828 6.897 14.841 C 6.87 14.848 6.834 14.851 6.787 14.851 L 6.137 14.851 Z" style="fill: rgb(35, 31, 32); fill-opacity: 0.8; white-space: pre;"></path>
      <path d="M 2.79 14.839 C 2.697 14.839 2.63 14.819 2.59 14.779 C 2.55 14.732 2.53 14.669 2.53 14.589 L 2.53 10.339 C 2.53 10.252 2.55 10.186 2.59 10.139 C 2.63 10.099 2.697 10.079 2.79 10.079 L 5.7 10.079 C 5.793 10.079 5.86 10.099 5.9 10.139 C 5.933 10.172 5.95 10.236 5.95 10.329 L 5.95 10.509 C 5.95 10.602 5.933 10.669 5.9 10.709 C 5.86 10.749 5.793 10.769 5.7 10.769 L 3.43 10.769 L 3.43 12.119 L 5.08 12.119 C 5.173 12.119 5.24 12.136 5.28 12.169 C 5.313 12.209 5.33 12.272 5.33 12.359 L 5.33 12.549 C 5.33 12.636 5.313 12.699 5.28 12.739 C 5.24 12.779 5.173 12.799 5.08 12.799 L 3.43 12.799 L 3.43 14.589 C 3.43 14.669 3.41 14.732 3.37 14.779 C 3.33 14.819 3.26 14.839 3.16 14.839 L 2.79 14.839 Z" style="fill: rgb(35, 31, 32); fill-opacity: 0.8; white-space: pre;"></path>
    </g>
  </g>
</svg>