<?xml version="1.0" encoding="utf-8"?>
<svg id="Layer_1" data-name="Layer 1" width="32px" height="32px" viewBox="0 0 32 32" xmlns="http://www.w3.org/2000/svg">
  <title>xml</title>
  <g>
    <rect x="1" y="17" width="30" height="14" opacity="0.7" style="fill: rgb(126, 210, 255);"/>
    <g transform="matrix(2, 0, 0, 2, -1, -1)">
      <polygon points="7 1 3 5 7 5 7 1" fill="#9aa7b0" opacity="0.8" style="isolation: isolate"/>
      <polygon points="8 1 8 5 8 6 7 6 3 6 3 8 13 8 13 1 8 1" fill="#9aa7b0" opacity="0.8" style="isolation: isolate"/>
    </g>
    <path d="M 4.58 28.678 C 4.394 28.678 4.26 28.638 4.18 28.558 C 4.1 28.464 4.06 28.338 4.06 28.178 L 4.06 19.678 C 4.06 19.504 4.1 19.372 4.18 19.278 C 4.26 19.198 4.394 19.158 4.58 19.158 L 10.4 19.158 C 10.586 19.158 10.72 19.198 10.8 19.278 C 10.866 19.344 10.9 19.472 10.9 19.658 L 10.9 20.018 C 10.9 20.204 10.866 20.338 10.8 20.418 C 10.72 20.498 10.586 20.538 10.4 20.538 L 5.86 20.538 L 5.86 23.238 L 9.16 23.238 C 9.346 23.238 9.48 23.272 9.56 23.338 C 9.626 23.418 9.66 23.544 9.66 23.718 L 9.66 24.098 C 9.66 24.272 9.626 24.398 9.56 24.478 C 9.48 24.558 9.346 24.598 9.16 24.598 L 5.86 24.598 L 5.86 28.178 C 5.86 28.338 5.82 28.464 5.74 28.558 C 5.66 28.638 5.52 28.678 5.32 28.678 L 4.58 28.678 Z M 14.754 28.878 C 14.1 28.878 13.454 28.812 12.814 28.678 C 12.174 28.532 11.66 28.324 11.274 28.058 C 11.154 27.978 11.094 27.904 11.094 27.838 C 11.094 27.772 11.114 27.718 11.154 27.678 L 11.614 26.938 C 11.668 26.858 11.72 26.818 11.774 26.818 C 11.814 26.818 11.874 26.838 11.954 26.878 C 12.3 27.092 12.7 27.258 13.154 27.378 C 13.608 27.512 14.068 27.578 14.534 27.578 C 15.174 27.578 15.654 27.472 15.974 27.258 C 16.294 27.044 16.454 26.704 16.454 26.238 C 16.454 25.958 16.394 25.738 16.274 25.578 C 16.154 25.404 15.974 25.258 15.734 25.138 C 15.508 25.018 15.134 24.852 14.614 24.638 L 14.294 24.518 C 13.68 24.278 13.174 24.044 12.774 23.818 C 12.388 23.592 12.06 23.298 11.794 22.938 C 11.528 22.578 11.394 22.132 11.394 21.598 C 11.394 20.758 11.72 20.104 12.374 19.638 C 13.028 19.172 13.88 18.938 14.934 18.938 C 15.574 18.938 16.128 19.004 16.594 19.138 C 17.074 19.258 17.488 19.444 17.834 19.698 C 17.94 19.778 17.994 19.852 17.994 19.918 C 17.994 19.984 17.974 20.038 17.934 20.078 L 17.494 20.818 C 17.44 20.898 17.394 20.938 17.354 20.938 C 17.314 20.938 17.254 20.912 17.174 20.858 C 16.574 20.472 15.834 20.278 14.954 20.278 C 14.354 20.278 13.908 20.384 13.614 20.598 C 13.32 20.812 13.174 21.152 13.174 21.618 C 13.174 21.912 13.234 22.144 13.354 22.318 C 13.488 22.492 13.674 22.638 13.914 22.758 C 14.154 22.878 14.54 23.038 15.074 23.238 L 15.434 23.378 C 16.114 23.658 16.648 23.912 17.034 24.138 C 17.42 24.364 17.714 24.652 17.914 24.998 C 18.128 25.332 18.234 25.764 18.234 26.298 C 18.234 27.098 17.934 27.732 17.334 28.198 C 16.734 28.652 15.874 28.878 14.754 28.878 Z M 19.21 28.678 C 19.144 28.678 19.084 28.658 19.03 28.618 C 18.99 28.578 18.97 28.532 18.97 28.478 C 18.97 28.424 18.996 28.358 19.05 28.278 L 22.43 23.798 L 19.23 19.558 C 19.176 19.478 19.15 19.404 19.15 19.338 C 19.15 19.284 19.17 19.238 19.21 19.198 C 19.236 19.172 19.29 19.158 19.37 19.158 L 20.67 19.158 C 20.776 19.158 20.85 19.172 20.89 19.198 C 20.944 19.212 20.99 19.252 21.03 19.318 L 23.41 22.478 L 25.79 19.318 C 25.844 19.252 25.89 19.212 25.93 19.198 C 25.984 19.172 26.056 19.158 26.15 19.158 L 27.47 19.158 C 27.536 19.158 27.59 19.172 27.63 19.198 C 27.67 19.238 27.69 19.284 27.69 19.338 C 27.69 19.404 27.656 19.478 27.59 19.558 L 24.41 23.798 L 27.79 28.278 C 27.83 28.358 27.85 28.424 27.85 28.478 C 27.85 28.532 27.83 28.578 27.79 28.618 C 27.75 28.658 27.696 28.678 27.63 28.678 L 26.33 28.678 C 26.236 28.678 26.164 28.672 26.11 28.658 C 26.07 28.632 26.024 28.584 25.97 28.518 L 23.41 25.138 L 20.87 28.518 C 20.816 28.584 20.77 28.632 20.73 28.658 C 20.676 28.672 20.604 28.678 20.51 28.678 L 19.21 28.678 Z" style="fill: rgb(35, 31, 32); fill-opacity: 0.8; white-space: pre;"/>
  </g>
</svg>