<?xml version="1.0" encoding="utf-8"?>
<svg id="Layer_1" data-name="Layer 1" width="16" height="16" viewBox="0 0 16 16" xmlns="http://www.w3.org/2000/svg">
  <title>xml</title>
  <g>
    <rect x="1" y="9" width="15" height="7" opacity="0.7" style="fill: #f98b9e;"/>
    <g>
      <polygon points="7 1 3 5 7 5 7 1" opacity="0.8" style="isolation: isolate" fill="#9aa7b0"/>
      <polygon points="8 1 8 5 8 6 7 6 3 6 3 8 13 8 13 1 8 1" opacity="0.8" style="isolation: isolate" fill="#9aa7b0"/>
    </g>
    <path d="M 3.314 14.896 C 3.221 14.896 3.154 14.876 3.114 14.836 C 3.074 14.789 3.054 14.726 3.054 14.646 L 3.054 10.396 C 3.054 10.309 3.074 10.243 3.114 10.196 C 3.154 10.156 3.221 10.136 3.314 10.136 L 3.684 10.136 C 3.777 10.136 3.847 10.156 3.894 10.196 C 3.934 10.243 3.954 10.309 3.954 10.396 L 3.954 14.646 C 3.954 14.726 3.934 14.789 3.894 14.836 C 3.854 14.876 3.784 14.896 3.684 14.896 L 3.314 14.896 ZM 5.036 14.896 C 4.943 14.896 4.876 14.876 4.836 14.836 C 4.796 14.789 4.776 14.726 4.776 14.646 L 4.776 10.396 C 4.776 10.309 4.796 10.243 4.836 10.196 C 4.876 10.156 4.946 10.136 5.046 10.136 L 5.426 10.136 C 5.499 10.136 5.556 10.146 5.596 10.166 C 5.636 10.186 5.666 10.223 5.686 10.276 L 7.106 13.536 L 8.516 10.276 C 8.543 10.223 8.576 10.186 8.616 10.166 C 8.649 10.146 8.706 10.136 8.786 10.136 L 9.156 10.136 C 9.256 10.136 9.326 10.156 9.366 10.196 C 9.406 10.243 9.426 10.309 9.426 10.396 L 9.426 14.646 C 9.426 14.726 9.406 14.789 9.366 14.836 C 9.326 14.876 9.259 14.896 9.166 14.896 L 8.856 14.896 C 8.763 14.896 8.696 14.876 8.656 14.836 C 8.616 14.789 8.596 14.726 8.596 14.646 L 8.596 11.626 L 7.396 14.296 C 7.363 14.369 7.326 14.423 7.286 14.456 C 7.246 14.489 7.186 14.506 7.106 14.506 C 7.019 14.506 6.956 14.489 6.916 14.456 C 6.876 14.423 6.839 14.369 6.806 14.296 L 5.616 11.626 L 5.616 14.646 C 5.616 14.726 5.596 14.789 5.556 14.836 C 5.516 14.876 5.446 14.896 5.346 14.896 L 5.036 14.896 ZM 9.985 14.896 C 9.952 14.896 9.922 14.886 9.895 14.866 C 9.875 14.846 9.865 14.823 9.865 14.796 C 9.865 14.769 9.878 14.736 9.905 14.696 L 11.595 12.456 L 9.995 10.336 C 9.968 10.296 9.955 10.259 9.955 10.226 C 9.955 10.199 9.965 10.176 9.985 10.156 C 9.998 10.143 10.025 10.136 10.065 10.136 L 10.715 10.136 C 10.768 10.136 10.805 10.143 10.825 10.156 C 10.852 10.163 10.875 10.183 10.895 10.216 L 12.085 11.796 L 13.275 10.216 C 13.302 10.183 13.325 10.163 13.345 10.156 C 13.372 10.143 13.408 10.136 13.455 10.136 L 14.115 10.136 C 14.148 10.136 14.175 10.143 14.195 10.156 C 14.215 10.176 14.225 10.199 14.225 10.226 C 14.225 10.259 14.208 10.296 14.175 10.336 L 12.585 12.456 L 14.275 14.696 C 14.295 14.736 14.305 14.769 14.305 14.796 C 14.305 14.823 14.295 14.846 14.275 14.866 C 14.255 14.886 14.228 14.896 14.195 14.896 L 13.545 14.896 C 13.498 14.896 13.462 14.893 13.435 14.886 C 13.415 14.873 13.392 14.849 13.365 14.816 L 12.085 13.126 L 10.815 14.816 C 10.788 14.849 10.765 14.873 10.745 14.886 C 10.718 14.893 10.682 14.896 10.635 14.896 L 9.985 14.896 Z" transform="matrix(1, 0, 0, 1, 0, 0)" style="fill: rgb(35, 31, 32); fill-opacity: 0.8; white-space: pre;"/>
  </g>
</svg>