<?xml version="1.0" encoding="utf-8"?>
<svg id="Layer_1" data-name="Layer 1" width="32px" height="32px" viewBox="0 0 32 32" xmlns="http://www.w3.org/2000/svg">
  <title>xml</title>
  <g>
    <rect x="1" y="17" width="30" height="14" opacity="0.7" style="fill: #f98b9e;"/>
    <g transform="matrix(2, 0, 0, 2, -1, -1)">
      <polygon points="7 1 3 5 7 5 7 1" opacity="0.8" style="isolation: isolate" fill="#9aa7b0"/>
      <polygon points="8 1 8 5 8 6 7 6 3 6 3 8 13 8 13 1 8 1" opacity="0.8" style="isolation: isolate" fill="#9aa7b0"/>
    </g>
    <path d="M 5.628 28.792 C 5.442 28.792 5.308 28.752 5.228 28.672 C 5.148 28.578 5.108 28.452 5.108 28.292 L 5.108 19.792 C 5.108 19.618 5.148 19.486 5.228 19.392 C 5.308 19.312 5.442 19.272 5.628 19.272 L 6.368 19.272 C 6.554 19.272 6.694 19.312 6.788 19.392 C 6.868 19.486 6.908 19.618 6.908 19.792 L 6.908 28.292 C 6.908 28.452 6.868 28.578 6.788 28.672 C 6.708 28.752 6.568 28.792 6.368 28.792 L 5.628 28.792 Z M 9.072 28.792 C 8.886 28.792 8.752 28.752 8.672 28.672 C 8.592 28.578 8.552 28.452 8.552 28.292 L 8.552 19.792 C 8.552 19.618 8.592 19.486 8.672 19.392 C 8.752 19.312 8.892 19.272 9.092 19.272 L 9.852 19.272 C 9.998 19.272 10.112 19.292 10.192 19.332 C 10.272 19.372 10.332 19.446 10.372 19.552 L 13.212 26.072 L 16.032 19.552 C 16.086 19.446 16.152 19.372 16.232 19.332 C 16.298 19.292 16.412 19.272 16.572 19.272 L 17.312 19.272 C 17.512 19.272 17.652 19.312 17.732 19.392 C 17.812 19.486 17.852 19.618 17.852 19.792 L 17.852 28.292 C 17.852 28.452 17.812 28.578 17.732 28.672 C 17.652 28.752 17.518 28.792 17.332 28.792 L 16.712 28.792 C 16.526 28.792 16.392 28.752 16.312 28.672 C 16.232 28.578 16.192 28.452 16.192 28.292 L 16.192 22.252 L 13.792 27.592 C 13.726 27.738 13.652 27.846 13.572 27.912 C 13.492 27.978 13.372 28.012 13.212 28.012 C 13.038 28.012 12.912 27.978 12.832 27.912 C 12.752 27.846 12.678 27.738 12.612 27.592 L 10.232 22.252 L 10.232 28.292 C 10.232 28.452 10.192 28.578 10.112 28.672 C 10.032 28.752 9.892 28.792 9.692 28.792 L 9.072 28.792 Z M 18.97 28.792 C 18.904 28.792 18.844 28.772 18.79 28.732 C 18.75 28.692 18.73 28.646 18.73 28.592 C 18.73 28.538 18.756 28.472 18.81 28.392 L 22.19 23.912 L 18.99 19.672 C 18.936 19.592 18.91 19.518 18.91 19.452 C 18.91 19.398 18.93 19.352 18.97 19.312 C 18.996 19.286 19.05 19.272 19.13 19.272 L 20.43 19.272 C 20.536 19.272 20.61 19.286 20.65 19.312 C 20.704 19.326 20.75 19.366 20.79 19.432 L 23.17 22.592 L 25.55 19.432 C 25.604 19.366 25.65 19.326 25.69 19.312 C 25.744 19.286 25.816 19.272 25.91 19.272 L 27.23 19.272 C 27.296 19.272 27.35 19.286 27.39 19.312 C 27.43 19.352 27.45 19.398 27.45 19.452 C 27.45 19.518 27.416 19.592 27.35 19.672 L 24.17 23.912 L 27.55 28.392 C 27.59 28.472 27.61 28.538 27.61 28.592 C 27.61 28.646 27.59 28.692 27.55 28.732 C 27.51 28.772 27.456 28.792 27.39 28.792 L 26.09 28.792 C 25.996 28.792 25.924 28.786 25.87 28.772 C 25.83 28.746 25.784 28.698 25.73 28.632 L 23.17 25.252 L 20.63 28.632 C 20.576 28.698 20.53 28.746 20.49 28.772 C 20.436 28.786 20.364 28.792 20.27 28.792 L 18.97 28.792 Z" style="fill: rgb(35, 31, 32); fill-opacity: 0.8; white-space: pre;"/>
  </g>
</svg>