<?xml version="1.0" encoding="UTF-8"?>
<svg xmlns="http://www.w3.org/2000/svg" xmlns:xlink="http://www.w3.org/1999/xlink" width="16px" height="16px" viewBox="0 0 16 16" version="1.1">
<g id="surface1">
<path style=" stroke:none;fill-rule:nonzero;fill:rgb(12.54902%,53.333333%,100%);fill-opacity:1;" d="M 13.445312 12 L 2.554688 12 C 1.710938 12.015625 1.015625 11.34375 1 10.5 L 1 5.5 C 1.015625 4.65625 1.710938 3.984375 2.554688 4 L 13.445312 4 C 14.289062 3.984375 14.984375 4.65625 15 5.5 L 15 10.5 C 14.984375 11.34375 14.289062 12.015625 13.445312 12 Z M 2.554688 5 C 2.273438 4.996094 2.042969 5.21875 2.035156 5.5 L 2.035156 10.5 C 2.042969 10.78125 2.273438 11.003906 2.554688 11 L 13.445312 11 C 13.726562 11.003906 13.957031 10.78125 13.964844 10.5 L 13.964844 5.5 C 13.957031 5.21875 13.726562 4.996094 13.445312 5 Z M 2.554688 5 "/>
<path style=" stroke:none;fill-rule:nonzero;fill:rgb(12.54902%,53.333333%,100%);fill-opacity:1;" d="M 11.371094 7.5 L 10.332031 7.5 C 10.058594 7.5 9.832031 7.277344 9.832031 7 C 9.832031 6.722656 10.058594 6.5 10.332031 6.5 L 11.371094 6.5 C 11.648438 6.5 11.871094 6.722656 11.871094 7 C 11.871094 7.277344 11.648438 7.5 11.371094 7.5 Z M 11.371094 7.5 "/>
<path style=" stroke:none;fill-rule:nonzero;fill:rgb(12.54902%,53.333333%,100%);fill-opacity:1;" d="M 12.40625 9.5 L 10.332031 9.5 C 10.058594 9.5 9.832031 9.277344 9.832031 9 C 9.832031 8.722656 10.058594 8.5 10.332031 8.5 L 12.40625 8.5 C 12.683594 8.5 12.90625 8.722656 12.90625 9 C 12.90625 9.277344 12.683594 9.5 12.40625 9.5 Z M 12.40625 9.5 "/>
<path style=" stroke:none;fill-rule:nonzero;fill:rgb(12.54902%,53.333333%,100%);fill-opacity:1;" d="M 6.109375 8 C 6.113281 8.234375 6.070312 8.46875 5.980469 8.683594 C 5.902344 8.871094 5.78125 9.039062 5.628906 9.171875 L 6.0625 9.691406 L 5.46875 9.691406 L 5.222656 9.40625 C 5.054688 9.464844 4.875 9.496094 4.695312 9.496094 C 4.441406 9.5 4.195312 9.4375 3.972656 9.316406 C 3.757812 9.199219 3.582031 9.023438 3.46875 8.808594 C 3.339844 8.558594 3.273438 8.28125 3.28125 8 C 3.273438 7.71875 3.339844 7.441406 3.46875 7.191406 C 3.585938 6.976562 3.761719 6.796875 3.972656 6.679688 C 4.425781 6.445312 4.964844 6.445312 5.414062 6.679688 C 5.628906 6.796875 5.804688 6.976562 5.921875 7.191406 C 6.054688 7.441406 6.117188 7.71875 6.109375 8 Z M 4.476562 8.441406 L 5.015625 8.441406 L 5.242188 8.71875 C 5.316406 8.632812 5.371094 8.53125 5.402344 8.421875 C 5.445312 8.285156 5.464844 8.140625 5.460938 8 C 5.480469 7.746094 5.40625 7.496094 5.253906 7.292969 C 5.113281 7.132812 4.910156 7.042969 4.695312 7.050781 C 4.484375 7.042969 4.277344 7.132812 4.140625 7.292969 C 3.988281 7.496094 3.914062 7.746094 3.929688 8 C 3.914062 8.253906 3.988281 8.503906 4.140625 8.707031 C 4.277344 8.867188 4.484375 8.957031 4.695312 8.949219 C 4.75 8.949219 4.808594 8.945312 4.859375 8.933594 Z M 6.800781 9.5 L 6.800781 6.5 L 7.4375 6.5 L 7.4375 8.992188 L 8.730469 8.992188 L 8.730469 9.5 Z M 6.800781 9.5 "/>
</g>
</svg>
