<?xml version="1.0" encoding="utf-8"?>
<svg width="16" height="16" viewBox="0 0 16 16" xmlns="http://www.w3.org/2000/svg">
    <title>Polyglot Query</title>
    <g>
        <rect x="1" y="9" width="15" height="7" opacity="0.7" style="fill: rgb(126, 255, 223);"/>
        <g>
            <polygon points="7 1 3 5 7 5 7 1" fill="#AFB1B3" opacity="0.8" style="isolation: isolate"/>
            <polygon points="8 1 8 5 8 6 7 6 3 6 3 8 13 8 13 1 8 1" fill="#AFB1B3" opacity="0.8" style="isolation: isolate"/>
        </g>
        <path d="M 3.08 14.542 L 3.08 10.016 L 4.587 10.016 C 4.889 10.016 5.152 10.074 5.378 10.19 C 5.602 10.305 5.777 10.467 5.901 10.676 C 6.025 10.884 6.087 11.129 6.087 11.411 C 6.087 11.692 6.025 11.937 5.901 12.146 C 5.777 12.354 5.602 12.516 5.378 12.632 C 5.152 12.748 4.889 12.806 4.587 12.806 L 3.855 12.806 L 3.855 14.542 L 3.08 14.542 Z M 3.855 12.124 L 4.587 12.124 C 4.806 12.124 4.98 12.058 5.108 11.926 C 5.236 11.793 5.3 11.621 5.3 11.411 C 5.3 11.2 5.236 11.028 5.108 10.896 C 4.98 10.764 4.806 10.698 4.587 10.698 L 3.855 10.698 L 3.855 12.124 Z M 8.208 14.604 C 7.914 14.604 7.66 14.549 7.445 14.44 C 7.23 14.33 7.064 14.175 6.946 13.975 C 6.828 13.774 6.769 13.537 6.769 13.265 L 6.769 11.293 C 6.769 11.02 6.828 10.783 6.946 10.583 C 7.064 10.383 7.23 10.228 7.445 10.118 C 7.66 10.008 7.914 9.954 8.208 9.954 C 8.497 9.954 8.749 10.008 8.964 10.118 C 9.179 10.228 9.346 10.383 9.466 10.583 C 9.586 10.783 9.646 11.02 9.646 11.293 L 8.865 11.293 C 8.865 11.082 8.808 10.92 8.694 10.806 C 8.58 10.692 8.418 10.636 8.208 10.636 C 7.997 10.636 7.834 10.691 7.718 10.803 C 7.602 10.915 7.544 11.076 7.544 11.287 L 7.544 13.265 C 7.544 13.475 7.602 13.639 7.718 13.755 C 7.834 13.87 7.997 13.928 8.208 13.928 C 8.418 13.928 8.58 13.87 8.694 13.755 C 8.808 13.639 8.865 13.475 8.865 13.265 L 8.865 12.763 L 8.096 12.763 L 8.096 12.093 L 9.646 12.093 L 9.646 13.265 C 9.646 13.537 9.586 13.774 9.466 13.975 C 9.346 14.175 9.179 14.33 8.964 14.44 C 8.749 14.549 8.497 14.604 8.208 14.604 Z M 12.579 15.658 L 11.94 14.604 C 11.928 14.604 11.915 14.604 11.903 14.604 C 11.613 14.604 11.361 14.548 11.147 14.437 C 10.931 14.325 10.764 14.167 10.644 13.965 C 10.524 13.763 10.465 13.525 10.465 13.252 L 10.465 11.306 C 10.465 11.032 10.523 10.795 10.641 10.593 C 10.759 10.39 10.926 10.233 11.143 10.121 C 11.36 10.009 11.613 9.954 11.903 9.954 C 12.192 9.954 12.444 10.009 12.659 10.121 C 12.874 10.233 13.042 10.39 13.162 10.593 C 13.281 10.795 13.341 11.032 13.341 11.306 L 13.341 13.252 C 13.341 13.525 13.282 13.764 13.165 13.969 C 13.047 14.173 12.88 14.329 12.666 14.437 L 13.416 15.658 L 12.579 15.658 Z M 11.903 13.922 C 12.117 13.922 12.282 13.863 12.396 13.745 C 12.509 13.627 12.566 13.463 12.566 13.252 L 12.566 11.306 C 12.566 11.094 12.507 10.929 12.39 10.81 C 12.272 10.69 12.109 10.63 11.903 10.63 C 11.696 10.63 11.534 10.69 11.416 10.81 C 11.298 10.929 11.24 11.094 11.24 11.306 L 11.24 13.252 C 11.24 13.463 11.296 13.627 11.41 13.745 C 11.524 13.863 11.688 13.922 11.903 13.922 Z" style="fill: rgb(35, 31, 32); text-wrap-mode: nowrap; fill-opacity: 1;"/>
    </g>
</svg>