<?xml version="1.0" encoding="utf-8"?>
<svg viewBox="-0.4403104782104492 -0.6164331436157227 32 32" xmlns="http://www.w3.org/2000/svg">
  <g transform="matrix(1, 0, 0, 1, 76.675743, 86.701859)">
    <path d="M -72.224 -63.177 C -74.518 -67.14 -72.956 -73.361 -68.217 -78.016 C -66.803 -79.405 -65.246 -80.517 -63.65 -81.332 C -59.177 -83.617 -54.398 -83.579 -51.597 -80.828 C -51.591 -80.823 -51.59 -80.82 -51.583 -80.814 C -52.344 -78.642 -54.763 -74.021 -62.022 -71.522 C -68.67 -69.233 -71.235 -65.589 -72.224 -63.177 Z M -50.531 -79.473 C -51.105 -78.152 -52.107 -76.429 -53.834 -74.733 C -55.568 -73.028 -58.037 -71.353 -61.529 -70.15 C -68.624 -67.706 -70.606 -63.712 -71.157 -61.771 C -71.132 -61.746 -71.11 -61.719 -71.084 -61.695 C -67.284 -57.963 -59.844 -59.225 -54.465 -64.511 C -49.676 -69.21 -48.136 -75.511 -50.531 -79.473 Z" style="fill: rgb(189, 148, 0);"/>
  </g>
  <g transform="matrix(1, 0, 0, 1, 76.675743, 86.701859)"/>
  <g transform="matrix(1, 0, 0, 1, 76.675743, 86.701859)"/>
  <g transform="matrix(1, 0, 0, 1, 76.675743, 86.701859)"/>
  <g transform="matrix(1, 0, 0, 1, 76.675743, 86.701859)"/>
  <g transform="matrix(1, 0, 0, 1, 76.675743, 86.701859)"/>
  <g transform="matrix(1, 0, 0, 1, 76.675743, 86.701859)"/>
  <g transform="matrix(1, 0, 0, 1, 76.675743, 86.701859)"/>
  <g transform="matrix(1, 0, 0, 1, 76.675743, 86.701859)"/>
  <g transform="matrix(1, 0, 0, 1, 76.675743, 86.701859)"/>
  <g transform="matrix(1, 0, 0, 1, 76.675743, 86.701859)"/>
  <g transform="matrix(1, 0, 0, 1, 76.675743, 86.701859)"/>
  <g transform="matrix(1, 0, 0, 1, 76.675743, 86.701859)"/>
  <g transform="matrix(1, 0, 0, 1, 76.675743, 86.701859)"/>
  <g transform="matrix(1, 0, 0, 1, 76.675743, 86.701859)"/>
  <g transform="matrix(1, 0, 0, 1, 76.675743, 86.701859)"/>
</svg>