<?xml version="1.0" encoding="utf-8"?>
<svg viewBox="0 0 16 16" xmlns="http://www.w3.org/2000/svg">
  <g transform="matrix(1, 0, 0, 1, 76.675743, 86.701859)">
    <path d="M -74.123 -74.535 C -75.211 -76.443 -74.469 -79.437 -72.217 -81.676 C -69.662 -84.22 -66.126 -84.826 -64.321 -83.03 C -64.319 -83.028 -64.318 -83.026 -64.313 -83.023 C -64.676 -81.977 -65.826 -79.754 -69.274 -78.551 C -72.433 -77.448 -73.652 -75.694 -74.123 -74.535 Z M -63.814 -82.378 C -64.086 -81.742 -64.562 -80.912 -65.384 -80.096 C -66.207 -79.275 -67.38 -78.47 -69.041 -77.891 C -72.411 -76.715 -73.354 -74.792 -73.615 -73.859 C -73.603 -73.845 -73.592 -73.833 -73.58 -73.822 C -71.775 -72.025 -68.239 -72.631 -65.683 -75.177 C -63.408 -77.438 -62.676 -80.471 -63.814 -82.378 Z" fill="#bd9400" style=""/>
  </g>
  <g transform="matrix(1, 0, 0, 1, 76.675743, 86.701859)"/>
  <g transform="matrix(1, 0, 0, 1, 76.675743, 86.701859)"/>
  <g transform="matrix(1, 0, 0, 1, 76.675743, 86.701859)"/>
  <g transform="matrix(1, 0, 0, 1, 76.675743, 86.701859)"/>
  <g transform="matrix(1, 0, 0, 1, 76.675743, 86.701859)"/>
  <g transform="matrix(1, 0, 0, 1, 76.675743, 86.701859)"/>
  <g transform="matrix(1, 0, 0, 1, 76.675743, 86.701859)"/>
  <g transform="matrix(1, 0, 0, 1, 76.675743, 86.701859)"/>
  <g transform="matrix(1, 0, 0, 1, 76.675743, 86.701859)"/>
  <g transform="matrix(1, 0, 0, 1, 76.675743, 86.701859)"/>
  <g transform="matrix(1, 0, 0, 1, 76.675743, 86.701859)"/>
  <g transform="matrix(1, 0, 0, 1, 76.675743, 86.701859)"/>
  <g transform="matrix(1, 0, 0, 1, 76.675743, 86.701859)"/>
  <g transform="matrix(1, 0, 0, 1, 76.675743, 86.701859)"/>
  <g transform="matrix(1, 0, 0, 1, 76.675743, 86.701859)"/>
</svg>