<?xml version="1.0" encoding="utf-8"?>
<svg version="1.1" id="Layer_1" x="0px" y="0px" viewBox="0 0 16 16" style="enable-background:new 0 0 16 16;" xmlns="http://www.w3.org/2000/svg">
  <style type="text/css">
	.st0{fill:#ffc64b;}
	.st1{opacity:0.7;fill:#404040;}
	.st2{opacity:0.7;}
	.st3{fill:#404040;}
	.st4{enable-background:new    ;}
</style>
  <title>Layer 1</title>
  <rect id="svg_4" x="0.498" y="8.05" class="st0" width="14.899" height="7.396" style=""/>
  <g class="st4" style="" transform="matrix(0.986425, 0, 0, 1.780005, 0.020362, -9.119926)">
    <path class="st3" d="M1.5,12.8v-2.1H4l0.4,0.4v1.2L4,12.8H1.5z M2,11.5h2v-0.4H2V11.5z M2,12.4h2V12H2V12.4z"/>
    <path class="st3" d="M7.8,12H5.3v0.4h2.5v0.4H4.9v-2.1h2.9v0.4H5.3v0.4h2.5V12z"/>
    <path class="st3" d="M8.6,12.8H8.2v-2.1h2.9v2.1h-0.4V12H8.6V12.8z M8.6,11.5h2.1v-0.4H8.6V11.5z"/>
    <path class="st3" d="M11.5,10.7H12l2.1,1.6v-1.6h0.4v2.1H14l-2-1.6v1.6h-0.4v-2.1C11.6,10.7,11.5,10.7,11.5,10.7z"/>
  </g>
  <g transform="matrix(1, 0, 0, 1, -8.491714, 1.189134)" style="">
    <rect id="rect-1" x="8.915" y="6.835" class="st0" width="14.973" height="7.434" style="fill: rgb(255, 133, 141); visibility: hidden;"/>
    <polygon class="st1" points="11.923 6.436 11.923 0.436 18.423 0.436 20.723 3.036 20.723 6.436 21.723 6.436 21.723 2.736 18.823 -0.564 10.923 -0.564 10.923 6.436" style="opacity: 0.7; fill: rgb(64, 64, 64);"/>
    <path class="st2" d="M 5.31 25.454" style="opacity: 0.7; fill: none; stroke: rgb(0, 0, 0);"/>
    <path class="st2" d="M 5.71 25.854" style="opacity: 0.7; fill: none; stroke: rgb(0, 0, 0);"/>
    <g class="st3" transform="matrix(1, 0, 0, 1, 8.322961, -1.56512)" style="opacity: 0.7;">
      <g>
        <rect x="4.2" y="7" class="st4" width="7.6" height="1" style="fill: rgb(64, 64, 64);"/>
      </g>
      <rect x="4.2" y="4.9" class="st4" width="6.7" height="1" style="fill: rgb(64, 64, 64);"/>
      <g>
        <rect x="4.2" y="2.8" class="st4" width="5.7" height="1" style="fill: rgb(64, 64, 64);"/>
      </g>
    </g>
    <g style="" transform="matrix(1.068418, 0, 0, 1.068418, 7.830323, -2.17596)"/>
    <g style="" transform="matrix(1.068418, 0, 0, 1.068418, 7.830323, -2.17596)"/>
  </g>
</svg>