<?xml version="1.0" encoding="utf-8"?>
<svg viewBox="0 0 32 32" xmlns="http://www.w3.org/2000/svg">
  <g transform="matrix(1, 0, 0, 1, 76.675743, 86.701859)">
    <path d="M -74.666 -60.067 C -77.592 -65.254 -75.6 -73.393 -69.549 -79.482 C -62.68 -86.395 -53.177 -88.043 -48.326 -83.162 C -48.32 -83.155 -48.316 -83.149 -48.307 -83.143 C -49.28 -80.301 -52.369 -74.254 -61.638 -70.987 C -70.127 -67.99 -73.401 -63.225 -74.666 -60.067 Z M -46.964 -81.388 C -47.697 -79.66 -48.977 -77.406 -51.182 -75.187 C -53.396 -72.956 -56.549 -70.765 -61.009 -69.191 C -70.068 -65.994 -72.599 -60.768 -73.303 -58.23 C -73.269 -58.196 -73.243 -58.161 -73.208 -58.13 C -68.357 -53.249 -58.856 -54.898 -51.987 -61.813 C -45.874 -67.962 -43.906 -76.205 -46.964 -81.388 Z" fill="#6b5200" style=""/>
  </g>
  <g transform="matrix(1, 0, 0, 1, 76.675743, 86.701859)"/>
  <g transform="matrix(1, 0, 0, 1, 76.675743, 86.701859)"/>
  <g transform="matrix(1, 0, 0, 1, 76.675743, 86.701859)"/>
  <g transform="matrix(1, 0, 0, 1, 76.675743, 86.701859)"/>
  <g transform="matrix(1, 0, 0, 1, 76.675743, 86.701859)"/>
  <g transform="matrix(1, 0, 0, 1, 76.675743, 86.701859)"/>
  <g transform="matrix(1, 0, 0, 1, 76.675743, 86.701859)"/>
  <g transform="matrix(1, 0, 0, 1, 76.675743, 86.701859)"/>
  <g transform="matrix(1, 0, 0, 1, 76.675743, 86.701859)"/>
  <g transform="matrix(1, 0, 0, 1, 76.675743, 86.701859)"/>
  <g transform="matrix(1, 0, 0, 1, 76.675743, 86.701859)"/>
  <g transform="matrix(1, 0, 0, 1, 76.675743, 86.701859)"/>
  <g transform="matrix(1, 0, 0, 1, 76.675743, 86.701859)"/>
  <g transform="matrix(1, 0, 0, 1, 76.675743, 86.701859)"/>
  <g transform="matrix(1, 0, 0, 1, 76.675743, 86.701859)"/>
</svg>