<?xml version="1.0" encoding="UTF-8"?>
<!-- Uploaded to: SVG Repo, www.svgrepo.com, Generator: SVG Repo Mixer Tools.
    https://www.svgrepo.com/page/licensing#CC%20Attribution
    https://www.svgrepo.com/svg/430188/process-gear-business
 -->
<svg xmlns="http://www.w3.org/2000/svg" width="16px" height="16px" viewBox="0 0 16 16" version="1.1">
    <g id="surface1">
        <path style=" stroke:none;fill-rule:nonzero;fill:rgb(13.72549%,12.156863%,12.54902%);fill-opacity:1;"
              d="M 2.722656 8.160156 L 5.882812 8.160156 C 5.960938 8.640625 6.375 8.992188 6.863281 8.996094 L 9.136719 8.996094 C 9.625 8.992188 10.039062 8.640625 10.117188 8.160156 L 13.277344 8.160156 C 13.984375 8.160156 14.558594 7.585938 14.558594 6.875 L 14.558594 5.386719 C 14.558594 4.707031 14.027344 4.148438 13.347656 4.109375 C 13.269531 3.628906 12.855469 3.277344 12.371094 3.277344 L 10.097656 3.277344 C 9.613281 3.28125 9.203125 3.628906 9.121094 4.101562 L 7.105469 4.101562 L 7.105469 3.675781 C 7.105469 3.597656 7.046875 3.527344 6.964844 3.515625 L 6.3125 3.425781 L 6.710938 2.898438 C 6.757812 2.832031 6.75 2.742188 6.695312 2.6875 L 5.851562 1.847656 C 5.796875 1.792969 5.707031 1.785156 5.644531 1.835938 L 5.117188 2.234375 L 5.023438 1.578125 C 5.011719 1.5 4.945312 1.4375 4.863281 1.441406 L 3.675781 1.441406 C 3.597656 1.4375 3.527344 1.5 3.515625 1.578125 L 3.425781 2.234375 L 2.898438 1.835938 C 2.835938 1.785156 2.746094 1.792969 2.6875 1.847656 L 1.847656 2.6875 C 1.792969 2.746094 1.785156 2.832031 1.835938 2.898438 L 2.234375 3.425781 L 1.578125 3.519531 C 1.5 3.53125 1.4375 3.601562 1.441406 3.679688 L 1.441406 4.863281 C 1.441406 4.945312 1.5 5.011719 1.578125 5.023438 L 2.234375 5.113281 L 1.835938 5.644531 C 1.785156 5.707031 1.792969 5.796875 1.847656 5.851562 L 2.6875 6.695312 C 2.746094 6.75 2.832031 6.757812 2.898438 6.707031 L 3.425781 6.308594 L 3.519531 6.964844 C 3.53125 7.042969 3.601562 7.101562 3.679688 7.101562 L 4.863281 7.101562 C 4.945312 7.101562 5.011719 7.042969 5.023438 6.964844 L 5.113281 6.308594 L 5.644531 6.707031 C 5.707031 6.757812 5.796875 6.75 5.851562 6.695312 L 6.691406 5.851562 C 6.75 5.796875 6.753906 5.707031 6.707031 5.644531 L 6.308594 5.117188 L 6.964844 5.023438 C 7.042969 5.011719 7.101562 4.945312 7.101562 4.867188 L 7.101562 4.421875 L 9.117188 4.421875 C 9.191406 4.90625 9.605469 5.265625 10.097656 5.265625 L 12.371094 5.265625 C 12.859375 5.265625 13.273438 4.910156 13.347656 4.429688 C 13.851562 4.46875 14.238281 4.882812 14.238281 5.386719 L 14.238281 6.875 C 14.238281 7.40625 13.808594 7.839844 13.277344 7.839844 L 10.117188 7.839844 C 10.039062 7.359375 9.625 7.007812 9.136719 7.003906 L 6.863281 7.003906 C 6.375 7.007812 5.960938 7.359375 5.882812 7.839844 L 2.722656 7.839844 C 2.015625 7.839844 1.441406 8.414062 1.441406 9.125 L 1.441406 10.613281 C 1.441406 11.292969 1.972656 11.851562 2.652344 11.890625 C 2.730469 12.371094 3.144531 12.722656 3.628906 12.722656 L 5.902344 12.722656 C 6.386719 12.71875 6.796875 12.371094 6.878906 11.898438 L 8.84375 11.898438 C 8.949219 13.445312 10.269531 14.628906 11.820312 14.566406 C 13.371094 14.503906 14.589844 13.222656 14.570312 11.667969 C 14.554688 10.117188 13.304688 8.863281 11.75 8.835938 C 10.199219 8.8125 8.910156 10.027344 8.839844 11.578125 L 6.882812 11.578125 C 6.808594 11.09375 6.394531 10.734375 5.902344 10.734375 L 3.628906 10.734375 C 3.140625 10.734375 2.726562 11.089844 2.652344 11.570312 C 2.148438 11.53125 1.761719 11.117188 1.761719 10.613281 L 1.761719 9.125 C 1.761719 8.59375 2.191406 8.160156 2.722656 8.160156 Z M 4.269531 5.414062 C 3.640625 5.414062 3.128906 4.902344 3.128906 4.269531 C 3.128906 3.640625 3.640625 3.128906 4.269531 3.128906 C 4.902344 3.128906 5.414062 3.640625 5.414062 4.269531 C 5.414062 4.902344 4.902344 5.414062 4.269531 5.414062 Z M 4.269531 5.414062 "/>
        <path style=" stroke:none;fill-rule:nonzero;fill:rgb(100%,72.941176%,31.372549%);fill-opacity:1;"
              d="M 12.371094 4.945312 L 10.097656 4.945312 C 9.722656 4.945312 9.421875 4.644531 9.421875 4.269531 C 9.421875 3.898438 9.722656 3.597656 10.097656 3.597656 L 12.371094 3.597656 C 12.742188 3.597656 13.046875 3.898438 13.046875 4.269531 C 13.046875 4.644531 12.742188 4.945312 12.371094 4.945312 Z M 12.371094 4.945312 "/>
        <path style=" stroke:none;fill-rule:nonzero;fill:rgb(100%,72.941176%,31.372549%);fill-opacity:1;"
              d="M 6.863281 7.324219 L 9.136719 7.324219 C 9.503906 7.324219 9.804688 7.621094 9.8125 7.988281 C 9.8125 7.992188 9.808594 7.996094 9.808594 8 C 9.808594 8.003906 9.8125 8.007812 9.8125 8.011719 C 9.804688 8.378906 9.503906 8.675781 9.136719 8.675781 L 6.863281 8.675781 C 6.496094 8.675781 6.195312 8.378906 6.1875 8.011719 C 6.1875 8.007812 6.191406 8.003906 6.191406 8 C 6.191406 7.996094 6.1875 7.992188 6.1875 7.988281 C 6.195312 7.621094 6.496094 7.324219 6.863281 7.324219 Z M 6.863281 7.324219 "/>
        <path style=" stroke:none;fill-rule:nonzero;fill:rgb(100%,72.941176%,31.372549%);fill-opacity:1;"
              d="M 3.628906 11.054688 L 5.902344 11.054688 C 6.277344 11.054688 6.578125 11.355469 6.578125 11.730469 C 6.578125 12.101562 6.277344 12.402344 5.902344 12.402344 L 3.628906 12.402344 C 3.257812 12.402344 2.953125 12.101562 2.953125 11.730469 C 2.953125 11.355469 3.257812 11.054688 3.628906 11.054688 Z M 3.628906 11.054688 "/>
        <path style=" stroke:none;fill-rule:nonzero;fill:rgb(13.72549%,12.156863%,12.54902%);fill-opacity:1;"
              d="M 7.355469 8 C 7.355469 8.089844 7.28125 8.160156 7.195312 8.160156 C 7.105469 8.160156 7.035156 8.089844 7.035156 8 C 7.035156 7.910156 7.105469 7.839844 7.195312 7.839844 C 7.28125 7.839844 7.355469 7.910156 7.355469 8 Z M 7.355469 8 "/>
        <path style=" stroke:none;fill-rule:nonzero;fill:rgb(13.72549%,12.156863%,12.54902%);fill-opacity:1;"
              d="M 8.167969 8 C 8.167969 8.089844 8.097656 8.160156 8.007812 8.160156 C 7.917969 8.160156 7.847656 8.089844 7.847656 8 C 7.847656 7.910156 7.917969 7.839844 8.007812 7.839844 C 8.097656 7.839844 8.167969 7.910156 8.167969 8 Z M 8.167969 8 "/>
        <path style=" stroke:none;fill-rule:nonzero;fill:rgb(13.72549%,12.156863%,12.54902%);fill-opacity:1;"
              d="M 8.964844 8 C 8.964844 8.089844 8.894531 8.160156 8.804688 8.160156 C 8.71875 8.160156 8.644531 8.089844 8.644531 8 C 8.644531 7.910156 8.71875 7.839844 8.804688 7.839844 C 8.894531 7.839844 8.964844 7.910156 8.964844 8 Z M 8.964844 8 "/>
        <path style=" stroke:none;fill-rule:nonzero;fill:rgb(13.72549%,12.156863%,12.54902%);fill-opacity:1;"
              d="M 10.589844 4.269531 C 10.589844 4.359375 10.515625 4.433594 10.429688 4.433594 C 10.339844 4.433594 10.265625 4.359375 10.265625 4.269531 C 10.265625 4.183594 10.339844 4.109375 10.429688 4.109375 C 10.515625 4.109375 10.589844 4.183594 10.589844 4.269531 Z M 10.589844 4.269531 "/>
        <path style=" stroke:none;fill-rule:nonzero;fill:rgb(13.72549%,12.156863%,12.54902%);fill-opacity:1;"
              d="M 11.402344 4.269531 C 11.402344 4.359375 11.328125 4.433594 11.242188 4.433594 C 11.152344 4.433594 11.082031 4.359375 11.082031 4.269531 C 11.082031 4.183594 11.152344 4.109375 11.242188 4.109375 C 11.328125 4.109375 11.402344 4.183594 11.402344 4.269531 Z M 11.402344 4.269531 "/>
        <path style=" stroke:none;fill-rule:nonzero;fill:rgb(13.72549%,12.156863%,12.54902%);fill-opacity:1;"
              d="M 12.199219 4.269531 C 12.199219 4.359375 12.128906 4.433594 12.039062 4.433594 C 11.949219 4.433594 11.878906 4.359375 11.878906 4.269531 C 11.878906 4.183594 11.949219 4.109375 12.039062 4.109375 C 12.128906 4.109375 12.199219 4.183594 12.199219 4.269531 Z M 12.199219 4.269531 "/>
        <path style=" stroke:none;fill-rule:nonzero;fill:rgb(13.72549%,12.156863%,12.54902%);fill-opacity:1;"
              d="M 5.734375 11.730469 C 5.734375 11.816406 5.660156 11.890625 5.570312 11.890625 C 5.484375 11.890625 5.410156 11.816406 5.410156 11.730469 C 5.410156 11.640625 5.484375 11.566406 5.570312 11.566406 C 5.660156 11.566406 5.734375 11.640625 5.734375 11.730469 Z M 5.734375 11.730469 "/>
        <path style=" stroke:none;fill-rule:nonzero;fill:rgb(13.72549%,12.156863%,12.54902%);fill-opacity:1;"
              d="M 4.917969 11.730469 C 4.917969 11.816406 4.847656 11.890625 4.757812 11.890625 C 4.671875 11.890625 4.597656 11.816406 4.597656 11.730469 C 4.597656 11.640625 4.671875 11.566406 4.757812 11.566406 C 4.847656 11.566406 4.917969 11.640625 4.917969 11.730469 Z M 4.917969 11.730469 "/>
        <path style=" stroke:none;fill-rule:nonzero;fill:rgb(13.72549%,12.156863%,12.54902%);fill-opacity:1;"
              d="M 4.121094 11.730469 C 4.121094 11.816406 4.050781 11.890625 3.960938 11.890625 C 3.871094 11.890625 3.800781 11.816406 3.800781 11.730469 C 3.800781 11.640625 3.871094 11.566406 3.960938 11.566406 C 4.050781 11.566406 4.121094 11.640625 4.121094 11.730469 Z M 4.121094 11.730469 "/>
        <path style=" stroke:none;fill-rule:nonzero;fill:rgb(48.627451%,75.294118%,35.686275%);fill-opacity:1;"
              d="M 11.699219 9.15625 C 13.101562 9.15625 14.242188 10.292969 14.242188 11.699219 C 14.242188 13.101562 13.101562 14.242188 11.699219 14.242188 C 10.292969 14.242188 9.15625 13.101562 9.15625 11.699219 C 9.160156 10.296875 10.296875 9.160156 11.699219 9.15625 Z M 11.699219 9.15625 "/>
        <path style=" stroke:none;fill-rule:nonzero;fill:rgb(55.294118%,49.803922%,53.72549%);fill-opacity:1;"
              d="M 5.996094 4.835938 L 6.785156 4.726562 L 6.785156 3.816406 L 6 3.707031 C 5.941406 3.699219 5.894531 3.660156 5.871094 3.609375 C 5.851562 3.554688 5.859375 3.496094 5.890625 3.449219 L 6.367188 2.816406 L 5.726562 2.171875 L 5.089844 2.652344 C 5.046875 2.6875 4.984375 2.695312 4.933594 2.671875 C 4.878906 2.652344 4.84375 2.601562 4.835938 2.546875 L 4.726562 1.761719 L 3.816406 1.761719 L 3.707031 2.546875 C 3.699219 2.601562 3.660156 2.652344 3.609375 2.671875 C 3.554688 2.695312 3.496094 2.6875 3.449219 2.652344 L 2.816406 2.171875 L 2.171875 2.816406 L 2.652344 3.449219 C 2.6875 3.496094 2.695312 3.554688 2.671875 3.609375 C 2.652344 3.660156 2.601562 3.699219 2.546875 3.707031 L 1.761719 3.816406 L 1.761719 4.726562 L 2.546875 4.835938 C 2.601562 4.84375 2.652344 4.882812 2.671875 4.933594 C 2.695312 4.988281 2.6875 5.046875 2.652344 5.09375 L 2.171875 5.726562 L 2.816406 6.367188 L 3.449219 5.890625 C 3.496094 5.855469 3.554688 5.847656 3.609375 5.871094 C 3.660156 5.890625 3.699219 5.9375 3.707031 5.996094 L 3.816406 6.78125 L 4.726562 6.78125 L 4.835938 5.996094 C 4.84375 5.9375 4.882812 5.890625 4.933594 5.871094 C 4.988281 5.847656 5.046875 5.855469 5.09375 5.890625 L 5.726562 6.367188 L 6.367188 5.722656 L 5.890625 5.089844 C 5.855469 5.046875 5.847656 4.984375 5.871094 4.933594 C 5.890625 4.878906 5.941406 4.84375 5.996094 4.835938 Z M 4.269531 5.414062 C 3.640625 5.414062 3.128906 4.902344 3.128906 4.269531 C 3.128906 3.640625 3.640625 3.128906 4.269531 3.128906 C 4.902344 3.128906 5.414062 3.640625 5.414062 4.269531 C 5.414062 4.902344 4.902344 5.414062 4.269531 5.414062 Z M 4.269531 5.414062 "/>
        <path style=" stroke:none;fill-rule:nonzero;fill:rgb(13.72549%,12.156863%,12.54902%);fill-opacity:1;"
              d="M 4.269531 2.808594 C 3.464844 2.808594 2.808594 3.464844 2.808594 4.269531 C 2.808594 5.078125 3.464844 5.734375 4.269531 5.734375 C 5.078125 5.734375 5.734375 5.078125 5.734375 4.269531 C 5.734375 3.464844 5.078125 2.808594 4.269531 2.808594 Z M 4.269531 5.414062 C 3.640625 5.414062 3.128906 4.902344 3.128906 4.269531 C 3.128906 3.640625 3.640625 3.128906 4.269531 3.128906 C 4.902344 3.128906 5.414062 3.640625 5.414062 4.269531 C 5.414062 4.902344 4.902344 5.414062 4.269531 5.414062 Z M 4.269531 5.414062 "/>
        <path style=" stroke:none;fill-rule:nonzero;fill:rgb(13.72549%,12.156863%,12.54902%);fill-opacity:1;"
              d="M 11.441406 12.402344 C 11.503906 12.464844 11.605469 12.464844 11.667969 12.402344 L 12.984375 11.085938 C 13.046875 11.023438 13.046875 10.921875 12.984375 10.859375 C 12.921875 10.796875 12.824219 10.796875 12.761719 10.859375 L 11.550781 12.0625 L 10.96875 11.476562 C 10.902344 11.417969 10.804688 11.417969 10.742188 11.480469 C 10.679688 11.542969 10.679688 11.640625 10.742188 11.703125 Z M 11.441406 12.402344 "/>
    </g>
</svg>
