<?xml version="1.0" encoding="utf-8"?>
<svg viewBox="0.177 1.147 15.6 13.544" width="16" height="16" xmlns="http://www.w3.org/2000/svg">
    <defs>
        <style type="text/css">
            .st0{fill:rgb(250,215,188)}
            .st1{fill:#AFB1B3}
            .st2{fill:#AFB1B3}
            .st3{fill:#AFB1B3}
        </style>
    </defs>
    <path class="st0" fill-rule="evenodd"
          d="M 11.61 5.353 L 9.338 8.37 C 9.309 8.407 9.318 8.477 9.353 8.496 C 9.359 8.499 9.363 8.5 9.369 8.5 L 10.432 8.5 C 10.536 8.499 10.608 8.663 10.568 8.81 L 10.068 10.615 L 12.256 7.738 C 12.284 7.701 12.276 7.629 12.238 7.611 C 12.234 7.609 12.229 7.608 12.224 7.608 L 11.188 7.608 C 11.082 7.608 11.012 7.442 11.054 7.295 L 11.61 5.353 Z M 11.522 4.877 C 11.676 4.676 11.913 4.8 11.951 5.102 C 11.962 5.182 11.956 5.265 11.934 5.339 L 11.411 7.161 L 12.224 7.161 C 12.541 7.161 12.688 7.762 12.448 8.076 L 10.037 11.244 C 9.908 11.416 9.702 11.309 9.672 11.051 C 9.662 10.984 9.667 10.915 9.686 10.852 L 10.212 8.947 L 9.369 8.947 C 9.053 8.947 8.907 8.349 9.146 8.033 L 11.522 4.878 L 11.522 4.877 Z"/>
    <path class="st1" fill-rule="evenodd"
          d="M 7.02 14.691 C 6.27 14.691 5.664 14.085 5.664 13.337 L 5.664 2.501 C 5.664 1.753 6.27 1.147 7.02 1.147 L 14.423 1.562 C 15.171 1.562 15.777 2.168 15.777 2.916 L 15.777 12.828 C 15.777 13.576 15.171 14.182 14.423 14.182 L 7.02 14.691 Z M 6.68 13.337 C 6.68 13.524 6.831 13.676 7.02 13.676 L 14.423 13.167 C 14.61 13.167 14.761 13.015 14.761 12.828 L 14.761 2.916 C 14.761 2.729 14.61 2.577 14.423 2.577 L 7.02 2.162 C 6.831 2.162 6.68 2.314 6.68 2.501 L 6.68 13.337 Z"/>
    <path class="st2" fill-rule="evenodd"
          d="M 4.301 2.581 C 4.427 2.833 4.325 3.137 4.075 3.264 C 3.921 3.341 3.875 3.383 3.862 3.4 C 3.859 3.403 3.857 3.406 3.856 3.411 C 3.848 3.435 3.846 3.461 3.847 3.486 L 3.847 12.29 C 3.847 12.338 3.853 12.358 3.856 12.366 C 3.857 12.371 3.858 12.374 3.862 12.377 C 3.875 12.393 3.921 12.435 4.075 12.513 C 4.425 12.685 4.459 13.173 4.134 13.391 C 3.981 13.494 3.785 13.505 3.621 13.422 C 3.437 13.329 3.228 13.208 3.073 13.018 C 2.9 12.804 2.832 12.555 2.832 12.29 L 2.832 3.486 C 2.832 3.221 2.9 2.972 3.073 2.759 C 3.228 2.568 3.437 2.448 3.621 2.355 C 3.872 2.229 4.177 2.331 4.301 2.581 Z"/>
    <path class="st3" fill-rule="evenodd"
          d="M 1.633 3.501 C 1.774 3.743 1.69 4.054 1.447 4.194 C 1.345 4.253 1.274 4.31 1.231 4.36 C 1.192 4.405 1.192 4.424 1.192 4.432 L 1.192 11.205 C 1.192 11.212 1.192 11.231 1.231 11.276 C 1.274 11.326 1.345 11.383 1.447 11.443 C 1.785 11.638 1.785 12.126 1.446 12.321 C 1.288 12.413 1.094 12.412 0.937 12.321 C 0.671 12.167 0.177 11.818 0.177 11.205 L 0.177 4.432 C 0.177 3.818 0.671 3.47 0.937 3.315 C 1.181 3.173 1.492 3.257 1.632 3.501 L 1.633 3.501 Z"/>
</svg>