<?xml version="1.0" encoding="UTF-8"?>
<svg xmlns="http://www.w3.org/2000/svg" width="16px" height="16px" viewBox="0 0 16 16" version="1.1">
    <g id="surface1">
        <path style=" stroke:none;fill-rule:nonzero;fill:#389FD6;fill-opacity:1;"
              d="M 11.453125 7.539062 L 11.117188 8.125 C 10.929688 8.445312 10.515625 8.554688 10.195312 8.371094 L 9.488281 7.960938 C 9.054688 8.386719 8.519531 8.703125 7.917969 8.871094 L 7.917969 9.683594 C 7.917969 10.054688 7.617188 10.359375 7.246094 10.359375 L 6.570312 10.359375 C 6.199219 10.359375 5.898438 10.054688 5.898438 9.683594 L 5.898438 8.871094 C 5.296875 8.703125 4.761719 8.386719 4.328125 7.960938 L 3.621094 8.371094 C 3.300781 8.554688 2.886719 8.445312 2.699219 8.125 L 2.363281 7.539062 C 2.179688 7.21875 2.289062 6.804688 2.609375 6.621094 L 3.316406 6.210938 C 3.242188 5.921875 3.203125 5.617188 3.203125 5.304688 C 3.203125 4.992188 3.242188 4.6875 3.316406 4.398438 L 2.609375 3.992188 C 2.289062 3.804688 2.179688 3.394531 2.363281 3.070312 L 2.699219 2.488281 C 2.886719 2.164062 3.300781 2.054688 3.621094 2.242188 L 4.328125 2.648438 C 4.761719 2.226562 5.296875 1.910156 5.898438 1.738281 L 5.898438 0.925781 C 5.898438 0.554688 6.199219 0.253906 6.570312 0.253906 L 7.246094 0.253906 C 7.617188 0.253906 7.917969 0.554688 7.917969 0.925781 L 7.917969 1.738281 C 8.519531 1.910156 9.054688 2.226562 9.488281 2.648438 L 10.195312 2.242188 C 10.515625 2.054688 10.929688 2.164062 11.117188 2.488281 L 11.453125 3.070312 C 11.636719 3.394531 11.527344 3.804688 11.207031 3.992188 L 10.5 4.398438 C 10.574219 4.6875 10.613281 4.992188 10.613281 5.304688 C 10.613281 5.617188 10.574219 5.921875 10.5 6.214844 L 11.207031 6.621094 C 11.527344 6.804688 11.636719 7.21875 11.453125 7.539062 Z M 11.453125 7.539062 "/>
        <path style=" stroke:none;fill-rule:nonzero;fill:#F4AF3D;fill-opacity:1;"
              d="M 9.265625 5.304688 C 9.265625 6.609375 8.210938 7.664062 6.90625 7.664062 C 5.605469 7.664062 4.550781 6.609375 4.550781 5.304688 C 4.550781 4.003906 5.605469 2.949219 6.90625 2.949219 C 8.210938 2.949219 9.265625 4.003906 9.265625 5.304688 Z M 9.265625 5.304688 "/>
        <path style=" stroke:none;fill-rule:nonzero;fill:#F4AF3D;fill-opacity:1;"
              d="M 15.347656 13.847656 L 15.117188 14.242188 C 14.988281 14.457031 14.703125 14.53125 14.480469 14.40625 L 13.992188 14.132812 C 13.691406 14.417969 13.320312 14.628906 12.910156 14.746094 L 12.910156 15.292969 C 12.910156 15.542969 12.699219 15.746094 12.441406 15.746094 L 11.976562 15.746094 C 11.722656 15.746094 11.511719 15.542969 11.511719 15.292969 L 11.511719 14.746094 C 11.097656 14.628906 10.726562 14.417969 10.429688 14.132812 L 9.941406 14.40625 C 9.71875 14.53125 9.433594 14.457031 9.304688 14.242188 L 9.074219 13.847656 C 8.945312 13.632812 9.019531 13.355469 9.242188 13.226562 L 9.730469 12.953125 C 9.679688 12.757812 9.652344 12.554688 9.652344 12.34375 C 9.652344 12.132812 9.679688 11.925781 9.730469 11.730469 L 9.242188 11.457031 C 9.019531 11.332031 8.945312 11.054688 9.074219 10.835938 L 9.304688 10.445312 C 9.433594 10.226562 9.71875 10.152344 9.941406 10.277344 L 10.429688 10.550781 C 10.726562 10.269531 11.097656 10.054688 11.511719 9.941406 L 11.511719 9.390625 C 11.511719 9.140625 11.722656 8.9375 11.976562 8.9375 L 12.441406 8.9375 C 12.699219 8.9375 12.910156 9.140625 12.910156 9.390625 L 12.910156 9.941406 C 13.320312 10.054688 13.691406 10.269531 13.992188 10.550781 L 14.480469 10.277344 C 14.703125 10.152344 14.988281 10.226562 15.117188 10.445312 L 15.347656 10.835938 C 15.476562 11.054688 15.398438 11.332031 15.179688 11.457031 L 14.691406 11.730469 C 14.742188 11.925781 14.769531 12.132812 14.769531 12.34375 C 14.769531 12.554688 14.742188 12.757812 14.691406 12.953125 L 15.179688 13.226562 C 15.398438 13.355469 15.476562 13.632812 15.347656 13.847656 Z M 15.347656 13.847656 "/>
        <path style=" stroke:none;fill-rule:nonzero;fill:#389FD6;fill-opacity:1;"
              d="M 13.492188 12.34375 C 13.492188 13.050781 12.917969 13.621094 12.210938 13.621094 C 11.503906 13.621094 10.929688 13.050781 10.929688 12.34375 C 10.929688 11.636719 11.503906 11.0625 12.210938 11.0625 C 12.917969 11.0625 13.492188 11.636719 13.492188 12.34375 Z M 13.492188 12.34375 "/>
        <path style=" stroke:none;fill-rule:nonzero;fill:rgb(77.647059%,77.647059%,77.647059%);fill-opacity:1;"
              d="M 5.867188 14.167969 L 5.671875 14.492188 C 5.566406 14.675781 5.328125 14.738281 5.144531 14.632812 L 4.738281 14.402344 C 4.488281 14.640625 4.179688 14.816406 3.835938 14.914062 L 3.835938 15.371094 C 3.835938 15.578125 3.660156 15.746094 3.449219 15.746094 L 3.058594 15.746094 C 2.847656 15.746094 2.671875 15.578125 2.671875 15.371094 L 2.671875 14.914062 C 2.328125 14.816406 2.019531 14.640625 1.769531 14.402344 L 1.363281 14.632812 C 1.179688 14.738281 0.941406 14.675781 0.835938 14.492188 L 0.640625 14.167969 C 0.535156 13.984375 0.597656 13.753906 0.785156 13.648438 L 1.1875 13.421875 C 1.144531 13.257812 1.125 13.089844 1.125 12.914062 C 1.125 12.738281 1.144531 12.566406 1.1875 12.402344 L 0.785156 12.175781 C 0.597656 12.070312 0.535156 11.839844 0.640625 11.660156 L 0.835938 11.332031 C 0.941406 11.152344 1.179688 11.089844 1.363281 11.191406 L 1.769531 11.421875 C 2.019531 11.183594 2.328125 11.007812 2.671875 10.914062 L 2.671875 10.457031 C 2.671875 10.246094 2.847656 10.078125 3.058594 10.078125 L 3.449219 10.078125 C 3.660156 10.078125 3.835938 10.246094 3.835938 10.457031 L 3.835938 10.914062 C 4.179688 11.007812 4.488281 11.183594 4.738281 11.421875 L 5.144531 11.191406 C 5.328125 11.089844 5.566406 11.152344 5.671875 11.332031 L 5.867188 11.660156 C 5.972656 11.839844 5.910156 12.070312 5.722656 12.175781 L 5.320312 12.402344 C 5.363281 12.566406 5.382812 12.738281 5.382812 12.914062 C 5.382812 13.089844 5.363281 13.257812 5.320312 13.421875 L 5.722656 13.648438 C 5.910156 13.753906 5.972656 13.984375 5.867188 14.167969 Z M 5.867188 14.167969 "/>
        <path style=" stroke:none;fill-rule:nonzero;fill:rgb(58.823529%,58.823529%,58.823529%);fill-opacity:1;"
              d="M 4.269531 12.914062 C 4.269531 13.472656 3.8125 13.925781 3.253906 13.925781 C 2.695312 13.925781 2.238281 13.472656 2.238281 12.914062 C 2.238281 12.351562 2.695312 11.898438 3.253906 11.898438 C 3.8125 11.898438 4.269531 12.351562 4.269531 12.914062 Z M 4.269531 12.914062 "/>
        <path style=" stroke:none;fill-rule:nonzero;fill:rgb(0%,0%,0%);fill-opacity:1;"
              d="M 13.601562 11.703125 C 13.695312 11.902344 13.742188 12.121094 13.742188 12.34375 C 13.742188 13.1875 13.054688 13.875 12.210938 13.875 C 11.367188 13.875 10.679688 13.1875 10.679688 12.34375 C 10.679688 11.496094 11.367188 10.808594 12.210938 10.808594 C 12.417969 10.808594 12.621094 10.851562 12.808594 10.933594 C 12.9375 10.984375 12.996094 11.132812 12.941406 11.261719 C 12.886719 11.390625 12.738281 11.453125 12.613281 11.398438 C 12.484375 11.34375 12.351562 11.316406 12.210938 11.316406 C 11.644531 11.316406 11.183594 11.777344 11.183594 12.34375 C 11.183594 12.910156 11.644531 13.371094 12.210938 13.371094 C 12.777344 13.371094 13.238281 12.910156 13.238281 12.34375 C 13.238281 12.191406 13.207031 12.046875 13.144531 11.914062 C 13.085938 11.785156 13.140625 11.636719 13.265625 11.578125 C 13.394531 11.519531 13.542969 11.574219 13.601562 11.703125 Z M 15.640625 13.441406 C 15.6875 13.625 15.660156 13.8125 15.566406 13.976562 L 15.332031 14.371094 C 15.136719 14.703125 14.695312 14.820312 14.355469 14.628906 L 14.023438 14.441406 C 13.769531 14.652344 13.476562 14.820312 13.160156 14.929688 L 13.160156 15.292969 C 13.160156 15.683594 12.839844 16 12.441406 16 L 11.976562 16 C 11.582031 16 11.261719 15.683594 11.261719 15.292969 L 11.261719 14.929688 C 10.945312 14.820312 10.652344 14.652344 10.394531 14.441406 L 10.066406 14.628906 C 9.722656 14.820312 9.285156 14.703125 9.089844 14.371094 L 8.855469 13.976562 C 8.757812 13.8125 8.734375 13.625 8.78125 13.441406 C 8.832031 13.257812 8.949219 13.101562 9.117188 13.007812 L 9.441406 12.824219 C 9.414062 12.667969 9.398438 12.503906 9.398438 12.34375 C 9.398438 12.179688 9.414062 12.019531 9.441406 11.859375 L 9.117188 11.675781 C 8.949219 11.582031 8.832031 11.429688 8.78125 11.246094 C 8.734375 11.0625 8.757812 10.871094 8.855469 10.707031 L 9.089844 10.316406 C 9.285156 9.980469 9.722656 9.867188 10.066406 10.058594 L 10.394531 10.246094 C 10.652344 10.03125 10.945312 9.867188 11.261719 9.753906 L 11.261719 9.390625 C 11.261719 9.003906 11.582031 8.6875 11.976562 8.6875 L 12.441406 8.6875 C 12.839844 8.6875 13.160156 9.003906 13.160156 9.390625 L 13.160156 9.753906 C 13.476562 9.867188 13.769531 10.03125 14.023438 10.246094 L 14.355469 10.058594 C 14.695312 9.867188 15.136719 9.980469 15.332031 10.316406 L 15.566406 10.707031 C 15.660156 10.871094 15.6875 11.0625 15.640625 11.246094 C 15.589844 11.429688 15.46875 11.582031 15.300781 11.675781 L 14.976562 11.859375 C 15.007812 12.019531 15.019531 12.179688 15.019531 12.34375 C 15.019531 12.503906 15.007812 12.667969 14.976562 12.824219 L 15.300781 13.007812 C 15.46875 13.101562 15.589844 13.257812 15.640625 13.441406 Z M 15.152344 13.570312 C 15.136719 13.519531 15.101562 13.476562 15.054688 13.449219 L 14.566406 13.175781 C 14.46875 13.117188 14.417969 13.003906 14.445312 12.890625 C 14.492188 12.710938 14.515625 12.527344 14.515625 12.34375 C 14.515625 12.15625 14.492188 11.972656 14.445312 11.792969 C 14.417969 11.683594 14.46875 11.566406 14.566406 11.511719 L 15.054688 11.238281 C 15.101562 11.210938 15.136719 11.164062 15.152344 11.113281 C 15.164062 11.0625 15.15625 11.011719 15.128906 10.964844 L 14.898438 10.574219 C 14.839844 10.472656 14.707031 10.441406 14.605469 10.496094 L 14.117188 10.773438 C 14.019531 10.828125 13.898438 10.8125 13.820312 10.734375 C 13.542969 10.476562 13.207031 10.285156 12.839844 10.183594 C 12.730469 10.152344 12.65625 10.054688 12.65625 9.941406 L 12.65625 9.390625 C 12.65625 9.28125 12.558594 9.191406 12.441406 9.191406 L 11.976562 9.191406 C 11.859375 9.191406 11.765625 9.28125 11.765625 9.390625 L 11.765625 9.941406 C 11.765625 10.054688 11.691406 10.152344 11.578125 10.183594 C 11.214844 10.285156 10.875 10.476562 10.601562 10.734375 C 10.523438 10.8125 10.402344 10.828125 10.304688 10.773438 L 9.816406 10.496094 C 9.714844 10.441406 9.582031 10.472656 9.523438 10.574219 L 9.289062 10.964844 C 9.261719 11.011719 9.257812 11.0625 9.269531 11.113281 C 9.285156 11.164062 9.316406 11.210938 9.367188 11.238281 L 9.855469 11.511719 C 9.953125 11.566406 10.003906 11.683594 9.972656 11.792969 C 9.929688 11.972656 9.90625 12.15625 9.90625 12.34375 C 9.90625 12.527344 9.929688 12.710938 9.972656 12.890625 C 10.003906 13.003906 9.953125 13.117188 9.855469 13.175781 L 9.367188 13.449219 C 9.316406 13.476562 9.285156 13.519531 9.269531 13.570312 C 9.257812 13.621094 9.261719 13.675781 9.289062 13.71875 L 9.523438 14.113281 C 9.582031 14.210938 9.714844 14.246094 9.816406 14.1875 L 10.304688 13.914062 C 10.34375 13.890625 10.386719 13.878906 10.429688 13.878906 C 10.492188 13.878906 10.554688 13.90625 10.601562 13.949219 C 10.875 14.210938 11.214844 14.398438 11.578125 14.5 C 11.6875 14.53125 11.765625 14.632812 11.765625 14.746094 L 11.765625 15.292969 C 11.765625 15.40625 11.859375 15.496094 11.976562 15.496094 L 12.441406 15.496094 C 12.558594 15.496094 12.65625 15.40625 12.65625 15.292969 L 12.65625 14.746094 C 12.65625 14.632812 12.730469 14.53125 12.839844 14.5 C 13.207031 14.398438 13.542969 14.210938 13.820312 13.949219 C 13.898438 13.875 14.019531 13.859375 14.117188 13.914062 L 14.605469 14.1875 C 14.707031 14.246094 14.839844 14.210938 14.898438 14.113281 L 15.128906 13.71875 C 15.15625 13.675781 15.164062 13.621094 15.152344 13.570312 Z M 4.269531 12.660156 C 4.128906 12.660156 4.015625 12.773438 4.015625 12.914062 C 4.015625 13.332031 3.671875 13.675781 3.253906 13.675781 C 2.835938 13.675781 2.492188 13.332031 2.492188 12.914062 C 2.492188 12.492188 2.835938 12.152344 3.253906 12.152344 C 3.382812 12.152344 3.507812 12.183594 3.617188 12.242188 C 3.742188 12.3125 3.894531 12.265625 3.960938 12.144531 C 4.027344 12.019531 3.984375 11.867188 3.859375 11.800781 C 3.675781 11.699219 3.464844 11.644531 3.253906 11.644531 C 2.554688 11.644531 1.988281 12.214844 1.988281 12.914062 C 1.988281 13.609375 2.554688 14.179688 3.253906 14.179688 C 3.953125 14.179688 4.519531 13.609375 4.519531 12.914062 C 4.519531 12.773438 4.40625 12.660156 4.269531 12.660156 Z M 6.148438 13.816406 C 6.191406 13.980469 6.171875 14.148438 6.082031 14.296875 L 5.890625 14.621094 C 5.714844 14.921875 5.324219 15.023438 5.019531 14.851562 L 4.769531 14.710938 C 4.566406 14.875 4.335938 15.007812 4.085938 15.097656 L 4.085938 15.371094 C 4.085938 15.71875 3.800781 16 3.449219 16 L 3.058594 16 C 2.707031 16 2.421875 15.71875 2.421875 15.371094 L 2.421875 15.097656 C 2.171875 15.007812 1.941406 14.875 1.738281 14.710938 L 1.488281 14.851562 C 1.183594 15.023438 0.792969 14.921875 0.617188 14.621094 L 0.425781 14.296875 C 0.339844 14.148438 0.316406 13.980469 0.359375 13.816406 C 0.402344 13.652344 0.507812 13.515625 0.660156 13.429688 L 0.902344 13.292969 C 0.882812 13.167969 0.871094 13.039062 0.871094 12.914062 C 0.871094 12.785156 0.882812 12.65625 0.902344 12.53125 L 0.660156 12.394531 C 0.507812 12.3125 0.402344 12.171875 0.359375 12.007812 C 0.316406 11.847656 0.339844 11.675781 0.425781 11.53125 L 0.617188 11.203125 C 0.792969 10.90625 1.183594 10.800781 1.488281 10.972656 L 1.738281 11.113281 C 1.941406 10.949219 2.171875 10.820312 2.421875 10.730469 L 2.421875 10.457031 C 2.421875 10.109375 2.707031 9.824219 3.058594 9.824219 L 3.449219 9.824219 C 3.800781 9.824219 4.085938 10.109375 4.085938 10.457031 L 4.085938 10.730469 C 4.335938 10.820312 4.566406 10.949219 4.769531 11.113281 L 5.019531 10.972656 C 5.324219 10.800781 5.714844 10.90625 5.890625 11.203125 L 6.082031 11.53125 C 6.171875 11.675781 6.195312 11.847656 6.148438 12.007812 C 6.105469 12.171875 6 12.3125 5.847656 12.394531 L 5.605469 12.53125 C 5.625 12.65625 5.636719 12.785156 5.636719 12.914062 C 5.636719 13.039062 5.625 13.167969 5.605469 13.292969 L 5.847656 13.429688 C 6 13.515625 6.105469 13.652344 6.148438 13.816406 Z M 5.660156 13.945312 C 5.652344 13.914062 5.632812 13.886719 5.601562 13.871094 L 5.195312 13.640625 C 5.097656 13.585938 5.046875 13.46875 5.074219 13.359375 C 5.113281 13.214844 5.132812 13.0625 5.132812 12.914062 C 5.132812 12.761719 5.113281 12.613281 5.074219 12.464844 C 5.046875 12.355469 5.097656 12.238281 5.195312 12.183594 L 5.601562 11.957031 C 5.632812 11.9375 5.652344 11.910156 5.660156 11.878906 C 5.667969 11.855469 5.671875 11.824219 5.648438 11.789062 L 5.457031 11.460938 C 5.417969 11.398438 5.332031 11.378906 5.269531 11.414062 L 4.863281 11.640625 C 4.765625 11.695312 4.644531 11.683594 4.5625 11.605469 C 4.339844 11.394531 4.066406 11.238281 3.769531 11.15625 C 3.65625 11.125 3.582031 11.027344 3.582031 10.914062 L 3.582031 10.457031 C 3.582031 10.386719 3.523438 10.332031 3.449219 10.332031 L 3.058594 10.332031 C 2.984375 10.332031 2.925781 10.386719 2.925781 10.457031 L 2.925781 10.914062 C 2.925781 11.027344 2.851562 11.125 2.742188 11.15625 C 2.441406 11.238281 2.167969 11.394531 1.945312 11.605469 C 1.863281 11.683594 1.742188 11.695312 1.644531 11.640625 L 1.242188 11.414062 C 1.175781 11.378906 1.089844 11.398438 1.050781 11.460938 L 0.859375 11.789062 C 0.839844 11.824219 0.839844 11.855469 0.847656 11.878906 C 0.855469 11.910156 0.875 11.9375 0.90625 11.957031 L 1.3125 12.183594 C 1.414062 12.238281 1.460938 12.355469 1.433594 12.464844 C 1.394531 12.613281 1.375 12.761719 1.375 12.914062 C 1.375 13.0625 1.394531 13.214844 1.433594 13.359375 C 1.460938 13.46875 1.414062 13.585938 1.3125 13.640625 L 0.90625 13.871094 C 0.875 13.886719 0.855469 13.914062 0.847656 13.945312 C 0.839844 13.96875 0.839844 14.003906 0.859375 14.039062 L 1.050781 14.363281 C 1.089844 14.425781 1.175781 14.449219 1.242188 14.410156 L 1.644531 14.183594 C 1.683594 14.160156 1.726562 14.152344 1.769531 14.152344 C 1.832031 14.152344 1.894531 14.175781 1.945312 14.21875 C 2.167969 14.429688 2.441406 14.585938 2.742188 14.667969 C 2.851562 14.699219 2.925781 14.800781 2.925781 14.914062 L 2.925781 15.371094 C 2.925781 15.4375 2.984375 15.496094 3.058594 15.496094 L 3.449219 15.496094 C 3.523438 15.496094 3.582031 15.4375 3.582031 15.371094 L 3.582031 14.914062 C 3.582031 14.800781 3.65625 14.699219 3.769531 14.667969 C 4.066406 14.585938 4.339844 14.429688 4.5625 14.21875 C 4.644531 14.144531 4.765625 14.128906 4.863281 14.183594 L 5.269531 14.410156 C 5.332031 14.449219 5.417969 14.425781 5.457031 14.363281 L 5.648438 14.039062 C 5.671875 14.003906 5.667969 13.96875 5.660156 13.945312 Z M 8.71875 3.777344 C 8.605469 3.855469 8.574219 4.011719 8.652344 4.125 C 8.890625 4.476562 9.011719 4.882812 9.011719 5.304688 C 9.011719 6.464844 8.070312 7.410156 6.910156 7.410156 C 5.746094 7.410156 4.804688 6.464844 4.804688 5.304688 C 4.804688 4.886719 4.925781 4.480469 5.15625 4.136719 C 5.550781 3.550781 6.203125 3.199219 6.910156 3.199219 C 7.316406 3.199219 7.714844 3.316406 8.054688 3.539062 C 8.171875 3.613281 8.328125 3.582031 8.402344 3.464844 C 8.480469 3.347656 8.445312 3.191406 8.328125 3.113281 C 7.90625 2.839844 7.414062 2.695312 6.910156 2.695312 C 6.035156 2.695312 5.222656 3.128906 4.738281 3.855469 C 4.449219 4.285156 4.296875 4.785156 4.296875 5.304688 C 4.296875 6.746094 5.46875 7.914062 6.910156 7.914062 C 8.347656 7.914062 9.519531 6.746094 9.519531 5.304688 C 9.519531 4.78125 9.363281 4.277344 9.070312 3.84375 C 8.992188 3.726562 8.835938 3.699219 8.71875 3.777344 Z M 9.523438 8.273438 C 9.128906 8.621094 8.667969 8.890625 8.171875 9.058594 L 8.171875 9.683594 C 8.171875 10.195312 7.753906 10.609375 7.246094 10.609375 L 6.570312 10.609375 C 6.0625 10.609375 5.644531 10.195312 5.644531 9.683594 L 5.644531 9.058594 C 5.148438 8.890625 4.6875 8.621094 4.292969 8.273438 L 3.746094 8.589844 C 3.535156 8.710938 3.285156 8.746094 3.042969 8.679688 C 2.804688 8.617188 2.605469 8.464844 2.480469 8.25 L 2.144531 7.667969 C 1.890625 7.222656 2.042969 6.65625 2.484375 6.402344 L 3.027344 6.085938 C 2.976562 5.832031 2.949219 5.566406 2.949219 5.304688 C 2.949219 5.042969 2.976562 4.78125 3.027344 4.523438 L 2.484375 4.210938 C 2.042969 3.953125 1.890625 3.386719 2.144531 2.945312 L 2.480469 2.359375 C 2.605469 2.148438 2.804688 1.992188 3.042969 1.929688 C 3.285156 1.867188 3.535156 1.898438 3.746094 2.023438 L 4.292969 2.335938 C 4.6875 1.988281 5.148438 1.722656 5.644531 1.554688 L 5.644531 0.925781 C 5.644531 0.414062 6.0625 0 6.570312 0 L 7.246094 0 C 7.753906 0 8.171875 0.414062 8.171875 0.925781 L 8.171875 1.554688 C 8.667969 1.722656 9.128906 1.988281 9.523438 2.335938 L 10.070312 2.023438 C 10.28125 1.898438 10.53125 1.867188 10.773438 1.929688 C 11.011719 1.992188 11.210938 2.148438 11.335938 2.359375 L 11.671875 2.945312 C 11.792969 3.160156 11.828125 3.410156 11.761719 3.648438 C 11.699219 3.886719 11.546875 4.085938 11.332031 4.210938 L 10.789062 4.523438 C 10.839844 4.78125 10.867188 5.042969 10.867188 5.304688 C 10.867188 5.566406 10.839844 5.832031 10.789062 6.085938 L 11.332031 6.402344 C 11.546875 6.523438 11.699219 6.722656 11.761719 6.964844 C 11.828125 7.203125 11.792969 7.453125 11.671875 7.667969 L 11.335938 8.25 C 11.210938 8.464844 11.011719 8.617188 10.773438 8.679688 C 10.53125 8.746094 10.28125 8.710938 10.070312 8.589844 Z M 9.617188 7.742188 L 10.320312 8.152344 C 10.417969 8.207031 10.53125 8.222656 10.640625 8.191406 C 10.75 8.164062 10.839844 8.09375 10.898438 7.996094 L 11.234375 7.414062 C 11.289062 7.316406 11.304688 7.203125 11.277344 7.09375 C 11.246094 6.984375 11.175781 6.894531 11.078125 6.839844 L 10.375 6.433594 C 10.277344 6.375 10.230469 6.261719 10.257812 6.152344 C 10.324219 5.875 10.359375 5.589844 10.359375 5.304688 C 10.359375 5.019531 10.324219 4.734375 10.257812 4.460938 C 10.230469 4.351562 10.277344 4.234375 10.375 4.179688 L 11.078125 3.773438 C 11.175781 3.714844 11.246094 3.625 11.277344 3.515625 C 11.304688 3.40625 11.289062 3.292969 11.234375 3.195312 L 10.898438 2.613281 C 10.839844 2.515625 10.75 2.445312 10.640625 2.417969 C 10.53125 2.386719 10.417969 2.402344 10.320312 2.460938 L 9.617188 2.867188 C 9.519531 2.921875 9.394531 2.90625 9.3125 2.828125 C 8.902344 2.429688 8.398438 2.136719 7.851562 1.984375 C 7.742188 1.953125 7.667969 1.851562 7.667969 1.738281 L 7.667969 0.925781 C 7.667969 0.695312 7.476562 0.503906 7.246094 0.503906 L 6.570312 0.503906 C 6.339844 0.503906 6.148438 0.695312 6.148438 0.925781 L 6.148438 1.738281 C 6.148438 1.851562 6.074219 1.953125 5.964844 1.984375 C 5.417969 2.136719 4.914062 2.429688 4.503906 2.828125 C 4.421875 2.90625 4.296875 2.921875 4.199219 2.867188 L 3.496094 2.460938 C 3.398438 2.402344 3.285156 2.386719 3.175781 2.417969 C 3.066406 2.445312 2.976562 2.515625 2.917969 2.613281 L 2.582031 3.195312 C 2.46875 3.398438 2.535156 3.65625 2.738281 3.773438 L 3.441406 4.179688 C 3.539062 4.234375 3.585938 4.351562 3.558594 4.460938 C 3.492188 4.734375 3.457031 5.019531 3.457031 5.304688 C 3.457031 5.589844 3.492188 5.875 3.558594 6.152344 C 3.585938 6.261719 3.539062 6.375 3.441406 6.429688 L 2.738281 6.839844 C 2.535156 6.953125 2.46875 7.210938 2.582031 7.414062 L 2.917969 7.996094 C 2.976562 8.09375 3.066406 8.164062 3.175781 8.191406 C 3.285156 8.222656 3.398438 8.207031 3.496094 8.152344 L 4.199219 7.742188 C 4.238281 7.722656 4.285156 7.710938 4.328125 7.710938 C 4.390625 7.710938 4.453125 7.734375 4.503906 7.78125 C 4.914062 8.179688 5.417969 8.472656 5.964844 8.628906 C 6.074219 8.660156 6.148438 8.757812 6.148438 8.871094 L 6.148438 9.683594 C 6.148438 9.917969 6.339844 10.105469 6.570312 10.105469 L 7.246094 10.105469 C 7.476562 10.105469 7.667969 9.917969 7.667969 9.683594 L 7.667969 8.871094 C 7.667969 8.757812 7.742188 8.660156 7.851562 8.628906 C 8.398438 8.472656 8.902344 8.179688 9.3125 7.78125 C 9.394531 7.703125 9.519531 7.6875 9.617188 7.742188 Z M 8.171875 4.96875 C 8.171875 4.828125 8.058594 4.714844 7.917969 4.714844 L 5.898438 4.714844 C 5.757812 4.714844 5.644531 4.828125 5.644531 4.96875 C 5.644531 5.109375 5.757812 5.222656 5.898438 5.222656 L 7.917969 5.222656 C 8.058594 5.222656 8.171875 5.109375 8.171875 4.96875 Z M 6.570312 5.726562 C 6.433594 5.726562 6.320312 5.839844 6.320312 5.980469 C 6.320312 6.117188 6.433594 6.230469 6.570312 6.230469 L 7.246094 6.230469 C 7.382812 6.230469 7.496094 6.117188 7.496094 5.980469 C 7.496094 5.839844 7.382812 5.726562 7.246094 5.726562 Z M 6.570312 5.726562 "/>
    </g>
</svg>
