<?xml version="1.0" encoding="UTF-8"?>
<svg xmlns="http://www.w3.org/2000/svg" width="16px" height="16px" viewBox="0 0 16 16" version="1.1">
    <g id="surface1">
        <path style=" stroke:none;fill-rule:nonzero;fill:#389FD6;fill-opacity:1;"
              d="M 11.566406 7.523438 L 11.21875 8.128906 C 11.023438 8.460938 10.597656 8.574219 10.265625 8.382812 L 9.539062 7.960938 C 9.089844 8.398438 8.535156 8.722656 7.917969 8.898438 L 7.917969 9.738281 C 7.917969 10.125 7.605469 10.433594 7.21875 10.433594 L 6.523438 10.433594 C 6.140625 10.433594 5.828125 10.125 5.828125 9.738281 L 5.828125 8.898438 C 5.210938 8.722656 4.65625 8.398438 4.207031 7.960938 L 3.476562 8.382812 C 3.144531 8.574219 2.71875 8.460938 2.527344 8.128906 L 2.179688 7.523438 C 1.988281 7.191406 2.101562 6.765625 2.433594 6.574219 L 3.164062 6.15625 C 3.085938 5.855469 3.046875 5.539062 3.046875 5.21875 C 3.046875 4.894531 3.085938 4.582031 3.164062 4.28125 L 2.433594 3.859375 C 2.101562 3.667969 1.988281 3.242188 2.179688 2.910156 L 2.527344 2.308594 C 2.71875 1.976562 3.144531 1.859375 3.476562 2.054688 L 4.207031 2.472656 C 4.65625 2.039062 5.210938 1.710938 5.828125 1.535156 L 5.828125 0.695312 C 5.828125 0.3125 6.140625 0 6.523438 0 L 7.21875 0 C 7.605469 0 7.917969 0.3125 7.917969 0.695312 L 7.917969 1.535156 C 8.535156 1.710938 9.089844 2.039062 9.539062 2.472656 L 10.265625 2.054688 C 10.597656 1.859375 11.023438 1.976562 11.21875 2.308594 L 11.566406 2.910156 C 11.757812 3.242188 11.644531 3.667969 11.308594 3.859375 L 10.582031 4.28125 C 10.660156 4.582031 10.699219 4.894531 10.699219 5.21875 C 10.699219 5.539062 10.660156 5.855469 10.582031 6.15625 L 11.308594 6.574219 C 11.644531 6.765625 11.757812 7.191406 11.566406 7.523438 Z M 11.566406 7.523438 "/>
        <path style=" stroke:none;fill-rule:nonzero;fill:#F4AF3D;fill-opacity:1;"
              d="M 9.308594 5.21875 C 9.308594 6.5625 8.21875 7.652344 6.871094 7.652344 C 5.527344 7.652344 4.4375 6.5625 4.4375 5.21875 C 4.4375 3.871094 5.527344 2.78125 6.871094 2.78125 C 8.21875 2.78125 9.308594 3.871094 9.308594 5.21875 Z M 9.308594 5.21875 "/>
        <path style=" stroke:none;fill-rule:nonzero;fill:rgb(46.27451%,53.72549%,0%);fill-opacity:1;"
              d="M 8.175781 4.871094 C 8.175781 5.011719 8.058594 5.128906 7.917969 5.128906 L 5.828125 5.128906 C 5.683594 5.128906 5.566406 5.015625 5.566406 4.871094 C 5.566406 4.726562 5.683594 4.609375 5.828125 4.609375 L 7.917969 4.609375 C 8.058594 4.609375 8.175781 4.726562 8.175781 4.871094 Z M 7.21875 5.652344 L 6.523438 5.652344 C 6.378906 5.652344 6.265625 5.769531 6.265625 5.914062 C 6.265625 6.058594 6.378906 6.175781 6.523438 6.175781 L 7.21875 6.175781 C 7.363281 6.175781 7.480469 6.058594 7.480469 5.914062 C 7.480469 5.769531 7.363281 5.652344 7.21875 5.652344 Z M 7.21875 5.652344 "/>
        <path style=" stroke:none;fill-rule:nonzero;fill:#F4AF3D;fill-opacity:1;"
              d="M 15.585938 14.039062 L 15.347656 14.445312 C 15.214844 14.667969 14.921875 14.746094 14.691406 14.617188 L 14.1875 14.332031 C 13.878906 14.625 13.496094 14.847656 13.066406 14.964844 L 13.066406 15.53125 C 13.066406 15.789062 12.851562 16 12.589844 16 L 12.109375 16 C 11.84375 16 11.628906 15.789062 11.628906 15.53125 L 11.628906 14.964844 C 11.199219 14.847656 10.816406 14.625 10.507812 14.332031 L 10.003906 14.617188 C 9.773438 14.746094 9.480469 14.667969 9.347656 14.445312 L 9.109375 14.039062 C 8.976562 13.816406 9.054688 13.527344 9.285156 13.398438 L 9.785156 13.117188 C 9.734375 12.914062 9.707031 12.703125 9.707031 12.484375 C 9.707031 12.265625 9.734375 12.054688 9.785156 11.851562 L 9.285156 11.570312 C 9.054688 11.441406 8.976562 11.152344 9.109375 10.929688 L 9.347656 10.523438 C 9.480469 10.300781 9.773438 10.222656 10.003906 10.351562 L 10.507812 10.636719 C 10.816406 10.34375 11.199219 10.121094 11.628906 10.003906 L 11.628906 9.4375 C 11.628906 9.179688 11.84375 8.96875 12.109375 8.96875 L 12.589844 8.96875 C 12.851562 8.96875 13.066406 9.179688 13.066406 9.4375 L 13.066406 10.003906 C 13.496094 10.121094 13.878906 10.34375 14.1875 10.636719 L 14.691406 10.351562 C 14.921875 10.222656 15.214844 10.300781 15.347656 10.523438 L 15.585938 10.929688 C 15.71875 11.152344 15.640625 11.441406 15.410156 11.570312 L 14.910156 11.851562 C 14.960938 12.054688 14.988281 12.265625 14.988281 12.484375 C 14.988281 12.703125 14.960938 12.914062 14.910156 13.117188 L 15.410156 13.398438 C 15.640625 13.527344 15.71875 13.816406 15.585938 14.039062 Z M 15.585938 14.039062 "/>
        <path style=" stroke:none;fill-rule:nonzero;fill:#389FD6;fill-opacity:1;"
              d="M 13.667969 12.484375 C 13.667969 13.214844 13.078125 13.804688 12.347656 13.804688 C 11.617188 13.804688 11.027344 13.214844 11.027344 12.484375 C 11.027344 11.753906 11.617188 11.164062 12.347656 11.164062 C 13.078125 11.164062 13.667969 11.753906 13.667969 12.484375 Z M 13.667969 12.484375 "/>
        <path style=" stroke:none;fill-rule:nonzero;fill:rgb(77.647059%,77.647059%,77.647059%);fill-opacity:1;"
              d="M 5.796875 14.367188 L 5.597656 14.707031 C 5.484375 14.890625 5.242188 14.957031 5.050781 14.847656 L 4.632812 14.613281 C 4.375 14.855469 4.054688 15.039062 3.699219 15.136719 L 3.699219 15.609375 C 3.699219 15.824219 3.519531 16 3.300781 16 L 2.898438 16 C 2.679688 16 2.5 15.824219 2.5 15.609375 L 2.5 15.136719 C 2.144531 15.039062 1.824219 14.855469 1.566406 14.613281 L 1.148438 14.847656 C 0.957031 14.957031 0.710938 14.890625 0.601562 14.707031 L 0.402344 14.367188 C 0.292969 14.179688 0.355469 13.941406 0.546875 13.835938 L 0.964844 13.597656 C 0.921875 13.429688 0.898438 13.253906 0.898438 13.074219 C 0.898438 12.890625 0.921875 12.714844 0.964844 12.546875 L 0.546875 12.3125 C 0.355469 12.203125 0.292969 11.964844 0.402344 11.777344 L 0.601562 11.441406 C 0.710938 11.253906 0.957031 11.191406 1.148438 11.296875 L 1.566406 11.535156 C 1.824219 11.289062 2.144531 11.105469 2.5 11.007812 L 2.5 10.535156 C 2.5 10.320312 2.679688 10.144531 2.898438 10.144531 L 3.300781 10.144531 C 3.519531 10.144531 3.699219 10.320312 3.699219 10.535156 L 3.699219 11.007812 C 4.054688 11.105469 4.375 11.289062 4.632812 11.535156 L 5.050781 11.296875 C 5.242188 11.191406 5.484375 11.253906 5.597656 11.441406 L 5.796875 11.777344 C 5.90625 11.964844 5.839844 12.203125 5.648438 12.3125 L 5.230469 12.546875 C 5.273438 12.714844 5.296875 12.890625 5.296875 13.074219 C 5.296875 13.253906 5.273438 13.429688 5.230469 13.597656 L 5.648438 13.835938 C 5.839844 13.941406 5.90625 14.179688 5.796875 14.367188 Z M 5.796875 14.367188 "/>
        <path style=" stroke:none;fill-rule:nonzero;fill:rgb(58.823529%,58.823529%,58.823529%);fill-opacity:1;"
              d="M 4.144531 13.074219 C 4.144531 13.652344 3.675781 14.121094 3.097656 14.121094 C 2.519531 14.121094 2.050781 13.652344 2.050781 13.074219 C 2.050781 12.496094 2.519531 12.027344 3.097656 12.027344 C 3.675781 12.027344 4.144531 12.496094 4.144531 13.074219 Z M 4.144531 13.074219 "/>
    </g>
</svg>
