<svg xmlns="http://www.w3.org/2000/svg" width="16px" height="16px" viewBox="0 0 16 16" version="1.1">
    <path fill="#C75450"
          d="M 9.398438 8 L 12.148438 5.25 C 12.550781 4.851562 12.550781 4.25 12.148438 3.851562 C 12 3.648438 11.75 3.5 11.5 3.5 C 11.25 3.5 11 3.601562 10.800781 3.800781 L 8 6.601562 L 5.25 3.851562 C 4.851562 3.449219 4.199219 3.449219 3.851562 3.851562 C 3.648438 4 3.5 4.25 3.5 4.550781 C 3.5 4.851562 3.601562 5.050781 3.800781 5.25 L 6.550781 8 L 3.800781 10.75 C 3.648438 10.949219 3.5 11.199219 3.5 11.5 C 3.5 11.75 3.601562 12 3.800781 12.199219 C 4 12.398438 4.25 12.5 4.5 12.5 C 4.75 12.5 5 12.398438 5.199219 12.199219 L 7.949219 9.449219 L 10.699219 12.199219 C 11.101562 12.601562 11.75 12.601562 12.101562 12.199219 C 12.5 11.800781 12.5 11.148438 12.101562 10.800781 Z M 9.398438 8 "/>
</svg>
