<svg xmlns="http://www.w3.org/2000/svg" width="16px" height="16px" viewBox="0 0 16 16" version="1.1">
    <style type="text/css">
        .st0{fill:rgb(221,189,209);}
        .st1{fill:rgb(250,215,188);}
    </style>
    <path class="st0" fill-rule="evenodd"
          d="M 6.244 1.331 C 6.58 1.137 6.995 1.137 7.331 1.331 L 12.456 4.288 C 12.52 4.326 12.58 4.368 12.634 4.416 C 12.902 4.474 13.06 4.752 12.978 5.013 C 12.991 5.083 12.999 5.156 12.999 5.23 L 12.999 7.299 C 12.999 7.658 12.61 7.882 12.3 7.703 C 12.156 7.62 12.067 7.465 12.067 7.299 L 12.067 5.679 L 7.254 8.458 L 7.254 14.821 C 7.254 15.18 6.866 15.404 6.555 15.225 C 6.555 15.225 6.554 15.225 6.554 15.225 L 1.121 12.087 C 0.784 11.894 0.577 11.535 0.577 11.146 L 0.577 5.23 C 0.577 5.156 0.585 5.083 0.6 5.013 C 0.515 4.75 0.675 4.474 0.943 4.416 C 0.998 4.368 1.057 4.324 1.121 4.288 L 6.244 1.331 Z M 1.508 5.677 L 1.508 11.144 C 1.508 11.201 1.54 11.252 1.586 11.279 L 6.322 14.012 L 6.322 8.457 L 1.508 5.677 Z M 6.788 7.649 L 1.975 4.871 L 6.71 2.137 C 6.759 2.109 6.819 2.109 6.865 2.137 L 11.601 4.871 L 6.788 7.65 L 6.788 7.649 Z"/>
    <path class="st1" d="M 10.898 11.803 L 12.695 10.124 C 12.954 9.877 12.85 9.442 12.505 9.34 C 12.349 9.295 12.179 9.332 12.059 9.443 L 9.398 11.928 C 9.201 12.112 9.201 12.423 9.398 12.609 L 12.059 15.093 C 12.319 15.34 12.749 15.213 12.834 14.865 C 12.872 14.701 12.821 14.527 12.695 14.412 L 10.898 12.734 L 15.017 12.734 C 15.375 12.734 15.6 12.347 15.421 12.036 C 15.338 11.891 15.183 11.803 15.017 11.803 L 10.898 11.803 Z"/>
</svg>
