<?xml version="1.0" encoding="UTF-8"?>
<svg xmlns="http://www.w3.org/2000/svg" width="16px" height="16px" viewBox="0 0 16 16" version="1.1" fill="none">
    <g id="surface1">
        <path style="stroke-width:2;stroke-linecap:round;stroke-linejoin:round;stroke:rgb(56,159,214);stroke-opacity:1;stroke-miterlimit:4;"
              d="M 9 4.001953 C 9 2.894531 9.896484 1.998047 10.998047 1.998047 C 12.105469 1.998047 13.001953 2.894531 13.001953 4.001953 L 13.001953 6 L 18 6 L 18 10.998047 L 19.998047 10.998047 C 21.105469 10.998047 22.001953 11.894531 22.001953 13.001953 C 22.001953 14.103516 21.105469 15 19.998047 15 L 18 15 L 18 19.998047 L 13.001953 19.998047 L 13.001953 18 C 13.001953 16.892578 12.105469 16.001953 10.998047 16.001953 C 9.896484 16.001953 9 16.892578 9 18 L 9 19.998047 L 4.001953 19.998047 L 4.001953 15 L 6 15 C 7.107422 15 7.998047 14.103516 7.998047 13.001953 C 7.998047 11.894531 7.107422 10.998047 6 10.998047 L 4.001953 10.998047 L 4.001953 6 L 9 6 Z M 9 4.001953 "
              transform="matrix(0.666667,0,0,0.666667,0,0)"/>
    </g>
</svg>
