<?xml version="1.0" encoding="UTF-8"?>
<!--
  - This file is part of "SAP Commerce Developers Toolset" plugin for Intellij IDEA.
  - Copyright (C) 2019 EPAM Systems <hybrisideaplugin@epam.com>
  -
  - This program is free software: you can redistribute it and/or modify
  - it under the terms of the GNU Lesser General Public License as
  - published by the Free Software Foundation, either version 3 of the
  - License, or (at your option) any later version.
  -
  - This program is distributed in the hope that it will be useful,
  - but WITHOUT ANY WARRANTY; without even the implied warranty of
  - MERCHANTABILITY or FITNESS FOR A PARTICULAR PURPOSE.
  - See the GNU Lesser General Public License for more details.
  -
  - You should have received a copy of the GNU Lesser General Public License
  - along with this program. If not, see <http://www.gnu.org/licenses/>.
  -->

<svg xmlns="http://www.w3.org/2000/svg" xmlns:xlink="http://www.w3.org/1999/xlink" width="16px" height="16px" viewBox="0 0 16 16" version="1.1">
<g id="surface1">
<path style=" stroke:none;fill-rule:nonzero;fill:#6C707E;fill-opacity:1;" d="M 8 15.5 C 5.996094 15.5 4.113281 14.71875 2.699219 13.300781 C 1.28125 11.886719 0.5 10.003906 0.5 8 C 0.5 5.996094 1.28125 4.113281 2.699219 2.699219 C 4.113281 1.28125 5.996094 0.5 8 0.5 C 10.003906 0.5 11.886719 1.28125 13.300781 2.699219 C 13.511719 2.90625 13.511719 3.242188 13.300781 3.449219 C 13.09375 3.65625 12.757812 3.65625 12.550781 3.449219 C 11.335938 2.234375 9.71875 1.566406 8 1.566406 C 6.28125 1.566406 4.664062 2.234375 3.449219 3.449219 C 2.234375 4.664062 1.566406 6.28125 1.566406 8 C 1.566406 9.71875 2.234375 11.335938 3.449219 12.550781 C 4.664062 13.765625 6.28125 14.433594 8 14.433594 C 9.71875 14.433594 11.335938 13.765625 12.550781 12.550781 C 13.828125 11.273438 14.511719 9.503906 14.429688 7.699219 C 14.414062 7.40625 14.640625 7.160156 14.933594 7.144531 C 15.226562 7.128906 15.476562 7.359375 15.492188 7.652344 C 15.585938 9.753906 14.789062 11.8125 13.300781 13.300781 C 11.886719 14.71875 10.003906 15.5 8 15.5 Z M 8 15.5 "/>
<path style=" stroke:none;fill-rule:nonzero;fill:#6C707E;fill-opacity:1;" d="M 12.925781 13.457031 C 12.789062 13.457031 12.652344 13.40625 12.550781 13.300781 L 2.699219 3.449219 C 2.488281 3.242188 2.488281 2.90625 2.699219 2.699219 C 2.90625 2.488281 3.242188 2.488281 3.449219 2.699219 L 13.300781 12.550781 C 13.511719 12.757812 13.511719 13.09375 13.300781 13.300781 C 13.199219 13.40625 13.0625 13.457031 12.925781 13.457031 Z M 12.925781 13.457031 "/>
<path style=" stroke:none;fill-rule:nonzero;fill:#6C707E;fill-opacity:1;" d="M 3.074219 13.457031 C 2.9375 13.457031 2.800781 13.40625 2.699219 13.300781 C 2.488281 13.09375 2.488281 12.757812 2.699219 12.550781 L 8.1875 7.058594 C 8.394531 6.851562 8.730469 6.851562 8.941406 7.058594 C 9.148438 7.265625 9.148438 7.605469 8.941406 7.8125 L 3.449219 13.300781 C 3.347656 13.40625 3.210938 13.457031 3.074219 13.457031 Z M 3.074219 13.457031 "/>
<path style=" stroke:none;fill-rule:nonzero;fill:#389FD6;fill-opacity:1;" d="M 5.109375 3.609375 L 3.609375 5.109375 C 3.246094 5.46875 2.664062 5.46875 2.300781 5.109375 L 0.804688 3.609375 C 0.441406 3.246094 0.441406 2.664062 0.804688 2.300781 L 2.300781 0.804688 C 2.664062 0.441406 3.246094 0.441406 3.609375 0.804688 L 5.109375 2.300781 C 5.46875 2.664062 5.46875 3.246094 5.109375 3.609375 Z M 5.109375 3.609375 "/>
<path style=" stroke:none;fill-rule:nonzero;fill:#6C707E;fill-opacity:1;" d="M 2.957031 5.910156 C 2.566406 5.910156 2.199219 5.757812 1.925781 5.484375 L 0.425781 3.984375 C 0.152344 3.710938 0 3.34375 0 2.957031 C 0 2.566406 0.152344 2.199219 0.425781 1.925781 L 1.925781 0.425781 C 2.199219 0.152344 2.566406 0 2.957031 0 C 3.34375 0 3.710938 0.152344 3.984375 0.425781 L 5.484375 1.925781 C 5.757812 2.199219 5.910156 2.566406 5.910156 2.957031 C 5.910156 3.34375 5.757812 3.710938 5.484375 3.984375 L 3.984375 5.484375 C 3.710938 5.757812 3.34375 5.910156 2.957031 5.910156 Z M 2.957031 1.0625 C 2.851562 1.0625 2.75 1.105469 2.675781 1.179688 L 1.179688 2.675781 C 1.027344 2.832031 1.027344 3.078125 1.179688 3.234375 L 2.675781 4.730469 C 2.75 4.804688 2.851562 4.847656 2.957031 4.847656 C 3.058594 4.847656 3.160156 4.804688 3.234375 4.730469 L 4.730469 3.234375 C 4.886719 3.078125 4.886719 2.832031 4.730469 2.675781 L 3.234375 1.179688 C 3.160156 1.105469 3.058594 1.0625 2.957031 1.0625 Z M 2.957031 1.0625 "/>
<path style=" stroke:none;fill-rule:nonzero;fill:#F4AF3D;fill-opacity:1;" d="M 9.503906 9.503906 C 8.671875 10.335938 7.328125 10.335938 6.496094 9.503906 C 5.664062 8.671875 5.664062 7.328125 6.496094 6.496094 C 7.328125 5.664062 8.671875 5.664062 9.503906 6.496094 C 10.335938 7.328125 10.335938 8.671875 9.503906 9.503906 Z M 9.503906 9.503906 "/>
<path style=" stroke:none;fill-rule:nonzero;fill:#6C707E;fill-opacity:1;" d="M 8 10.660156 C 7.289062 10.660156 6.621094 10.382812 6.121094 9.878906 C 5.082031 8.84375 5.082031 7.15625 6.121094 6.121094 C 6.621094 5.617188 7.289062 5.339844 8 5.339844 C 8.710938 5.339844 9.378906 5.617188 9.878906 6.121094 C 10.917969 7.15625 10.917969 8.84375 9.878906 9.878906 C 9.378906 10.382812 8.710938 10.660156 8 10.660156 Z M 8 6.40625 C 7.574219 6.40625 7.171875 6.570312 6.871094 6.871094 C 6.25 7.492188 6.25 8.507812 6.871094 9.128906 C 7.171875 9.429688 7.574219 9.59375 8 9.59375 C 8.425781 9.59375 8.828125 9.429688 9.128906 9.128906 C 9.75 8.507812 9.75 7.492188 9.128906 6.871094 C 8.828125 6.570312 8.425781 6.40625 8 6.40625 Z M 8 6.40625 "/>
<path style=" stroke:none;fill-rule:nonzero;fill:#389FD6;fill-opacity:1;" d="M 15.195312 13.699219 L 13.699219 15.195312 C 13.335938 15.558594 12.753906 15.558594 12.390625 15.195312 L 10.894531 13.699219 C 10.53125 13.335938 10.53125 12.753906 10.894531 12.390625 L 12.390625 10.890625 C 12.753906 10.53125 13.335938 10.53125 13.699219 10.890625 L 15.195312 12.390625 C 15.558594 12.753906 15.558594 13.335938 15.195312 13.699219 Z M 15.195312 13.699219 "/>
<path style=" stroke:none;fill-rule:nonzero;fill:#6C707E;fill-opacity:1;" d="M 13.042969 16 C 12.65625 16 12.289062 15.847656 12.015625 15.574219 L 10.515625 14.074219 C 10.242188 13.800781 10.089844 13.433594 10.089844 13.042969 C 10.089844 12.65625 10.242188 12.289062 10.515625 12.015625 L 12.015625 10.515625 C 12.289062 10.242188 12.65625 10.089844 13.042969 10.089844 C 13.433594 10.089844 13.800781 10.242188 14.074219 10.515625 L 15.574219 12.015625 C 15.847656 12.289062 16 12.65625 16 13.042969 C 16 13.433594 15.847656 13.800781 15.574219 14.074219 L 14.074219 15.574219 C 13.800781 15.847656 13.433594 16 13.042969 16 Z M 13.042969 11.152344 C 12.941406 11.152344 12.839844 11.195312 12.765625 11.269531 L 11.269531 12.765625 C 11.117188 12.921875 11.117188 13.167969 11.269531 13.324219 L 12.765625 14.820312 C 12.839844 14.894531 12.941406 14.9375 13.042969 14.9375 C 13.148438 14.9375 13.25 14.894531 13.324219 14.820312 L 14.820312 13.324219 C 14.972656 13.167969 14.972656 12.921875 14.820312 12.765625 L 13.324219 11.269531 C 13.25 11.195312 13.148438 11.152344 13.042969 11.152344 Z M 13.042969 11.152344 "/>
<path style=" stroke:none;fill-rule:nonzero;fill:#59A869;fill-opacity:1;" d="M 12.390625 5.109375 L 10.890625 3.609375 C 10.53125 3.246094 10.53125 2.664062 10.890625 2.300781 L 12.390625 0.804688 C 12.753906 0.441406 13.335938 0.441406 13.699219 0.804688 L 15.195312 2.300781 C 15.558594 2.664062 15.558594 3.246094 15.195312 3.609375 L 13.699219 5.109375 C 13.335938 5.46875 12.753906 5.46875 12.390625 5.109375 Z M 12.390625 5.109375 "/>
<path style=" stroke:none;fill-rule:nonzero;fill:#6C707E;fill-opacity:1;" d="M 13.042969 5.910156 C 12.65625 5.910156 12.289062 5.757812 12.015625 5.484375 L 10.515625 3.984375 C 10.242188 3.710938 10.089844 3.34375 10.089844 2.957031 C 10.089844 2.566406 10.242188 2.199219 10.515625 1.925781 L 12.015625 0.425781 C 12.289062 0.152344 12.65625 0 13.042969 0 C 13.433594 0 13.800781 0.152344 14.074219 0.425781 L 15.574219 1.925781 C 15.847656 2.199219 16 2.566406 16 2.957031 C 16 3.34375 15.847656 3.710938 15.574219 3.984375 L 14.074219 5.484375 C 13.800781 5.757812 13.433594 5.910156 13.042969 5.910156 Z M 13.042969 1.0625 C 12.941406 1.0625 12.839844 1.105469 12.765625 1.179688 L 11.269531 2.675781 C 11.117188 2.832031 11.117188 3.078125 11.269531 3.234375 L 12.765625 4.730469 C 12.839844 4.804688 12.941406 4.847656 13.042969 4.847656 C 13.148438 4.847656 13.25 4.804688 13.324219 4.730469 L 14.820312 3.234375 C 14.972656 3.078125 14.972656 2.832031 14.820312 2.675781 L 13.324219 1.179688 C 13.25 1.105469 13.148438 1.0625 13.042969 1.0625 Z M 13.042969 1.0625 "/>
<path style=" stroke:none;fill-rule:nonzero;fill:#389FD6;fill-opacity:1;" d="M 2.300781 15.195312 L 0.804688 13.699219 C 0.441406 13.335938 0.441406 12.753906 0.804688 12.390625 L 2.300781 10.894531 C 2.664062 10.53125 3.246094 10.53125 3.609375 10.894531 L 5.109375 12.390625 C 5.46875 12.753906 5.46875 13.335938 5.109375 13.699219 L 3.609375 15.195312 C 3.246094 15.558594 2.664062 15.558594 2.300781 15.195312 Z M 2.300781 15.195312 "/>
<path style=" stroke:none;fill-rule:nonzero;fill:#6C707E;fill-opacity:1;" d="M 2.957031 16 C 2.566406 16 2.199219 15.847656 1.925781 15.574219 L 0.425781 14.074219 C 0.152344 13.800781 0 13.433594 0 13.042969 C 0 12.65625 0.152344 12.289062 0.425781 12.015625 L 1.925781 10.515625 C 2.199219 10.242188 2.566406 10.089844 2.957031 10.089844 C 3.34375 10.089844 3.710938 10.242188 3.984375 10.515625 L 5.484375 12.015625 C 5.757812 12.289062 5.910156 12.65625 5.910156 13.042969 C 5.910156 13.433594 5.757812 13.800781 5.484375 14.074219 L 3.984375 15.574219 C 3.710938 15.847656 3.34375 16 2.957031 16 Z M 2.957031 11.152344 C 2.851562 11.152344 2.75 11.195312 2.675781 11.269531 L 1.179688 12.765625 C 1.027344 12.921875 1.027344 13.167969 1.179688 13.324219 L 2.675781 14.820312 C 2.75 14.894531 2.851562 14.9375 2.957031 14.9375 C 3.058594 14.9375 3.160156 14.894531 3.234375 14.820312 L 4.730469 13.324219 C 4.882812 13.167969 4.882812 12.921875 4.730469 12.765625 L 3.234375 11.269531 C 3.160156 11.195312 3.058594 11.152344 2.957031 11.152344 Z M 2.957031 11.152344 "/>
</g>
</svg>
