<?xml version="1.0" encoding="utf-8"?>
<svg version="1.1" id="Layer_1" x="0px" y="0px" viewBox="0 0 16 16" style="enable-background:new 0 0 16 16;" xmlns="http://www.w3.org/2000/svg">
  <style type="text/css">
	.st0{fill:#AFB1B3;enable-background:new    ;}
	.st1{opacity:0.7;fill:#AFB1B3;enable-background:new    ;}
	.st2{opacity:0.7;}
	.st3{fill:#AFB1B3;}
    .st5{fill:#AFB1B3;}
</style>
  <title>Layer 1</title>
  <rect id="svg_4" x="0.399" y="7.783" class="st0" width="14.951" height="7.442" style="fill: rgb(134, 213, 255);"/>
  <g style="" transform="matrix(0.95119, 0, 0, 1.284925, 0.21856, -3.921789)">
    <path class="st3" d="M5.4,12.3H1.9v1.2H1.3v-2.9h4.1v0.6H1.9v0.6h3.5V12.3z" style="fill: rgb(68, 68, 68);"/>
    <path class="st3" d="M10,13.5H6v-0.6h3.5v-0.6H6v-1.7h4v0.6H6.5v0.6H10V13.5z" style="fill: rgb(68, 68, 68);"/>
    <path class="st3" d="M12.7,12.4l-1.5,1.1h-0.6v-0.3l1.5-1.2l-1.5-1.2v-0.3h0.6l1.5,1.1l1.5-1.1h0.6v0.3L13.1,12l1.6,1.2v0.3h-0.6 L12.7,12.4z" style="fill: rgb(68, 68, 68);"/>
  </g>
  <g style="">
    <polygon class="st1" points="3.404 7.395 3.404 1.395 9.904 1.395 12.204 3.995 12.204 7.395 13.204 7.395 13.204 3.695 10.304 0.395 2.404 0.395 2.404 7.395"/>
    <path class="st2" d="M -3.209 26.413" style="opacity: 0.7; fill: none; stroke: rgb(0, 0, 0);"/>
    <path class="st2" d="M -2.809 26.813" style="opacity: 0.7; fill: none; stroke: rgb(0, 0, 0);"/>
    <g class="st3" transform="matrix(1, 0, 0, 1, -0.195874, -0.606059)" style="opacity: 0.7;">
      <g>
        <rect x="4.2" y="7" class="st5" width="7.6" height="1" />
      </g>
      <rect x="4.2" y="4.9" class="st5" width="6.7" height="1" />
      <g>
        <rect x="4.2" y="2.8" class="st5" width="5.7" height="1" />
      </g>
    </g>
    <g style="" transform="matrix(1.068418, 0, 0, 1.068418, -0.688512, -1.216899)"/>
  </g>
</svg>