<?xml version="1.0" encoding="utf-8"?>
<!--
  ~ This file is part of "hybris integration" plugin for Intellij IDEA.
  ~ Copyright (C) 2014-2016 Alexander Bartash <AlexanderBartash@gmail.com>
  ~
  ~ This program is free software: you can redistribute it and/or modify
  ~ it under the terms of the GNU Lesser General Public License as
  ~ published by the Free Software Foundation, either version 3 of the
  ~ License, or (at your option) any later version.
  ~
  ~ This program is distributed in the hope that it will be useful,
  ~ but WITHOUT ANY WARRANTY; without even the implied warranty of
  ~ MERCHANTABILITY or FITNESS FOR A PARTICULAR PURPOSE.
  ~ See the GNU Lesser General Public License for more details.
  ~
  ~ You should have received a copy of the GNU Lesser General Public License
  ~ along with this program. If not, see <http://www.gnu.org/licenses/>.
  -->

<svg width="16" height="16" viewBox="0 0 16 16" xmlns="http://www.w3.org/2000/svg">
  <defs>
    <pattern id="pattern-0" x="0" y="0" width="20" height="20" patternUnits="userSpaceOnUse" viewBox="0 0 100 100">
      <path d="M 0 0 L 50 0 L 50 100 L 0 100 Z" style="fill: black;"/>
    </pattern>
  </defs>
  <title>java</title>
  <g>
    <title>background</title>
    <rect fill="none" id="canvas_background" height="402" width="582" y="-1" x="-1"/>
  </g>
  <g transform="matrix(1.004018, 0, 0, 1.000942, -0.152103, -0.066042)">
    <title>Layer 1</title>
    <g id="svg_1">
      <g id="svg_2" opacity="0.8">
        <polygon id="svg_3" opacity="0.7" points="6.0625 0.0624999 2.0625 4.0625 6.0625 4.0625 6.0625 0.0624999" fill="#9aa7b0"/>
        <rect id="svg_4" opacity="0.4" height="7" width="15" y="9.0625" x="1.0625" style="fill: rgb(98, 0, 255);"/>
        <polygon id="svg_5" opacity="0.7" points="7.0625 0.0624999 7.0625 4.0625 7.0625 5.0625 6.0625 5.0625 2.0625 5.0625 2.0625 8.0625 13.0625 8.0625 13.0625 0.0624999 7.0625 0.0624999" fill="#9aa7b0"/>
      </g>
      <text id="svg_8" y="13.031197" x="5.718775" style="white-space: pre;" text-anchor="start" stroke-width="0" stroke-opacity="null" stroke="null" font-size="24" font-family="Helvetica, Arial, sans-serif" fill-opacity="null" fill="#000000"/>
      <path d="M 1.802 9.738" opacity="0.7" style="fill: none; stroke: black;"/>
      <path d="M 2.234 10.131" opacity="0.7" style="fill: none; stroke: black;"/>
      <g opacity="0.7" transform="matrix(0.995998, 0, 0, 0.999059, -8.970275, 0.274755)">
        <path d="M11,10h3.30575v0.80028h-2.427v1.36385h2.10533v0.80028H11.87879V15H11V10Z" fill="#231f20"/>
      </g>
    </g>
  </g>
  <g opacity="0.7" transform="matrix(1, 0, 0, 1, -4.296264, 0.304628)">
    <path d="M14.92972,10L13.2174,12.44271,15,15H13.98243l-1.2981-1.90706L11.39308,15H10.40351l1.77575-2.54275L10.47378,10h1.01757l1.221,1.81459L13.94015,10h0.98957Z" fill="#231f20"/>
  </g>
  <g opacity="0.7" transform="matrix(1, 0, 0, 1, -2.936109, 0.466505)"/>
  <path d="M 13.113 13.176 C 14.065 13.384 14.27 13.572 14.27 13.919 L 14.27 13.933 C 14.198 14.359 13.784 14.638 13.362 14.543 C 13.347 14.543 13.334 14.54 13.319 14.539 L 13.319 14.546 L 11.853 14.546 L 11.853 15.3 L 13.32 15.299 L 13.333 15.3 C 14.256 15.461 15.113 14.784 15.171 13.85 L 15.171 13.835 C 15.171 13.03 14.614 12.662 13.531 12.412 C 12.542 12.19 12.308 12.023 12.308 11.648 L 12.308 11.634 C 12.37 11.238 12.751 10.976 13.142 11.058 L 13.161 11.053 L 13.161 11.055 L 14.563 11.055 L 14.563 10.301 L 13.248 10.301 L 13.247 10.308 C 13.216 10.307 13.188 10.301 13.157 10.301 C 12.276 10.178 11.474 10.824 11.406 11.71 L 11.406 11.725 C 11.406 12.62 12.022 12.926 13.113 13.176 Z" fill="#231f20" opacity="0.7"/>
</svg>