<?xml version="1.0" encoding="utf-8"?>
<svg id="Layer_1" data-name="Layer 1" width="32px" height="32px" viewBox="0 0 32 32" xmlns="http://www.w3.org/2000/svg">
  <style type="text/css">
	.st0{fill:#6E6E6E;}
</style>
  <polygon class="st0" points="21.405 1.894 21.405 5.294 26.605 5.294 26.605 26.494 21.405 26.494 21.405 29.894 30.205 29.894 30.205 27.094 30.205 26.494 30.205 5.294 30.205 4.294 30.205 1.894"/>
  <polygon class="st0" points="10.805 1.894 10.805 5.294 5.405 5.294 5.405 26.494 10.805 26.494 10.805 29.894 2.005 29.894 2.005 27.094 2.005 26.494 2.005 5.294 2.005 4.294 2.005 1.894"/>
  <polygon class="st0" points="17.805 16.894 21.605 8.894 17.005 8.894 15.405 13.094 12.605 8.894 7.605 8.894 17.005 24.694 22.605 24.694"/>
</svg>