<?xml version="1.0" encoding="utf-8"?>
<svg id="Layer_1" data-name="Layer 1" width="32px" height="32px" viewBox="0 0 32 32" xmlns="http://www.w3.org/2000/svg">
  <style type="text/css">
	.st0{fill:#AFB1B3;}
</style>
  <polygon class="st0" points="21.198 2.178 21.198 5.578 26.398 5.578 26.398 26.778 21.198 26.778 21.198 30.178 29.998 30.178 29.998 27.378 29.998 26.778 29.998 5.578 29.998 4.578 29.998 2.178"/>
  <polygon class="st0" points="10.598 2.178 10.598 5.578 5.198 5.578 5.198 26.778 10.598 26.778 10.598 30.178 1.798 30.178 1.798 27.378 1.798 26.778 1.798 5.578 1.798 4.578 1.798 2.178"/>
  <polygon class="st0" points="17.598 17.178 21.398 9.178 16.798 9.178 15.198 13.378 12.398 9.178 7.398 9.178 16.798 24.978 22.398 24.978"/>
</svg>