<?xml version="1.0" encoding="utf-8"?>
<svg version="1.1" id="Layer_1" x="0px" y="0px" viewBox="0 0 13 13" style="enable-background:new 0 0 13 13;" xmlns="http://www.w3.org/2000/svg">
  <style type="text/css">
	.st0{fill:#389FD6;}
</style>
  <polygon class="st0" points="8.597 0.662 8.597 2.08 10.767 2.08 10.767 10.926 8.597 10.926 8.597 12.345 12.268 12.345 12.268 11.176 12.268 10.926 12.268 2.08 12.268 1.664 12.268 0.662" style=""/>
  <polygon class="st0" points="4.174 0.662 4.174 2.08 1.921 2.08 1.921 10.926 4.174 10.926 4.174 12.345 0.502 12.345 0.502 11.176 0.502 10.926 0.502 2.08 0.502 1.664 0.502 0.662" style=""/>
  <polygon class="st0" points="7.094 6.921 8.68 3.583 6.761 3.583 6.093 5.335 4.924 3.583 2.838 3.583 6.761 10.175 9.097 10.175" style=""/>
</svg>