<?xml version="1.0" encoding="utf-8"?>
<!-- Generator: Adobe Illustrator 21.1.0, SVG Export Plug-In . SVG Version: 6.00 Build 0)  -->
<svg version="1.1" id="Layer_1" xmlns="http://www.w3.org/2000/svg" xmlns:xlink="http://www.w3.org/1999/xlink" x="0px" y="0px"
	 viewBox="0 0 16 16" style="enable-background:new 0 0 16 16;" xml:space="preserve">
<style type="text/css">
	.st0{fill:#389FD6;}
	.st1{fill:#59A869;}
</style>
<polygon class="st0" points="4.1,3.5 5.2,1 3.8,1 3.3,2.3 2.5,1 0.9,1 3.8,5.8 5.5,5.8 "/>
<polygon class="st0" points="13.7,12.5 14.9,10.1 13.5,10.1 13,11.4 12.1,10.1 10.6,10.1 13.5,14.9 15.2,14.9 "/>
<g>
	<g>
		<path class="st1" d="M5.1,11.4l0-1C7,10.4,8.3,9.9,9.2,9c0.8-0.9,1.2-2.2,1.2-3.9l1,0c0,2-0.5,3.5-1.5,4.6
			C8.9,10.8,7.2,11.4,5.1,11.4z"/>
	</g>
	<g>
		<path class="st1" d="M5.1,9.7l0-1c1.3,0,2.2-0.3,2.8-1c0.6-0.6,0.8-1.5,0.8-2.6l1,0c0,1.4-0.3,2.6-1.1,3.3
			C7.9,9.2,6.7,9.6,5.1,9.7z"/>
	</g>
	<g>
		<path class="st1" d="M5.3,7.9l0-1c0.6,0,1.1-0.2,1.3-0.4C6.9,6.2,7,5.8,7,5.2l1,0c0,0.8-0.2,1.5-0.6,2C6.9,7.6,6.2,7.9,5.3,7.9z"
			/>
	</g>
</g>
</svg>
