<svg xmlns="http://www.w3.org/2000/svg" width="16px" height="16px" viewBox="0 0 260 300" version="1.1">
	<style type="text/css">
		.std{
		fill: #AFB1B3;
		stroke: #AFB1B3;
		stroke-width:0px;
		}
		.y{
		fill: #389FD6;
		stroke: #389FD6;
		stroke-width:5px;
		}
	</style>
	<path class="y"
		  d="M 160.613 212.301 L 131.65 214.922 C 131.65 214.922 108.301 166.592 97.421 138.913 C 91.354 123.478 84.256 96.977 84.256 96.977 L 110.586 94.356 L 129.017 141.534 L 147.448 94.356 L 173.778 96.977 L 144.815 172.986 L 160.613 212.301 Z"/>
	<path class="std"
		  d="M 186.387 7.978 L 254.842 5.292 L 254.874 39.365 L 215.382 42.023 C 215.382 42.023 204.236 79.441 204.951 149.494 C 205.666 219.546 215.584 256.945 215.584 256.945 L 255.081 259.529 L 255.113 293.602 L 186.653 291.045 C 186.653 291.045 165.55 249.129 165.456 149.531 C 165.362 49.933 186.387 7.978 186.387 7.978 Z"
		  transform="matrix(-1, -0.000939, 0.000939, -1, 420.716278, 299.083527)"/>
	<path class="std"
		  d="M 26.197 290.908 L 94.653 293.678 L 94.685 259.521 L 55.192 256.863 C 55.192 256.863 44.046 219.445 44.761 149.392 C 45.476 79.34 55.394 41.941 55.394 41.941 L 94.891 39.357 L 94.923 5.284 L 26.463 7.841 C 26.463 7.841 5.36 49.757 5.266 149.355 C 5.172 248.953 26.197 290.908 26.197 290.908 Z"
		  transform="matrix(1, -0.000939, 0.000939, 1, -0.140305, 0.04724)"/>
</svg>