<?xml version="1.0" encoding="UTF-8" standalone="no"?>
<svg
    xmlns:dc="http://purl.org/dc/elements/1.1/"
    xmlns:cc="http://creativecommons.org/ns#"
    xmlns:rdf="http://www.w3.org/1999/02/22-rdf-syntax-ns#"
    xmlns="http://www.w3.org/2000/svg"
    version="1.1"
    viewBox="0 0 32 32"
    id="Layer_1">
  <metadata
     id="metadata24">
    <rdf:RDF>
      <cc:Work
         rdf:about="">
        <dc:format>image/svg+xml</dc:format>
        <dc:type
           rdf:resource="http://purl.org/dc/dcmitype/StillImage" />
      </cc:Work>
    </rdf:RDF>
  </metadata>
  <defs
     id="defs5">
    <pattern
       viewBox="0 0 100 100"
       patternUnits="userSpaceOnUse"
       height="20"
       width="20"
       y="0"
       x="0"
       id="pattern-0">
      <path
         id="path2"
         style="fill: black;"
         d="M 0 0 L 50 0 L 50 100 L 0 100 Z" />
    </pattern>
  </defs>
  <title
     id="title7">java</title>
  <g
     id="g15"
     transform="matrix(2.392679, 0, 0, 2.392679, -2.316222, -3.169199)">
    <g
       id="g9" />
    <g
       id="g13"
       opacity="1.0">
      <path
         id="path11"
         style="fill: rgb(0, 119, 193);"
         d="M 8.146 12.101 L 6.394 9.181 L 6.27 8.947 L 6.139 8.731 L 3.808 4.595 L 6.115 4.642 C 6.099 4.614 7.128 6.471 7.197 6.587 C 7.206 6.737 8.053 4.685 8.055 4.683 C 8.055 4.685 10.309 4.653 10.309 4.653 L 8.414 8.604 L 10.608 12.056 L 8.146 12.101 Z" />
    </g>
  </g>
  <path
     id="path17"
     style="fill: rgb(0, 119, 193);"
     d="M 10.001 31.608 L 10.01 27.759 L 5.612 27.717 C 5.612 27.717 3.926 20.211 3.904 15.963 C 3.882 11.343 5.625 4.204 5.625 4.204 L 10.044 4.185 L 10.001 0.34 L 2.368 0.379 C 2.368 0.379 0.234 10.81 0.22 15.953 C 0.21 20.847 2.39 31.58 2.39 31.58 L 10.001 31.608 Z" />
  <path
     id="path19"
     transform="matrix(-1, 0, 0, -1, 53.609963, 31.823998)"
     style="fill: rgb(0, 119, 193);"
     d="M 31.674 0.278 L 31.683 4.127 L 27.285 4.169 C 27.285 4.169 25.599 11.675 25.577 15.923 C 25.555 20.543 27.298 27.682 27.298 27.682 L 31.717 27.701 L 31.674 31.546 L 24.041 31.507 C 24.041 31.507 21.907 21.076 21.893 15.933 C 21.883 11.039 24.063 0.306 24.063 0.306 L 31.674 0.278 Z" />
</svg>
