<?xml version="1.0" encoding="utf-8"?>
<svg version="1.1" id="Layer_1" xmlns="http://www.w3.org/2000/svg" xmlns:xlink="http://www.w3.org/1999/xlink" x="0px"
     y="0px"
     viewBox="0 0 16 16" style="enable-background:new 0 0 16 16;" xml:space="preserve">
<defs>
	<style type="text/css">
		.st1{fill:#59A869;}
        .y{
        fill: #AFB1B3;
        stroke: #AFB1B3;
		stroke-width: 0px;
        }
	</style>
</defs>
    <g transform="matrix(1, 0, 0, 1, 3.552713678800501e-15, 0)">
	<g>
		<path class="st1" d="M5.1,11.4l0-1C7,10.4,8.3,9.9,9.2,9c0.8-0.9,1.2-2.2,1.2-3.9l1,0c0,2-0.5,3.5-1.5,4.6
			C8.9,10.8,7.2,11.4,5.1,11.4z"/>
	</g>
        <g>
		<path class="st1" d="M5.1,9.7l0-1c1.3,0,2.2-0.3,2.8-1c0.6-0.6,0.8-1.5,0.8-2.6l1,0c0,1.4-0.3,2.6-1.1,3.3
			C7.9,9.2,6.7,9.6,5.1,9.7z"/>
	</g>
        <g>
		<path class="st1"
              d="M5.3,7.9l0-1c0.6,0,1.1-0.2,1.3-0.4C6.9,6.2,7,5.8,7,5.2l1,0c0,0.8-0.2,1.5-0.6,2C6.9,7.6,6.2,7.9,5.3,7.9z"/>
	</g>
</g>
    <path class="y"
          d="M 5.178 5.926 L 4.051 6.027 C 4.051 6.027 3.142 4.147 2.718 3.069 C 2.482 2.469 2.206 1.437 2.206 1.437 L 3.231 1.335 L 3.948 3.171 L 4.666 1.335 L 5.691 1.437 L 4.563 4.396 L 5.178 5.926 Z"
          transform="matrix(1, 0, 0, 1, 3.552713678800501e-15, 0)"/>
    <path class="y"
          d="M 13.841 14.68 L 12.714 14.781 C 12.714 14.781 11.805 12.901 11.381 11.823 C 11.145 11.223 10.869 10.191 10.869 10.191 L 11.894 10.089 L 12.611 11.925 L 13.329 10.089 L 14.354 10.191 L 13.226 13.15 L 13.841 14.68 Z"
          transform="matrix(1, 0, 0, 1, 3.552713678800501e-15, 0)"/>
</svg>