<?xml version="1.0" encoding="utf-8"?>
<svg id="Layer_1" data-name="Layer 1" width="32" height="32" viewBox="0 0 32 32" xmlns="http://www.w3.org/2000/svg">
  <style type="text/css">
	.st0{fill:#389FD6;}
</style>
  <polygon class="st0" points="21.133 1.832 21.133 5.232 26.333 5.232 26.333 26.432 21.133 26.432 21.133 29.832 29.933 29.832 29.933 27.032 29.933 26.432 29.933 5.232 29.933 4.232 29.933 1.832"/>
  <polygon class="st0" points="10.533 1.832 10.533 5.232 5.133 5.232 5.133 26.432 10.533 26.432 10.533 29.832 1.733 29.832 1.733 27.032 1.733 26.432 1.733 5.232 1.733 4.232 1.733 1.832"/>
  <polygon class="st0" points="17.533 16.832 21.333 8.832 16.733 8.832 15.133 13.032 12.333 8.832 7.333 8.832 16.733 24.632 22.333 24.632"/>
</svg>