<?xml version="1.0" encoding="utf-8"?>
<svg version="1.1" id="Layer_1" x="0px" y="0px" viewBox="0 0 16 16" style="enable-background:new 0 0 16 16;" xmlns="http://www.w3.org/2000/svg">
  <style type="text/css">
	.st0{fill:#ff858d;enable-background:new    ;}
	.st1{opacity:0.7;fill:#AFB1B3;enable-background:new    ;}
	.st2{opacity:0.7;fill:none;stroke:#AFB1B3;enable-background:new    ;}
	.st3{opacity:0.7;}
	.st4{fill:#3a3a3a;}
	.st5{fill:#AFB1B3;}
</style>
  <title>Layer 1</title>
  <rect id="svg_4" x="0.405" y="8.081" class="st0" width="14.973" height="7.434"/>
  <polygon class="st1" points="3.413 7.682 3.413 1.682 9.913 1.682 12.213 4.282 12.213 7.682 13.213 7.682 13.213 3.982 10.313 0.682 2.413 0.682 2.413 7.682"/>
  <path class="st2" d="M-3.2,26.7"/>
  <path class="st2" d="M-2.8,27.1"/>
  <g class="st3" transform="matrix(1, 0, 0, 1, -0.186858, -0.318802)">
    <g>
      <rect x="4.2" y="7" class="st5" width="7.6" height="1"/>
    </g>
    <rect x="4.2" y="4.9" class="st5" width="6.7" height="1"/>
    <g>
      <rect x="4.2" y="2.8" class="st5" width="5.7" height="1"/>
    </g>
  </g>
  <g style="" transform="matrix(1.068418, 0, 0, 1.068418, -0.679496, -0.929642)">
    <path class="st4" d="M 2 10.2 L 2.7 10.2 L 2.7 13.7 L 2 13.7 L 2 10.55 L 2 10.2 Z"/>
    <path class="st4" d="M 4.1 11.6 L 4.1 13.7 L 3.4 13.7 L 3.4 10.2 L 4.1 10.2 L 5.9 12.8 L 7.7 10.2 L 8.4 10.2 L 8.4 12.097 L 8.4 13.7 L 7.6 13.7 L 7.6 11.6 L 6.2 13.7 L 5.5 13.7 L 4.1 11.6 Z" />
    <path class="st4" d="M11.5,12.4l-1.8,1.3H9.1v-0.4l1.9-1.4l-1.9-1.4v-0.4h0.7l1.8,1.3l1.8-1.3H14v0.4L12.1,12l1.9,1.4v0.4h-0.7 L11.5,12.4z"/>
  </g>
</svg>