<?xml version="1.0" encoding="utf-8"?>
<!-- Generator: Adobe Illustrator 21.1.0, SVG Export Plug-In . SVG Version: 6.00 Build 0)  -->
<svg version="1.1" id="Layer_1" xmlns="http://www.w3.org/2000/svg" xmlns:xlink="http://www.w3.org/1999/xlink" x="0px" y="0px"
	 viewBox="0 0 16 16" style="enable-background:new 0 0 16 16;" xml:space="preserve">
<style type="text/css">
	.st0{fill:#389FD6;}
</style>
<title>Layer 1</title>
<path class="st0" d="M5.8,5.7V15h9.3V5.7H5.8z M7.1,13.7V7h6.8v6.8H7.1z"/>
<polygon class="st0" points="10.2,1 1.2,1 1,1 1,1.2 1,10.2 1,10.5 1.2,10.5 7.6,10.5 8.3,10.5 10.2,10.5 10.5,10.5 10.5,10.2 
	10.5,6.5 9,6.5 9,9 8.3,9 7.6,9 2.5,9 2.5,2.5 9,2.5 9,5.2 10.5,5.2 10.5,1.2 10.5,1 "/>
<polygon class="st0" points="5.5,2.9 5,3.4 5,3.4 5,4.5 3.1,2.6 2.7,3 4.6,4.9 3.5,4.9 3,5.4 5.5,5.4 5.5,2.9 "/>
<polygon class="st0" points="13.2,10.8 12.7,11.3 12.7,11.3 11.6,11.3 13.5,13.1 13.1,13.5 11.2,11.6 11.2,12.8 10.7,13.3 
	10.7,10.8 13.2,10.8 "/>
</svg>
