<?xml version="1.0" encoding="utf-8"?>
<!-- Generator: Adobe Illustrator 21.1.0, SVG Export Plug-In . SVG Version: 6.00 Build 0)  -->
<svg version="1.1" id="Layer_1" xmlns="http://www.w3.org/2000/svg" xmlns:xlink="http://www.w3.org/1999/xlink" x="0px" y="0px"
	 viewBox="0 0 16 16" style="enable-background:new 0 0 16 16;" xml:space="preserve">
<style type="text/css">
	.st0{fill:#389FD6;}
</style>
<path class="st0" d="M8,1.1C4.1,1.1,0.9,4.2,0.9,8c0,3.8,3.2,6.9,7.1,6.9c3.9,0,7.1-3.1,7.1-6.9C15.1,4.2,11.9,1.1,8,1.1z M8.7,13.8
	c-0.2,0-0.4,0-0.6,0v-2.2h2.4C10.1,12.5,9.5,13.3,8.7,13.8z M5.4,11.6h2.3v2.2c-0.2,0-0.5,0-0.7-0.1C6.3,13.3,5.8,12.5,5.4,11.6z
	 M1.9,8.2h2.2c0,0.1,0,0.2,0,0.3c0.1,0.9,0.2,1.8,0.5,2.6H2.9C2.3,10.3,2,9.3,1.9,8.2z M7,2.2c0.2,0,0.4-0.1,0.7-0.1v2.1H5.4
	C5.8,3.4,6.3,2.8,7,2.2z M10.5,4.2H8.1V2.1c0.2,0,0.4,0,0.6,0C9.4,2.7,10,3.4,10.5,4.2z M10.7,4.7c0.4,0.9,0.6,1.9,0.7,3H8.1v-3
	H10.7z M7.6,4.7v3h-3c0-1,0.2-2,0.6-3H7.6z M4.1,7.7H1.9c0.1-1.1,0.4-2.2,1-3h1.7C4.3,5.6,4.1,6.6,4.1,7.7z M4.6,8.5
	c0-0.1,0-0.2,0-0.3h3v2.9H5.2C4.9,10.4,4.7,9.5,4.6,8.5z M8.1,11.2V8.2h3.3c0,1.1-0.2,2-0.6,2.9H8.1z M11.9,8.2h2.2
	c0,1.1-0.4,2.1-0.9,2.9h-1.8C11.7,10.3,11.9,9.3,11.9,8.2z M11.9,7.7c0-1.1-0.3-2.1-0.6-3H13c0.6,0.9,1,1.9,1,3H11.9z M12.6,4.2H11
	c-0.4-0.7-0.8-1.3-1.3-1.8C10.8,2.7,11.9,3.3,12.6,4.2z M6.1,2.4C5.6,2.9,5.2,3.5,4.9,4.2H3.4C4.1,3.4,5,2.8,6.1,2.4z M3.3,11.6h1.5
	c0.3,0.7,0.7,1.4,1.2,1.9C4.9,13.1,3.9,12.5,3.3,11.6z M9.7,13.6c0.6-0.6,1-1.2,1.4-2h1.6C12,12.6,10.9,13.3,9.7,13.6z"/>
</svg>
