<?xml version="1.0" encoding="UTF-8"?>
<svg xmlns="http://www.w3.org/2000/svg" width="16px" height="16px" viewBox="0 0 16 16" version="1.1" fill="none">
    <g id="surface1">
        <path style=" stroke:none;fill-rule:evenodd;fill:#389FD6;fill-opacity:1;"
              d="M 3.5 7.503906 L 7 7.5 C 7.167969 7.5 7.324219 7.417969 7.414062 7.277344 L 7.5 7.152344 C 7.5 7.152344 7.5 8.5 7.5 8.5 C 7.5 8.703125 7.621094 8.882812 7.808594 8.960938 C 7.996094 9.039062 8.210938 8.996094 8.351562 8.851562 L 9.707031 7.5 C 9.707031 7.5 12.496094 7.519531 12.496094 7.519531 C 12.773438 7.519531 12.996094 7.296875 13 7.023438 C 13.003906 6.746094 12.777344 6.519531 12.503906 6.519531 L 9.503906 6.5 C 9.371094 6.5 9.242188 6.550781 9.148438 6.648438 L 8.5 7.292969 C 8.5 7.292969 8.5 5.5 8.5 5.5 C 8.5 5.28125 8.355469 5.085938 8.144531 5.023438 C 7.933594 4.957031 7.707031 5.039062 7.585938 5.222656 L 6.734375 6.5 C 6.734375 6.5 3.5 6.503906 3.5 6.503906 C 3.222656 6.503906 3 6.726562 3 7.003906 C 3 7.277344 3.222656 7.503906 3.5 7.503906 Z M 3.5 7.503906 "/>
        <path style=" stroke:none;fill-rule:evenodd;fill:#AFB1B3;fill-opacity:1;"
              d="M 7.503906 13 L 7.503906 13.996094 L 5.5 13.992188 C 5.222656 13.992188 5 14.21875 5 14.492188 C 5 14.769531 5.222656 14.992188 5.5 14.992188 L 10.5 15 C 10.777344 15 11 14.777344 11 14.5 C 11 14.222656 10.777344 14 10.5 14 L 8.503906 13.996094 L 8.503906 13 L 13.5 13 C 13.898438 13 14.28125 12.839844 14.558594 12.558594 C 14.84375 12.277344 15 11.898438 15 11.5 L 15 4.5 C 15 4.101562 14.84375 3.71875 14.558594 3.441406 C 14.28125 3.15625 13.898438 3 13.5 3 L 2.5 3 C 2.101562 3 1.71875 3.15625 1.441406 3.441406 C 1.15625 3.71875 1 4.101562 1 4.5 C 1 6.230469 1 9.765625 1 11.5 C 1 11.898438 1.15625 12.277344 1.441406 12.558594 C 1.71875 12.839844 2.101562 13 2.5 13 Z M 14 11 L 14 11.5 C 14 11.632812 13.949219 11.757812 13.851562 11.851562 C 13.761719 11.945312 13.632812 12 13.5 12 C 13.5 12 2.5 12 2.5 12 C 2.367188 12 2.238281 11.945312 2.148438 11.851562 C 2.050781 11.757812 2 11.632812 2 11.5 L 2 11 Z M 14 10 L 2 10 L 2 4.5 C 2 4.367188 2.050781 4.238281 2.148438 4.148438 C 2.238281 4.050781 2.367188 4 2.5 4 C 2.5 4 13.5 4 13.5 4 C 13.632812 4 13.761719 4.050781 13.851562 4.148438 C 13.949219 4.238281 14 4.367188 14 4.5 Z M 14 10 "/>
    </g>
</svg>
