<?xml version="1.0" encoding="utf-8"?>
<svg id="Layer_1" data-name="Layer 1" width="32" height="32" viewBox="0 0 32 32" xmlns="http://www.w3.org/2000/svg">
  <style type="text/css">
	.st0{fill:#AFB1B3;}
	.st1{fill:#389FD6;}
</style>
  <path class="st0" d="M 30.044 21.822 L 30.044 3.222 L 1.844 3.222 L 1.844 21.822 L 13.444 21.822 L 13.444 24.622 L 11.444 27.822 L 8.644 27.822 L 8.644 29.822 L 22.844 29.822 L 22.844 27.822 L 20.044 27.822 L 18.444 25.022 L 18.444 21.822 L 30.044 21.822 Z M 3.844 5.222 L 28.044 5.222 L 28.044 19.822 L 3.844 19.822 L 3.844 5.222 Z"/>
  <g transform="matrix(2, 0, 0, 2, -0.156513, -0.178292)">
    <rect x="5.2" y="3.9" class="st1" width="2.2" height="2.2"/>
    <rect x="5.2" y="7" class="st1" width="2.2" height="2.2"/>
    <rect x="8.5" y="7" class="st1" width="2.2" height="2.2"/>
  </g>
  <circle class="st1" cx="19.044" cy="9.822" r="2.2"/>
</svg>