<?xml version="1.0" encoding="utf-8"?>
<svg id="Layer_1" data-name="Layer 1" width="32" height="32" viewBox="0 0 32 32" xmlns="http://www.w3.org/2000/svg">
  <style type="text/css">
	.st0{fill:#6E6E6E;}
	.st1{fill:#389FD6;}
</style>
  <path class="st0" d="M 29.961 22.179 L 29.961 3.579 L 1.761 3.579 L 1.761 22.179 L 13.361 22.179 L 13.361 24.979 L 11.361 28.179 L 8.561 28.179 L 8.561 30.179 L 22.761 30.179 L 22.761 28.179 L 19.961 28.179 L 18.361 25.379 L 18.361 22.179 L 29.961 22.179 Z M 3.761 5.579 L 27.961 5.579 L 27.961 20.179 L 3.761 20.179 L 3.761 5.579 Z"/>
  <g transform="matrix(2, 0, 0, 2, -0.239029, 0.179318)">
    <rect x="5.2" y="3.9" class="st1" width="2.2" height="2.2"/>
    <rect x="5.2" y="7" class="st1" width="2.2" height="2.2"/>
    <rect x="8.5" y="7" class="st1" width="2.2" height="2.2"/>
  </g>
  <circle class="st1" cx="18.961" cy="10.179" r="2.2"/>
</svg>