<!--
  - This file is part of "SAP Commerce Developers Toolset" plugin for Intellij IDEA.
  - Copyright (C) 2019-2023 EPAM Systems <hybrisideaplugin@epam.com> and contributors
  -
  - This program is free software: you can redistribute it and/or modify
  - it under the terms of the GNU Lesser General Public License as
  - published by the Free Software Foundation, either version 3 of the
  - License, or (at your option) any later version.
  -
  - This program is distributed in the hope that it will be useful,
  - but WITHOUT ANY WARRANTY; without even the implied warranty of
  - MERCHANTABILITY or FITNESS FOR A PARTICULAR PURPOSE.
  - See the GNU Lesser General Public License for more details.
  -
  - You should have received a copy of the GNU Lesser General Public License
  - along with this program. If not, see <http://www.gnu.org/licenses/>.
  -->

<svg xmlns="http://www.w3.org/2000/svg" width="16px" height="16px" viewBox="0 0 16 16" version="1.1">
    <defs>
        <style type="text/css">
            .st0{fill:#AFB1B3;}
            .st1{fill:rgb(250,215,188);}
        </style>
    </defs>
    <path class="st0" fill-rule="evenodd"
          d="M 6.244 1.331 C 6.58 1.137 6.995 1.137 7.331 1.331 L 12.456 4.288 C 12.52 4.326 12.58 4.368 12.634 4.416 C 12.902 4.474 13.06 4.752 12.978 5.013 C 12.991 5.083 12.999 5.156 12.999 5.23 L 12.999 7.299 C 12.999 7.658 12.61 7.882 12.3 7.703 C 12.156 7.62 12.067 7.465 12.067 7.299 L 12.067 5.679 L 7.254 8.458 L 7.254 14.821 C 7.254 15.18 6.866 15.404 6.555 15.225 C 6.555 15.225 6.554 15.225 6.554 15.225 L 1.121 12.087 C 0.784 11.894 0.577 11.535 0.577 11.146 L 0.577 5.23 C 0.577 5.156 0.585 5.083 0.6 5.013 C 0.515 4.75 0.675 4.474 0.943 4.416 C 0.998 4.368 1.057 4.324 1.121 4.288 L 6.244 1.331 Z M 1.508 5.677 L 1.508 11.144 C 1.508 11.201 1.54 11.252 1.586 11.279 L 6.322 14.012 L 6.322 8.457 L 1.508 5.677 Z M 6.788 7.649 L 1.975 4.871 L 6.71 2.137 C 6.759 2.109 6.819 2.109 6.865 2.137 L 11.601 4.871 L 6.788 7.65 L 6.788 7.649 Z"/>
    <path class="st1"
          d="M 15.149 11.448 C 15.149 11.448 11.117 11.448 9.907 11.448 C 9.706 11.448 9.504 11.664 9.504 11.88 C 9.504 12.096 9.706 12.312 9.907 12.312 C 11.654 12.312 13.402 12.312 15.149 12.312 C 15.35 12.312 15.552 12.096 15.552 11.88 C 15.552 11.664 15.35 11.448 15.149 11.448 Z"/>
    <path class="st1"
          d="M 15.149 9.072 C 15.149 9.072 11.117 9.072 9.907 9.072 C 9.706 9.072 9.504 9.288 9.504 9.504 C 9.504 9.72 9.706 9.936 9.907 9.936 C 11.654 9.936 13.402 9.936 15.149 9.936 C 15.35 9.936 15.552 9.72 15.552 9.504 C 15.552 9.288 15.35 9.072 15.149 9.072 Z"/>
    <path class="st1"
          d="M 15.149 13.824 C 15.149 13.824 11.117 13.824 9.907 13.824 C 9.706 13.824 9.504 14.04 9.504 14.256 C 9.504 14.472 9.706 14.688 9.907 14.688 C 11.654 14.688 13.402 14.688 15.149 14.688 C 15.35 14.688 15.552 14.472 15.552 14.256 C 15.552 14.04 15.35 13.824 15.149 13.824 Z"/>
</svg>
