<svg width="16" height="16" viewBox="0 0 16 16" fill="none" xmlns="http://www.w3.org/2000/svg">
    <style type="text/css">
        .st0{
        stroke:#AFB1B3;
        stroke-width:2px;
        stroke-linecap:round;
        stroke-linejoin:round;
        }
        .st1{
        stroke:#C75450;
        stroke-width:2px;
        stroke-linecap:round;
        }
    </style>
    <path class="st0" d="M 7.185 1.964 L 10.806 1.964 C 11.652 1.964 12.074 1.964 12.397 2.129 C 12.681 2.272 12.911 2.504 13.056 2.787 C 13.221 3.11 13.221 3.533 13.221 4.376 L 13.221 5.736 L 7.185 5.736 M 7.185 1.964 L 3.563 1.964 C 2.719 1.964 2.295 1.964 1.972 2.129 C 1.689 2.272 1.457 2.504 1.314 2.787 C 1.149 3.11 1.149 3.534 1.149 4.378 L 1.149 5.736 M 7.185 1.964 L 7.185 5.736 M 1.149 5.736 L 1.149 10.263 M 1.149 5.736 L 7.185 5.736 M 1.149 10.263 L 1.149 11.621 C 1.149 12.467 1.149 12.889 1.314 13.212 C 1.457 13.496 1.689 13.726 1.972 13.871 C 2.295 14.036 2.718 14.036 3.561 14.036 L 7.185 14.036 L 7.185 5.736 M 1.149 10.263 L 7.185 10.263"/>
    <line class="st1"  x1="9.82" y1="11.293" x2="14.73" y2="11.293" />
</svg>