<?xml version="1.0" encoding="UTF-8"?>
<svg xmlns="http://www.w3.org/2000/svg" xmlns:xlink="http://www.w3.org/1999/xlink" width="16px" height="16px" viewBox="0 0 16 16" version="1.1">
<g id="surface1">
<path style=" stroke:none;fill-rule:nonzero;fill:#389FD6;fill-opacity:1;" d="M 15.882812 10.167969 C 15.882812 10.167969 15.539062 9.96875 15.367188 9.871094 C 15.363281 9.769531 15.351562 9.671875 15.332031 9.578125 C 15.464844 9.460938 15.738281 9.226562 15.738281 9.226562 L 15.738281 8.757812 L 15.070312 7.976562 L 14.597656 7.976562 C 14.597656 7.976562 14.375 8.167969 14.265625 8.261719 C 14.144531 8.207031 14.015625 8.15625 13.882812 8.121094 C 13.871094 7.988281 13.851562 7.722656 13.851562 7.722656 L 13.519531 7.390625 L 12.496094 7.476562 L 12.164062 7.804688 C 12.164062 7.804688 12.191406 8.15625 12.203125 8.328125 C 12.101562 8.386719 12.007812 8.449219 11.921875 8.523438 C 11.777344 8.457031 11.488281 8.324219 11.488281 8.324219 L 11.035156 8.445312 L 10.605469 9.378906 L 10.589844 9.441406 L 10.722656 9.832031 C 10.722656 9.832031 11.058594 9.984375 11.226562 10.0625 C 11.234375 10.171875 11.25 10.28125 11.277344 10.386719 C 11.148438 10.492188 10.894531 10.710938 10.894531 10.710938 L 10.894531 11.179688 L 11.558594 11.964844 C 11.558594 11.964844 11.945312 12.011719 11.964844 12 C 11.988281 11.988281 12.027344 11.964844 12.027344 11.964844 C 12.027344 11.964844 12.273438 11.757812 12.394531 11.65625 C 12.496094 11.699219 12.601562 11.738281 12.714844 11.769531 C 12.726562 11.90625 12.75 12.183594 12.75 12.183594 L 13.082031 12.515625 L 14.105469 12.421875 L 14.4375 12.089844 C 14.4375 12.089844 14.40625 11.734375 14.390625 11.558594 C 14.476562 11.511719 14.554688 11.457031 14.628906 11.398438 C 14.765625 11.476562 15.03125 11.628906 15.03125 11.628906 L 15.484375 11.511719 L 16 10.621094 Z M 13.238281 10.988281 C 12.667969 10.988281 12.203125 10.527344 12.203125 9.953125 C 12.203125 9.382812 12.667969 8.917969 13.238281 8.917969 C 13.8125 8.917969 14.273438 9.382812 14.273438 9.953125 C 14.273438 10.527344 13.8125 10.988281 13.238281 10.988281 Z M 13.238281 10.988281 "/>
<path style=" stroke:none;fill-rule:nonzero;fill:#6C707E;fill-opacity:1;" d="M 12.867188 6.386719 C 12.957031 6.386719 13.042969 6.394531 13.128906 6.398438 C 13.140625 6.3125 13.148438 6.226562 13.152344 6.140625 C 13.070312 4.574219 11.953125 3.457031 10.386719 3.375 C 9.46875 3.324219 8.699219 3.792969 8.207031 4.480469 C 7.71875 3.832031 6.953125 3.425781 6.027344 3.375 C 4.464844 3.289062 3.339844 4.703125 3.261719 6.140625 C 3.253906 6.328125 3.265625 6.503906 3.292969 6.675781 C 3.195312 6.664062 3.097656 6.652344 2.996094 6.648438 C 1.304688 6.554688 0.0859375 8.082031 0.00390625 9.636719 C -0.0820312 11.230469 1.261719 12.398438 2.71875 12.601562 L 2.71875 12.628906 L 10.136719 12.628906 C 9.523438 11.964844 9.148438 11.082031 9.148438 10.109375 C 9.144531 8.054688 10.8125 6.386719 12.867188 6.386719 Z M 12.867188 6.386719 "/>
</g>
</svg>
