<?xml version="1.0" encoding="UTF-8"?>
<svg xmlns="http://www.w3.org/2000/svg" width="16px" height="16px" viewBox="0 0 16 16" version="1.1">
    <g id="surface1">
        <path style=" stroke:none;fill-rule:nonzero;fill:#389FD6;fill-opacity:1;"
              d="M 12.339844 8.585938 L 10.710938 8.585938 L 10.710938 11.996094 L 15.597656 11.996094 L 15.597656 9.175781 L 12.339844 9.175781 Z M 12.339844 8.585938 "/>
        <path style=" stroke:none;fill-rule:nonzero;fill:#389FD6;fill-opacity:1;"
              d="M 12.902344 8.707031 L 12.902344 8 L 11.085938 8 L 11.085938 8.238281 L 12.683594 8.238281 L 12.683594 8.933594 L 15.777344 8.933594 L 15.777344 10.972656 L 15.703125 10.972656 L 15.703125 11.199219 L 16 11.199219 L 16 8.707031 Z M 12.902344 8.707031 "/>
        <path style=" stroke:none;fill-rule:nonzero;fill:#6C707E;fill-opacity:1;"
              d="M 12.53125 6.429688 C 12.613281 6.429688 12.699219 6.4375 12.78125 6.441406 C 12.792969 6.359375 12.804688 6.273438 12.808594 6.191406 C 12.726562 4.664062 11.640625 3.578125 10.113281 3.496094 C 9.21875 3.449219 8.472656 3.90625 7.992188 4.574219 C 7.515625 3.941406 6.769531 3.542969 5.871094 3.496094 C 4.347656 3.414062 3.25 4.789062 3.175781 6.191406 C 3.167969 6.371094 3.179688 6.542969 3.207031 6.710938 C 3.113281 6.699219 3.015625 6.6875 2.914062 6.683594 C 1.269531 6.59375 0.0859375 8.082031 0.00390625 9.59375 C -0.078125 11.144531 1.230469 12.285156 2.648438 12.480469 L 2.648438 12.507812 L 9.871094 12.507812 C 9.273438 11.863281 8.90625 11 8.90625 10.054688 C 8.90625 8.050781 10.527344 6.429688 12.53125 6.429688 Z M 12.53125 6.429688 "/>
    </g>
</svg>
