<!-- Copyright 2000-2024 JetBrains s.r.o. and contributors. Use of this source code is governed by the Apache 2.0 license. -->
<svg width="16" height="16" viewBox="0 0 16 16" fill="none" xmlns="http://www.w3.org/2000/svg">
<path d="M3 2C1.89543 2 1 2.89543 1 4V12C1 13.1046 1.89543 14 3 14H9.87868L11 12.8787V11.9146C10.4174 11.7087 10 11.1531 10 10.5C10 9.67157 10.6716 9 11.5 9H15V4C15 2.89543 14.1046 2 13 2H3Z" fill="#EBECF0"/>
<path fill-rule="evenodd" clip-rule="evenodd" d="M11 10.5C11 10.2239 11.2239 10 11.5 10H15.5C15.7761 10 16 10.2239 16 10.5V14.5C16 14.7761 15.7761 15 15.5 15C15.2239 15 15 14.7761 15 14.5V11.7071L10.8536 15.8536C10.6583 16.0488 10.3417 16.0488 10.1464 15.8536C9.95118 15.6583 9.95118 15.3417 10.1464 15.1464L14.2929 11H11.5C11.2239 11 11 10.7761 11 10.5Z" fill="#3574F0"/>
<path fill-rule="evenodd" clip-rule="evenodd" d="M1 4C1 2.89543 1.89543 2 3 2H13C14.1046 2 15 2.89543 15 4V9H14V6H11V9.08535C10.4174 9.29127 10 9.84689 10 10.5V6H6V13H10V10.5C10 11.1531 10.4174 11.7087 11 11.9146V12.8787L9.87868 14H3C1.89543 14 1 13.1046 1 12V4ZM6 3H10V5H6V3ZM5 3H3C2.44772 3 2 3.44772 2 4V5H5V3ZM2 6V12C2 12.5523 2.44772 13 3 13H5V6H2ZM14 5V4C14 3.44772 13.5523 3 13 3H11V5H14Z" fill="#6C707E"/>
</svg>
