<?xml version="1.0" encoding="utf-8"?>
<svg version="1.1" width="16px" height="16px" id="svg2" viewBox="0 0 16 16" xmlns="http://www.w3.org/2000/svg">
  <g transform="translate(-111.22246,-159.29219)" id="layer1">
    <path d="M 119.983 174.333 C 119.133 173.854 118.694 173.627 118.173 173.318 C 119.325 173.451 120.996 173.647 122.148 173.782 C 121.537 174.102 120.678 174.261 119.983 174.333 Z M 123.281 173.14 C 121.657 172.829 119.982 172.509 118.364 172.164 C 120.727 171.674 123.145 171.208 125.514 170.749 C 125.298 171.365 124.044 172.774 123.326 173.146 L 123.281 173.14 Z M 118.168 171.03 C 120.877 169.505 123.767 167.888 126.36 166.428 C 126.502 167.723 126.338 168.997 125.842 170.099 C 123.334 170.408 120.677 170.726 118.168 171.03 Z M 117.675 169.954 C 119.94 167.478 122.224 165.019 124.5 162.552 C 124.891 162.955 125.226 163.41 125.5 163.899 C 125.863 164.543 126.123 165.246 126.274 165.97 C 123.425 167.327 120.542 168.63 117.675 169.954 Z M 116.842 169.131 C 118.042 166.283 119.668 162.975 120.818 160.478 C 122.094 160.729 123.301 161.363 124.225 162.277 C 121.801 164.553 119.278 166.869 116.842 169.131 Z M 113.465 168.587 C 113.102 167.968 112.761 167.337 112.409 166.712 C 112.475 165.949 112.665 165.194 112.986 164.5 C 113.151 165.861 113.316 167.223 113.465 168.587 Z M 115.786 168.599 C 116.087 166.017 116.385 163.433 116.706 160.853 C 117.658 160.469 118.805 160.215 120.382 160.39 C 119.602 161.783 116.62 167.115 115.786 168.599 Z M 114.64 168.422 C 114.381 167.185 113.777 164.162 113.616 163.349 C 114.257 162.454 115.085 161.688 116.059 161.169 C 115.639 163.402 115.078 166.193 114.64 168.422 Z" id="path5350" style="fill: rgb(224, 85, 85);"/>
  </g>
</svg>