<?xml version="1.0" encoding="UTF-8"?>
<svg xmlns="http://www.w3.org/2000/svg" xmlns:xlink="http://www.w3.org/1999/xlink" width="16px" height="16px"
     viewBox="0 0 16 16" version="1.1">
    <defs>
        <filter id="alpha" filterUnits="objectBoundingBox" x="0%" y="0%" width="100%" height="100%">
            <feColorMatrix type="matrix" in="SourceGraphic" values="0 0 0 0 1 0 0 0 0 1 0 0 0 0 1 0 0 0 1 0"/>
        </filter>
        <mask id="mask">
            <g filter="url(#alpha)">
                <rect x="0" y="0" width="16" height="16" style="fill:rgb(0%,0%,0%);fill-opacity:1;stroke:none;"/>
            </g>
        </mask>
        <clipPath id="clip">
            <rect x="0" y="0" width="16" height="16"/>
        </clipPath>
        <g id="surface5" clip-path="url(#clip)">
            <path
                style="fill:none;stroke-width:1.5;stroke-linecap:round;stroke-linejoin:round;stroke:#389FD6;stroke-opacity:1;stroke-miterlimit:10;"
                d="M 9.972656 19.998047 L 7.96875 22.001953 " transform="matrix(0.666667,0,0,0.666667,0,0)"/>
        </g>
        <g id="surface8" clip-path="url(#clip)">
            <path
                style="fill:none;stroke-width:1.5;stroke-linecap:round;stroke-linejoin:round;stroke:#389FD6;stroke-opacity:1;stroke-miterlimit:10;"
                d="M 13.96875 19.998047 L 11.970703 22.001953 " transform="matrix(0.666667,0,0,0.666667,0,0)"/>
        </g>
        <g id="surface11" clip-path="url(#clip)">
            <path
                style="fill:none;stroke-width:1.5;stroke-linecap:round;stroke-linejoin:round;stroke:#389FD6;stroke-opacity:1;stroke-miterlimit:10;"
                d="M 13.96875 16.001953 L 11.970703 18 " transform="matrix(0.666667,0,0,0.666667,0,0)"/>
        </g>
        <g id="surface14" clip-path="url(#clip)">
            <path
                style="fill:none;stroke-width:1.5;stroke-linecap:round;stroke-linejoin:round;stroke:#389FD6;stroke-opacity:1;stroke-miterlimit:10;"
                d="M 9.972656 16.001953 L 7.96875 18 " transform="matrix(0.666667,0,0,0.666667,0,0)"/>
        </g>
    </defs>
    <g id="surface1">
        <path
            style="fill:none;stroke-width:1.5;stroke-linecap:round;stroke-linejoin:round;stroke:#AFB1B3;stroke-opacity:1;stroke-miterlimit:10;"
            d="M 16.611328 19.998047 C 17.947266 20.009766 19.242187 19.511719 20.232422 18.609375 C 23.501953 15.75 21.75 10.007812 17.4375 9.46875 C 15.902344 0.128906 2.431641 3.667969 5.619141 12.5625 "
            transform="matrix(0.666667,0,0,0.666667,0,0)"/>
        <path
            style="fill:none;stroke-width:1.5;stroke-linecap:round;stroke-linejoin:round;stroke:#AFB1B3;stroke-opacity:1;stroke-miterlimit:10;"
            d="M 7.277344 12.972656 C 6.75 12.697266 6.158203 12.5625 5.572266 12.568359 C 0.908203 12.902344 0.919922 19.681641 5.572266 20.009766 "
            transform="matrix(0.666667,0,0,0.666667,0,0)"/>
        <path
            style="fill:none;stroke-width:1.5;stroke-linecap:round;stroke-linejoin:round;stroke:#AFB1B3;stroke-opacity:1;stroke-miterlimit:10;"
            d="M 15.820312 9.890625 C 16.341797 9.632812 16.898437 9.492187 17.478516 9.480469 "
            transform="matrix(0.666667,0,0,0.666667,0,0)"/>
        <use xlink:href="#surface5" mask="url(#mask)"/>
        <use xlink:href="#surface8" mask="url(#mask)"/>
        <use xlink:href="#surface11" mask="url(#mask)"/>
        <use xlink:href="#surface14" mask="url(#mask)"/>
    </g>
</svg>
