<?xml version="1.0" encoding="UTF-8"?>
<!--
  - This file is part of "SAP Commerce Developers Toolset" plugin for Intellij IDEA.
  - Copyright (C) 2019-2023 EPAM Systems <hybrisideaplugin@epam.com> and contributors
  -
  - This program is free software: you can redistribute it and/or modify
  - it under the terms of the GNU Lesser General Public License as
  - published by the Free Software Foundation, either version 3 of the
  - License, or (at your option) any later version.
  -
  - This program is distributed in the hope that it will be useful,
  - but WITHOUT ANY WARRANTY; without even the implied warranty of
  - MERCHANTABILITY or FITNESS FOR A PARTICULAR PURPOSE.
  - See the GNU Lesser General Public License for more details.
  -
  - You should have received a copy of the GNU Lesser General Public License
  - along with this program. If not, see <http://www.gnu.org/licenses/>.
  -->

<svg xmlns="http://www.w3.org/2000/svg" width="16px" height="16px" viewBox="0 0 16 16" version="1.1">
    <style type="text/css">
        .st1{fill:#AFB1B3;}
        .st2{fill:#F4AF3D;}
        .st3{fill:#59A869;}
        .st4{fill:#389FD6;}
        .st5{fill:#59A869;}
    </style>
    <path class="st4" d="M 14.601562 15.988281 L 11.980469 15.988281 C 11.707031 15.988281 11.488281 15.769531 11.488281 15.496094 C 11.488281 15.226562 11.707031 15.003906 11.980469 15.003906 L 14.601562 15.003906 C 14.828125 15.003906 15.015625 14.820312 15.015625 14.589844 L 15.015625 12.566406 C 14.847656 12.585938 14.6875 12.597656 14.539062 12.597656 C 12.933594 12.597656 11.625 11.292969 11.625 9.683594 C 11.625 8.078125 12.933594 6.769531 14.539062 6.769531 C 14.6875 6.769531 14.847656 6.78125 15.015625 6.804688 L 15.015625 4.78125 C 15.015625 4.550781 14.828125 4.363281 14.601562 4.363281 L 4.789062 4.363281 C 4.5625 4.363281 4.375 4.550781 4.375 4.78125 L 4.375 5.28125 C 4.375 5.550781 4.15625 5.773438 3.882812 5.773438 C 3.609375 5.773438 3.390625 5.550781 3.390625 5.28125 L 3.390625 4.78125 C 3.390625 4.007812 4.019531 3.378906 4.789062 3.378906 L 14.601562 3.378906 C 15.371094 3.378906 16 4.007812 16 4.78125 L 16 7.398438 C 16 7.550781 15.929688 7.695312 15.8125 7.789062 C 15.691406 7.882812 15.535156 7.914062 15.386719 7.878906 C 15.070312 7.796875 14.777344 7.753906 14.539062 7.753906 C 13.476562 7.753906 12.609375 8.621094 12.609375 9.683594 C 12.609375 10.75 13.476562 11.613281 14.539062 11.613281 C 14.777344 11.613281 15.070312 11.570312 15.386719 11.492188 C 15.535156 11.457031 15.691406 11.488281 15.8125 11.582031 C 15.929688 11.675781 16 11.820312 16 11.96875 L 16 14.589844 C 16 15.363281 15.371094 15.988281 14.601562 15.988281 Z M 7.410156 15.988281 L 4.789062 15.988281 C 4.019531 15.988281 3.390625 15.363281 3.390625 14.589844 L 3.390625 11.476562 C 3.390625 11.207031 3.609375 10.984375 3.882812 10.984375 C 4.15625 10.984375 4.375 11.207031 4.375 11.476562 L 4.375 14.589844 C 4.375 14.820312 4.5625 15.003906 4.789062 15.003906 L 6.8125 15.003906 C 6.792969 14.835938 6.78125 14.675781 6.78125 14.527344 C 6.78125 12.921875 8.089844 11.613281 9.695312 11.613281 C 9.96875 11.613281 10.1875 11.835938 10.1875 12.105469 C 10.1875 12.378906 9.96875 12.597656 9.695312 12.597656 C 8.632812 12.597656 7.765625 13.464844 7.765625 14.527344 C 7.765625 14.765625 7.808594 15.058594 7.886719 15.378906 C 7.925781 15.523438 7.890625 15.679688 7.796875 15.800781 C 7.703125 15.917969 7.5625 15.988281 7.410156 15.988281 Z M 7.410156 15.988281 "/>
    <path class="st3" d="M 12.136719 2.941406 C 12.136719 4.289062 11.046875 5.378906 9.699219 5.378906 C 8.351562 5.378906 7.261719 4.289062 7.261719 2.941406 C 7.261719 1.59375 8.351562 0.503906 9.699219 0.503906 C 11.046875 0.503906 12.136719 1.59375 12.136719 2.941406 Z M 12.136719 2.941406 "/>
    <path class="st1" d="M 9.699219 5.871094 C 8.082031 5.871094 6.769531 4.558594 6.769531 2.941406 C 6.769531 1.324219 8.082031 0.0117188 9.699219 0.0117188 C 11.316406 0.0117188 12.628906 1.324219 12.628906 2.941406 C 12.628906 4.558594 11.316406 5.871094 9.699219 5.871094 Z M 9.699219 0.996094 C 8.625 0.996094 7.753906 1.867188 7.753906 2.941406 C 7.753906 4.015625 8.625 4.886719 9.699219 4.886719 C 10.773438 4.886719 11.644531 4.015625 11.644531 2.941406 C 11.644531 1.867188 10.773438 0.996094 9.699219 0.996094 Z M 9.699219 0.996094 "/>
    <path class="st2" d="M 5.367188 9.628906 C 5.367188 10.976562 4.277344 12.066406 2.929688 12.066406 C 1.585938 12.066406 0.492188 10.976562 0.492188 9.628906 C 0.492188 8.28125 1.585938 7.191406 2.929688 7.191406 C 4.277344 7.191406 5.367188 8.28125 5.367188 9.628906 Z M 5.367188 9.628906 "/>
    <path class="st1" d="M 2.929688 12.558594 C 1.316406 12.558594 0 11.246094 0 9.628906 C 0 8.011719 1.316406 6.699219 2.929688 6.699219 C 4.546875 6.699219 5.859375 8.011719 5.859375 9.628906 C 5.859375 11.246094 4.546875 12.558594 2.929688 12.558594 Z M 2.929688 7.683594 C 1.859375 7.683594 0.984375 8.554688 0.984375 9.628906 C 0.984375 10.699219 1.859375 11.574219 2.929688 11.574219 C 4.003906 11.574219 4.875 10.699219 4.875 9.628906 C 4.875 8.554688 4.003906 7.683594 2.929688 7.683594 Z M 2.929688 7.683594 "/>
</svg>
