<?xml version="1.0" encoding="UTF-8"?>
<svg xmlns="http://www.w3.org/2000/svg" width="16px" height="16px" viewBox="0 0 16 16" version="1.1">
    <g id="surface1">
        <path style=" stroke:none;fill-rule:nonzero;fill:#F4AF3D;fill-opacity:1;"
              d="M 6.671875 6.953125 L 2.921875 6.953125 C 2.644531 6.953125 2.421875 6.730469 2.421875 6.453125 L 2.421875 1.84375 C 2.421875 1.566406 2.644531 1.34375 2.921875 1.34375 L 6.671875 1.34375 C 6.945312 1.34375 7.171875 1.566406 7.171875 1.84375 L 7.171875 4.300781 C 7.171875 4.574219 6.945312 4.800781 6.671875 4.800781 C 6.394531 4.800781 6.171875 4.574219 6.171875 4.300781 L 6.171875 2.34375 L 3.421875 2.34375 L 3.421875 5.953125 L 6.171875 5.953125 L 6.171875 5.90625 C 6.171875 5.632812 6.394531 5.40625 6.671875 5.40625 C 6.945312 5.40625 7.171875 5.632812 7.171875 5.90625 L 7.171875 6.453125 C 7.171875 6.730469 6.945312 6.953125 6.671875 6.953125 Z M 6.671875 6.953125 "/>
        <path style=" stroke:none;fill-rule:nonzero;fill:#6C707E;fill-opacity:1;"
              d="M 13.078125 6.953125 L 8.515625 6.953125 C 8.238281 6.953125 8.015625 6.730469 8.015625 6.453125 L 8.015625 1.84375 C 8.015625 1.566406 8.238281 1.34375 8.515625 1.34375 L 13.078125 1.34375 C 13.355469 1.34375 13.578125 1.566406 13.578125 1.84375 L 13.578125 6.453125 C 13.578125 6.730469 13.355469 6.953125 13.078125 6.953125 Z M 9.015625 5.953125 L 12.578125 5.953125 L 12.578125 2.34375 L 9.015625 2.34375 Z M 9.015625 5.953125 "/>
        <path style=" stroke:none;fill-rule:nonzero;fill:#6C707E;fill-opacity:1;"
              d="M 8.398438 14.65625 L 2.921875 14.65625 C 2.644531 14.65625 2.421875 14.433594 2.421875 14.15625 L 2.421875 8.25 C 2.421875 7.972656 2.644531 7.75 2.921875 7.75 L 3.75 7.75 C 4.027344 7.75 4.25 7.972656 4.25 8.25 C 4.25 8.527344 4.027344 8.75 3.75 8.75 L 3.421875 8.75 L 3.421875 13.65625 L 7.898438 13.65625 L 7.898438 8.75 L 5.289062 8.75 C 5.011719 8.75 4.789062 8.527344 4.789062 8.25 C 4.789062 7.972656 5.011719 7.75 5.289062 7.75 L 8.398438 7.75 C 8.671875 7.75 8.898438 7.972656 8.898438 8.25 L 8.898438 14.15625 C 8.898438 14.433594 8.671875 14.65625 8.398438 14.65625 Z M 8.398438 14.65625 "/>
        <path style=" stroke:none;fill-rule:nonzero;fill:#6C707E;fill-opacity:1;"
              d="M 13.078125 14.65625 L 10.101562 14.65625 C 9.824219 14.65625 9.601562 14.433594 9.601562 14.15625 L 9.601562 8.25 C 9.601562 7.972656 9.824219 7.75 10.101562 7.75 L 13.078125 7.75 C 13.355469 7.75 13.578125 7.972656 13.578125 8.25 L 13.578125 11.976562 C 13.578125 12.253906 13.355469 12.476562 13.078125 12.476562 C 12.800781 12.476562 12.578125 12.253906 12.578125 11.976562 L 12.578125 8.75 L 10.601562 8.75 L 10.601562 13.65625 L 12.582031 13.65625 C 12.601562 13.382812 12.84375 13.175781 13.121094 13.195312 C 13.394531 13.214844 13.601562 13.457031 13.582031 13.734375 L 13.582031 14.15625 C 13.582031 14.289062 13.527344 14.417969 13.433594 14.511719 C 13.339844 14.605469 13.210938 14.660156 13.078125 14.65625 Z M 13.078125 14.65625 "/>
    </g>
</svg>
