<?xml version="1.0" encoding="utf-8"?>
<!--
  - This file is part of "SAP Commerce Developers Toolset" plugin for Intellij IDEA.
  - Copyright (C) 2019-2023 EPAM Systems <hybrisideaplugin@epam.com> and contributors
  -
  - This program is free software: you can redistribute it and/or modify
  - it under the terms of the GNU Lesser General Public License as
  - published by the Free Software Foundation, either version 3 of the
  - License, or (at your option) any later version.
  -
  - This program is distributed in the hope that it will be useful,
  - but WITHOUT ANY WARRANTY; without even the implied warranty of
  - MERCHANTABILITY or FITNESS FOR A PARTICULAR PURPOSE.
  - See the GNU Lesser General Public License for more details.
  -
  - You should have received a copy of the GNU Lesser General Public License
  - along with this program. If not, see <http://www.gnu.org/licenses/>.
  -->

<svg xmlns="http://www.w3.org/2000/svg" width="16" height="16" viewBox="0 0 16 16">
<g transform="matrix(1, 0, 0, 1, 76.675743, 86.701859)">
	<path fill="#935E2D" fill-opacity=".8"  d="M-67-82.3c-0.6,0.6-1.4,1.2-2.7,1.6c-0.4,0.1-0.8,0.3-1.1,0.4c0.1-0.1,0.2-0.2,0.3-0.3
		C-69.5-81.6-68.1-82.3-67-82.3 M-67-76.7c-1,1-2.3,1.6-3.4,1.7c0.5-0.4,1.2-0.8,2.3-1.2C-67.7-76.4-67.3-76.6-67-76.7 M-66.8-84.3
		c-1.7,0-3.6,0.8-5.2,2.4c-2.3,2.2-3,5.2-1.9,7.1c0.5-1.2,1.7-2.9,4.8-4c3.4-1.2,4.6-3.4,5-4.5c0,0,0,0,0,0
		C-64.7-84-65.7-84.3-66.8-84.3L-66.8-84.3z M-63.5-82.7c-0.3,0.6-0.7,1.5-1.6,2.3c-0.8,0.8-2,1.6-3.7,2.2c-3.4,1.2-4.3,3.1-4.6,4
		c0,0,0,0,0,0c0.7,0.7,1.7,1,2.7,1c1.7,0,3.6-0.8,5.2-2.4C-63.1-77.7-62.4-80.7-63.5-82.7L-63.5-82.7z"/>
</g>
</svg>
