<!--
  - This file is part of "SAP Commerce Developers Toolset" plugin for Intellij IDEA.
  - Copyright (C) 2019-2023 EPAM Systems <hybrisideaplugin@epam.com> and contributors
  -
  - This program is free software: you can redistribute it and/or modify
  - it under the terms of the GNU Lesser General Public License as
  - published by the Free Software Foundation, either version 3 of the
  - License, or (at your option) any later version.
  -
  - This program is distributed in the hope that it will be useful,
  - but WITHOUT ANY WARRANTY; without even the implied warranty of
  - MERCHANTABILITY or FITNESS FOR A PARTICULAR PURPOSE.
  - See the GNU Lesser General Public License for more details.
  -
  - You should have received a copy of the GNU Lesser General Public License
  - along with this program. If not, see <http://www.gnu.org/licenses/>.
  -->

<svg xmlns="http://www.w3.org/2000/svg" width="16" height="16" viewBox="0 0 16 16">
	<g fill="none" fill-rule="evenodd">
		<path fill="#935E2D" fill-opacity=".8" d="M9.06065145,8 L3.3735,2.3134 C6.1755,0.0574 9.7675,0.8624 12.4525,3.5484 C13.7823455,4.87824548 14.651157,6.4309977 14.9149195,8 L9.06065145,8 Z M6,14.2514228 C5.13568714,13.8195738 4.30545465,13.2113546 3.5475,12.4534 C0.8635,9.7694 0.0575,6.1774 2.3135,3.3754 L6.9381,8 L6,8 L6,14.2514228 Z"/>
		<path fill="#6E6E6E" fill-opacity=".8" d="M7,9 L16,9 L16,16 L7,16 L7,9 Z M15,11.2 L15,10 L11.5,12.25 L8,10 L8,11.2 L11.5,13.45 L15,11.2 Z"/>
	</g>
</svg>
