<!--
  - This file is part of "SAP Commerce Developers Toolset" plugin for Intellij IDEA.
  - Copyright (C) 2019-2023 EPAM Systems <hybrisideaplugin@epam.com> and contributors
  -
  - This program is free software: you can redistribute it and/or modify
  - it under the terms of the GNU Lesser General Public License as
  - published by the Free Software Foundation, either version 3 of the
  - License, or (at your option) any later version.
  -
  - This program is distributed in the hope that it will be useful,
  - but WITHOUT ANY WARRANTY; without even the implied warranty of
  - MERCHANTABILITY or FITNESS FOR A PARTICULAR PURPOSE.
  - See the GNU Lesser General Public License for more details.
  -
  - You should have received a copy of the GNU Lesser General Public License
  - along with this program. If not, see <http://www.gnu.org/licenses/>.
  -->

<svg width="16" height="16" viewBox="0 0 16 16" fill="none" xmlns="http://www.w3.org/2000/svg">
<style>
    .st0{fill:#AFB1B3;}
    .st1{fill:#3592C4;}
    .st2{fill:#F0A732;}
</style>
    <path class="st0"
          d="M 10.171 15.679 C 9.98 15.679 9.802 15.573 9.71 15.409 C 9.618 15.246 9.618 15.04 9.717 14.876 L 10.463 13.634 C 10.611 13.379 10.937 13.301 11.194 13.45 C 11.449 13.598 11.527 13.925 11.377 14.181 L 11.186 14.5 C 13.146 14.039 14.615 12.278 14.615 10.177 C 14.615 9.886 14.857 9.644 15.148 9.644 C 15.438 9.644 15.68 9.886 15.68 10.177 C 15.673 13.209 13.203 15.679 10.171 15.679 Z"
          transform="matrix(1, 0, 0, 1, -7.105427357601002e-15, 0)"/>
    <path class="st0"
          d="M 0.943 6.451 C 0.653 6.451 0.411 6.21 0.411 5.919 C 0.411 2.887 2.881 0.417 5.913 0.417 C 6.104 0.417 6.281 0.523 6.374 0.687 C 6.466 0.85 6.466 1.055 6.366 1.219 L 5.621 2.469 C 5.473 2.717 5.146 2.802 4.89 2.645 C 4.642 2.497 4.557 2.171 4.712 1.914 L 4.905 1.595 C 2.938 2.056 1.476 3.817 1.476 5.919 C 1.476 6.21 1.234 6.451 0.943 6.451 Z"
          transform="matrix(1, 0, 0, 1, -7.105427357601002e-15, 0)"/>
    <path class="st1"
          d="M 7.097 9.36 L 4.87 8.161 C 4.635 8.032 4.351 8.032 4.117 8.161 L 1.889 9.36 C 1.725 9.446 1.625 9.624 1.625 9.815 C 1.625 10.007 1.725 10.184 1.889 10.269 L 4.117 11.469 C 4.238 11.533 4.366 11.561 4.493 11.561 C 4.621 11.561 4.749 11.533 4.87 11.469 L 7.097 10.269 C 7.261 10.184 7.361 10.007 7.361 9.815 C 7.361 9.624 7.254 9.452 7.097 9.36 Z"
          transform="matrix(1, 0, 0, 1, -7.105427357601002e-15, 0)"/>
    <path class="st1"
          d="M 3.747 11.889 L 1.674 10.852 C 1.518 10.775 1.334 10.781 1.178 10.873 C 1.036 10.966 0.943 11.13 0.943 11.307 L 0.943 13.265 C 0.943 13.607 1.128 13.911 1.433 14.06 L 3.506 15.097 C 3.577 15.125 3.655 15.147 3.732 15.147 C 3.825 15.147 3.917 15.119 4.002 15.069 C 4.152 14.976 4.244 14.813 4.244 14.636 L 4.244 12.676 C 4.244 12.344 4.053 12.038 3.747 11.889 Z"
          transform="matrix(1, 0, 0, 1, -7.105427357601002e-15, 0)"/>
    <path class="st1"
          d="M 7.801 10.873 C 7.652 10.781 7.468 10.775 7.304 10.852 L 5.231 11.889 C 4.927 12.038 4.742 12.344 4.742 12.684 L 4.742 14.643 C 4.742 14.821 4.834 14.983 4.983 15.076 C 5.068 15.119 5.161 15.147 5.253 15.147 C 5.331 15.147 5.409 15.125 5.48 15.091 L 7.553 14.054 C 7.858 13.905 8.042 13.599 8.042 13.259 L 8.042 11.3 C 8.042 11.13 7.95 10.966 7.801 10.873 Z"
          transform="matrix(1, 0, 0, 1, -7.105427357601002e-15, 0)"/>
    <path class="st2"
          d="M 14.196 2.247 L 11.968 1.048 C 11.732 0.92 11.449 0.92 11.215 1.048 L 8.986 2.247 C 8.823 2.332 8.723 2.51 8.723 2.702 C 8.723 2.894 8.823 3.07 8.986 3.157 L 11.215 4.356 C 11.336 4.42 11.464 4.448 11.591 4.448 C 11.719 4.448 11.847 4.42 11.968 4.356 L 14.196 3.157 C 14.359 3.07 14.459 2.894 14.459 2.702 C 14.459 2.504 14.353 2.332 14.196 2.247 Z"
          transform="matrix(1, 0, 0, 1, -7.105427357601002e-15, 0)"/>
    <path class="st2"
          d="M 10.846 4.769 L 8.773 3.732 C 8.617 3.653 8.432 3.661 8.277 3.753 C 8.134 3.846 8.041 4.008 8.041 4.186 L 8.041 6.145 C 8.041 6.486 8.226 6.791 8.532 6.94 L 10.605 7.977 C 10.675 8.013 10.754 8.034 10.831 8.034 C 10.924 8.034 11.016 8.005 11.101 7.956 C 11.251 7.864 11.343 7.7 11.343 7.522 L 11.343 5.564 C 11.343 5.222 11.151 4.918 10.846 4.769 Z"
          transform="matrix(1, 0, 0, 1, -7.105427357601002e-15, 0)"/>
    <path class="st2"
          d="M 14.9 3.753 C 14.751 3.661 14.566 3.653 14.403 3.732 L 12.33 4.769 C 12.025 4.918 11.84 5.222 11.84 5.564 L 11.84 7.522 C 11.84 7.7 11.932 7.864 12.081 7.956 C 12.166 8.005 12.259 8.034 12.351 8.034 C 12.429 8.034 12.508 8.013 12.578 7.977 L 14.651 6.94 C 14.957 6.784 15.141 6.479 15.141 6.145 L 15.141 4.186 C 15.141 4.008 15.049 3.846 14.9 3.753 Z"
          transform="matrix(1, 0, 0, 1, -7.105427357601002e-15, 0)"/>
</svg>
