<!--
  - This file is part of "SAP Commerce Developers Toolset" plugin for Intellij IDEA.
  - Copyright (C) 2019-2023 EPAM Systems <hybrisideaplugin@epam.com> and contributors
  -
  - This program is free software: you can redistribute it and/or modify
  - it under the terms of the GNU Lesser General Public License as
  - published by the Free Software Foundation, either version 3 of the
  - License, or (at your option) any later version.
  -
  - This program is distributed in the hope that it will be useful,
  - but WITHOUT ANY WARRANTY; without even the implied warranty of
  - MERCHANTABILITY or FITNESS FOR A PARTICULAR PURPOSE.
  - See the GNU Lesser General Public License for more details.
  -
  - You should have received a copy of the GNU Lesser General Public License
  - along with this program. If not, see <http://www.gnu.org/licenses/>.
  -->
<svg width="16" height="16" viewBox="0 0 16 16" fill="none" xmlns="http://www.w3.org/2000/svg">
  <circle cx="8" cy="8" r="6.5" fill="#FAF5FF" stroke="#389FD6"/>
  <path fill="#c28400" opacity=".8" fill-rule="evenodd" clip-rule="evenodd" d="M5 6C4.72386 6 4.5 6.22386 4.5 6.5C4.5 6.77614 4.72386 7 5 7H11C11.2761 7 11.5 6.77614 11.5 6.5C11.5 6.22386 11.2761 6 11 6H5ZM5.00002 8.99999C4.72388 8.99999 4.50002 9.22385 4.50002 9.49999C4.50002 9.77614 4.72388 9.99999 5.00002 9.99999H11C11.2762 9.99999 11.5 9.77614 11.5 9.49999C11.5 9.22385 11.2762 8.99999 11 8.99999H5.00002Z"/>
</svg>