<svg xmlns="http://www.w3.org/2000/svg" width="16" height="16" viewBox="0 0 16 16">
    <g fill="none">
        <path
            d="M10.0657 5.24573C9.25361 5.24573 8.636 5.6473 8.29593 6.31537C8.00368 5.64257 7.40552 5.24573 6.6071 5.24573C5.84915 5.24573 5.28147 5.60946 4.96189 6.24862V5.37188H4V10.7543H4.99869V7.59001C4.99869 6.68068 5.5138 6.10775 6.32852 6.10775C7.0749 6.10775 7.50591 6.61761 7.50591 7.43758V10.7543H8.49409V7.59001C8.49409 6.68068 9.01971 6.10775 9.82392 6.10775C10.5756 6.10775 11.0013 6.61761 11.0013 7.43758V10.7543H12V7.35874C12 6.07096 11.2168 5.24573 10.0657 5.24573Z"
            fill="#72DDF7"/>
        <rect width="1" height="12" x="1" y="2" fill="#6E6E6E"/>
        <rect width="2" height="1" x="2" y="2" fill="#6E6E6E"/>
        <rect width="2" height="1" x="2" y="13" fill="#6E6E6E"/>
        <rect width="1" height="12" x="14" y="2" fill="#6E6E6E"/>
        <rect width="3" height="1" x="12" y="2" fill="#6E6E6E"/>
        <rect width="2" height="1" x="12" y="13" fill="#6E6E6E"/>
    </g>
</svg>
