<svg xmlns="http://www.w3.org/2000/svg" width="16" height="16" viewBox="0 0 16 16">
    <g fill="none" fill-rule="evenodd">
        <path fill-rule="evenodd" clip-rule="evenodd"
              d="M5 6C4.72386 6 4.5 6.22386 4.5 6.5C4.5 6.77614 4.72386 7 5 7H11C11.2761 7 11.5 6.77614 11.5 6.5C11.5 6.22386 11.2761 6 11 6H5ZM5.00002 8.99999C4.72388 8.99999 4.50002 9.22385 4.50002 9.49999C4.50002 9.77614 4.72388 9.99999 5.00002 9.99999H11C11.2762 9.99999 11.5 9.77614 11.5 9.49999C11.5 9.22385 11.2762 8.99999 11 8.99999H5.00002Z"
              fill="#FFD166"/>
        <rect width="1" height="12" x="1" y="2" fill="#6E6E6E"/>
        <rect width="2" height="1" x="2" y="2" fill="#6E6E6E"/>
        <rect width="2" height="1" x="2" y="13" fill="#6E6E6E"/>
        <rect width="1" height="12" x="14" y="2" fill="#6E6E6E"/>
        <rect width="3" height="1" x="12" y="2" fill="#6E6E6E"/>
        <rect width="2" height="1" x="12" y="13" fill="#6E6E6E"/>
    </g>
</svg>
