<?xml version="1.0" encoding="UTF-8"?>
<svg xmlns="http://www.w3.org/2000/svg" width="16px" height="16px" viewBox="0 0 16 16" version="1.1">
    <g>
        <path style="fill:#6E6E6E"
              d="M 14.445 3.227 L 12.016 7.117 L 12.496 11.445 C 12.512 11.598 12.461 11.746 12.352 11.855 L 11.352 12.855 C 11.238 12.969 11.078 13.02 10.922 12.992 C 10.762 12.969 10.625 12.867 10.555 12.727 L 8.859 9.371 L 8.574 9.645 L 9.473 12.34 C 9.563 12.605 9.422 12.887 9.156 12.973 L 7.656 13.473 C 7.605 13.492 7.551 13.5 7.5 13.5 C 7.289 13.5 7.094 13.367 7.027 13.16 C 6.938 12.895 7.078 12.613 7.34 12.527 L 8.367 12.184 L 7.527 9.66 C 7.465 9.473 7.516 9.273 7.656 9.137 L 8.656 8.18 C 8.773 8.07 8.934 8.023 9.09 8.051 C 9.242 8.078 9.379 8.176 9.449 8.316 L 11.137 11.656 L 11.477 11.316 L 11.004 7.055 C 10.992 6.945 11.016 6.832 11.074 6.734 L 13.605 2.684 C 13.641 2.629 13.637 2.57 13.598 2.531 C 13.563 2.496 13.504 2.488 13.461 2.52 L 9.25 4.934 C 9.172 4.977 9.086 5 9 5 L 4.707 5 L 4.402 5.305 L 7.676 6.531 C 7.836 6.59 7.953 6.727 7.988 6.895 C 8.023 7.059 7.973 7.234 7.852 7.352 L 6.852 8.352 C 6.738 8.469 6.578 8.52 6.418 8.492 L 4 8.09 L 4 8.793 L 5 9.793 L 5.148 9.645 C 5.344 9.449 5.66 9.449 5.855 9.645 C 6.051 9.84 6.051 10.156 5.855 10.352 L 5.707 10.5 L 6 10.793 L 6.148 10.645 C 6.344 10.449 6.66 10.449 6.855 10.645 C 7.051 10.84 7.051 11.156 6.855 11.352 L 6.355 11.852 C 6.258 11.953 6.129 12 6 12 C 5.871 12 5.742 11.949 5.645 11.852 L 3.145 9.352 C 3.055 9.262 3 9.133 3 9 L 3 7.5 C 3 7.352 3.066 7.215 3.176 7.117 C 3.289 7.023 3.438 6.98 3.582 7.008 L 6.328 7.465 L 6.598 7.195 L 3.324 5.969 C 3.164 5.91 3.047 5.773 3.012 5.605 C 2.977 5.441 3.027 5.266 3.148 5.148 L 4.148 4.148 C 4.242 4.055 4.367 4 4.5 4 L 8.867 4 L 12.934 1.668 C 13.344 1.395 13.934 1.453 14.305 1.824 C 14.68 2.199 14.738 2.789 14.445 3.227 Z"/>
        <path style="fill:#389FD6"
              d="M 3.648 12.648 L 2.648 13.648 C 2.453 13.844 2.453 14.16 2.648 14.355 C 2.746 14.453 2.871 14.5 3 14.5 C 3.129 14.5 3.258 14.449 3.355 14.352 L 4.355 13.352 C 4.551 13.156 4.551 12.84 4.355 12.645 C 4.16 12.449 3.844 12.453 3.648 12.648 Z M 3 12.5 C 3.277 12.5 3.5 12.277 3.5 12 C 3.5 11.723 3.277 11.5 3 11.5 C 2.723 11.5 2.5 11.723 2.5 12 C 2.5 12.277 2.723 12.5 3 12.5 Z M 3 12.5"/>
    </g>
</svg>
